<svg xmlns="http://www.w3.org/2000/svg" xmlns:xlink="http://www.w3.org/1999/xlink" width="2292" zoomAndPan="magnify" viewBox="0 0 1718.88 1550.999937" height="2068" preserveAspectRatio="xMidYMid meet" version="1.0"><defs><clipPath id="e590b0eda3"><path d="M 0 3 L 1718.128906 3 L 1718.128906 471 L 0 471 Z M 0 3 " clip-rule="nonzero"/></clipPath></defs><path fill="#dddaeb" d="M 1449.632812 787.648438 L 202.070312 787.648438 L 202.070312 1440.609375 L 1449.632812 1440.609375 Z M 1449.632812 787.648438 " fill-opacity="1" fill-rule="nonzero"/><path fill="#f9d9a0" d="M 1014.632812 1038.847656 L 1014.632812 1451.886719 C 1014.667969 1456.097656 1013.863281 1460.273438 1012.269531 1464.171875 C 1010.671875 1468.070312 1008.316406 1471.609375 1005.332031 1474.585938 C 1002.355469 1477.5625 998.8125 1479.917969 994.910156 1481.511719 C 991.007812 1483.109375 986.832031 1483.910156 982.617188 1483.875 L 735.925781 1483.875 C 731.714844 1483.910156 727.535156 1483.109375 723.632812 1481.511719 C 719.734375 1479.917969 716.191406 1477.5625 713.210938 1474.585938 C 710.230469 1471.609375 707.875 1468.070312 706.277344 1464.171875 C 704.679688 1460.273438 703.875 1456.097656 703.910156 1451.886719 L 703.910156 1038.847656 C 704.039062 1030.488281 707.484375 1022.527344 713.488281 1016.703125 C 719.492188 1010.878906 727.5625 1007.675781 735.925781 1007.796875 L 982.617188 1007.796875 C 990.984375 1007.675781 999.054688 1010.878906 1005.054688 1016.703125 C 1011.058594 1022.527344 1014.503906 1030.488281 1014.632812 1038.847656 Z M 1014.632812 1038.847656 " fill-opacity="1" fill-rule="nonzero"/><path fill="#f9d9a0" d="M 1014.597656 1080.269531 L 1014.597656 1184.714844 L 703.859375 1444.371094 L 703.859375 1350.238281 Z M 1014.597656 1080.269531 " fill-opacity="1" fill-rule="nonzero"/><path fill="#f9d9a0" d="M 976.957031 1007.78125 L 703.859375 1213.84375 L 703.859375 1169.652344 L 916.652344 1007.78125 Z M 976.957031 1007.78125 " fill-opacity="1" fill-rule="nonzero"/><path fill="#dddaeb" d="M 1563.542969 271.082031 L 1563.542969 712.335938 L 155.035156 712.335938 L 155.035156 279.574219 L 625.757812 116.789062 L 1132.292969 116.789062 Z M 1563.542969 271.082031 " fill-opacity="1" fill-rule="nonzero"/><path fill="#dddaeb" d="M 155.027344 574.839844 L 869.511719 277.019531 L 1563.53125 547.445312 L 1563.53125 370.597656 L 859.28125 103.914062 L 146.527344 414.238281 Z M 155.027344 574.839844 " fill-opacity="1" fill-rule="nonzero"/><path fill="#fdc93f" d="M 294.542969 857.734375 L 143.890625 857.734375 L 143.890625 1375.210938 L 294.542969 1375.210938 Z M 294.542969 857.734375 " fill-opacity="1" fill-rule="nonzero"/><path fill="#ffffff" d="M 334.816406 1338.992188 L 334.816406 1422.730469 C 334.855469 1432.308594 331.128906 1441.527344 324.4375 1448.390625 C 317.742188 1455.25 308.625 1459.210938 299.039062 1459.417969 L 144.621094 1459.417969 C 142.996094 1459.566406 141.363281 1459.242188 139.914062 1458.484375 C 131.15625 1457.398438 123.085938 1453.175781 117.203125 1446.605469 C 111.316406 1440.03125 108.015625 1431.550781 107.90625 1422.730469 L 107.90625 1338.992188 C 108.113281 1329.414062 112.078125 1320.296875 118.945312 1313.613281 C 125.8125 1306.925781 135.03125 1303.199219 144.621094 1303.238281 L 299.039062 1303.238281 C 303.738281 1303.234375 308.390625 1304.160156 312.734375 1305.953125 C 317.074219 1307.75 321.019531 1310.382812 324.34375 1313.707031 C 327.667969 1317.027344 330.304688 1320.96875 332.097656 1325.304688 C 333.898438 1329.648438 334.820312 1334.296875 334.816406 1338.992188 Z M 334.816406 1338.992188 " fill-opacity="1" fill-rule="nonzero"/><path fill="#ffffff" d="M 334.816406 797.984375 L 334.816406 881.722656 C 334.820312 886.417969 333.894531 891.066406 332.097656 895.40625 C 330.304688 899.746094 327.667969 903.6875 324.34375 907.007812 C 321.019531 910.328125 317.074219 912.960938 312.734375 914.757812 C 308.390625 916.554688 303.738281 917.476562 299.039062 917.476562 L 144.621094 917.476562 C 135.03125 917.511719 125.8125 913.785156 118.945312 907.101562 C 112.082031 900.414062 108.117188 891.300781 107.90625 881.722656 L 107.90625 797.984375 C 108.113281 788.40625 112.078125 779.289062 118.945312 772.601562 C 125.8125 765.917969 135.03125 762.191406 144.621094 762.230469 L 299.039062 762.230469 C 303.738281 762.226562 308.390625 763.148438 312.734375 764.945312 C 317.074219 766.742188 321.019531 769.375 324.34375 772.699219 C 327.667969 776.019531 330.304688 779.957031 332.097656 784.296875 C 333.898438 788.640625 334.820312 793.289062 334.816406 797.984375 Z M 334.816406 797.984375 " fill-opacity="1" fill-rule="nonzero"/><path fill="#fdc93f" d="M 602.972656 844.566406 L 452.320312 844.566406 L 452.320312 1362.039062 L 602.972656 1362.039062 Z M 602.972656 844.566406 " fill-opacity="1" fill-rule="nonzero"/><path fill="#ffffff" d="M 639.882812 1338.992188 L 639.882812 1422.730469 C 639.707031 1432.410156 635.785156 1441.636719 628.9375 1448.484375 C 622.089844 1455.324219 612.851562 1459.246094 603.167969 1459.417969 L 448.75 1459.417969 C 447.125 1459.566406 445.488281 1459.242188 444.042969 1458.484375 C 435.28125 1457.398438 427.214844 1453.175781 421.328125 1446.605469 C 415.441406 1440.03125 412.140625 1431.550781 412.027344 1422.730469 L 412.027344 1338.992188 C 412.238281 1329.410156 416.199219 1320.296875 423.070312 1313.613281 C 429.9375 1306.921875 439.160156 1303.199219 448.75 1303.238281 L 603.167969 1303.238281 C 612.757812 1303.199219 621.976562 1306.925781 628.839844 1313.613281 C 635.707031 1320.296875 639.675781 1329.414062 639.882812 1338.992188 Z M 639.882812 1338.992188 " fill-opacity="1" fill-rule="nonzero"/><path fill="#ffffff" d="M 639.882812 797.984375 L 639.882812 881.722656 C 639.675781 891.300781 635.707031 900.414062 628.839844 907.101562 C 621.976562 913.785156 612.757812 917.511719 603.167969 917.476562 L 448.75 917.476562 C 439.160156 917.515625 429.9375 913.789062 423.070312 907.105469 C 416.207031 900.417969 412.238281 891.300781 412.027344 881.722656 L 412.027344 797.984375 C 412.238281 788.402344 416.199219 779.289062 423.070312 772.601562 C 429.9375 765.914062 439.160156 762.191406 448.75 762.230469 L 603.167969 762.230469 C 612.757812 762.191406 621.976562 765.917969 628.839844 772.601562 C 635.707031 779.289062 639.675781 788.40625 639.882812 797.984375 Z M 639.882812 797.984375 " fill-opacity="1" fill-rule="nonzero"/><path fill="#fdc93f" d="M 1274.917969 844.566406 L 1124.265625 844.566406 L 1124.265625 1362.039062 L 1274.917969 1362.039062 Z M 1274.917969 844.566406 " fill-opacity="1" fill-rule="nonzero"/><path fill="#ffffff" d="M 1329.097656 1338.992188 L 1329.097656 1422.730469 C 1328.925781 1432.410156 1325 1441.640625 1318.152344 1448.484375 C 1311.304688 1455.332031 1302.0625 1459.25 1292.378906 1459.417969 L 1137.964844 1459.417969 C 1136.339844 1459.566406 1134.703125 1459.242188 1133.257812 1458.484375 C 1124.597656 1457.355469 1116.652344 1453.09375 1110.929688 1446.503906 C 1105.199219 1439.914062 1102.09375 1431.457031 1102.191406 1422.730469 L 1102.191406 1338.992188 C 1102.1875 1334.296875 1103.113281 1329.648438 1104.910156 1325.304688 C 1106.707031 1320.96875 1109.34375 1317.027344 1112.667969 1313.707031 C 1115.984375 1310.382812 1119.933594 1307.75 1124.277344 1305.953125 C 1128.617188 1304.160156 1133.269531 1303.234375 1137.972656 1303.238281 L 1292.378906 1303.238281 C 1301.96875 1303.199219 1311.191406 1306.925781 1318.058594 1313.613281 C 1324.925781 1320.296875 1328.890625 1329.410156 1329.097656 1338.992188 Z M 1329.097656 1338.992188 " fill-opacity="1" fill-rule="nonzero"/><path fill="#ffffff" d="M 1329.101562 797.984375 L 1329.101562 881.722656 C 1328.890625 891.300781 1324.925781 900.414062 1318.058594 907.105469 C 1311.1875 913.789062 1301.96875 917.515625 1292.378906 917.476562 L 1137.964844 917.476562 C 1133.269531 917.476562 1128.613281 916.554688 1124.273438 914.757812 C 1119.929688 912.960938 1115.984375 910.328125 1112.664062 907.007812 C 1109.339844 903.6875 1106.707031 899.746094 1104.90625 895.40625 C 1103.113281 891.066406 1102.1875 886.417969 1102.1875 881.722656 L 1102.1875 797.984375 C 1102.1875 793.289062 1103.113281 788.640625 1104.90625 784.296875 C 1106.703125 779.957031 1109.339844 776.019531 1112.664062 772.699219 C 1115.984375 769.375 1119.929688 766.742188 1124.273438 764.945312 C 1128.613281 763.148438 1133.269531 762.226562 1137.964844 762.230469 L 1292.378906 762.230469 C 1301.96875 762.191406 1311.191406 765.914062 1318.058594 772.601562 C 1324.925781 779.289062 1328.890625 788.402344 1329.101562 797.984375 Z M 1329.101562 797.984375 " fill-opacity="1" fill-rule="nonzero"/><path fill="#fdc93f" d="M 1572.027344 838.445312 L 1421.375 838.445312 L 1421.375 1355.917969 L 1572.027344 1355.917969 Z M 1572.027344 838.445312 " fill-opacity="1" fill-rule="nonzero"/><path fill="#ffffff" d="M 1610.636719 1338.992188 L 1610.636719 1422.730469 C 1610.464844 1432.410156 1606.539062 1441.636719 1599.691406 1448.484375 C 1592.839844 1455.324219 1583.605469 1459.246094 1573.921875 1459.417969 L 1419.503906 1459.417969 C 1417.878906 1459.566406 1416.242188 1459.242188 1414.796875 1458.484375 C 1406.136719 1457.355469 1398.1875 1453.09375 1392.460938 1446.503906 C 1386.738281 1439.914062 1383.628906 1431.457031 1383.722656 1422.730469 L 1383.722656 1338.992188 C 1383.722656 1334.296875 1384.644531 1329.648438 1386.441406 1325.304688 C 1388.238281 1320.96875 1390.875 1317.027344 1394.195312 1313.707031 C 1397.519531 1310.382812 1401.464844 1307.75 1405.808594 1305.953125 C 1410.148438 1304.160156 1414.804688 1303.234375 1419.503906 1303.238281 L 1573.921875 1303.238281 C 1583.507812 1303.199219 1592.730469 1306.925781 1599.597656 1313.613281 C 1606.460938 1320.296875 1610.429688 1329.414062 1610.636719 1338.992188 Z M 1610.636719 1338.992188 " fill-opacity="1" fill-rule="nonzero"/><path fill="#ffffff" d="M 1610.636719 797.984375 L 1610.636719 881.722656 C 1610.425781 891.300781 1606.457031 900.414062 1599.589844 907.101562 C 1592.726562 913.785156 1583.507812 917.511719 1573.917969 917.476562 L 1419.5 917.476562 C 1414.800781 917.476562 1410.148438 916.554688 1405.808594 914.757812 C 1401.464844 912.960938 1397.519531 910.328125 1394.195312 907.007812 C 1390.875 903.6875 1388.238281 899.746094 1386.441406 895.40625 C 1384.640625 891.066406 1383.71875 886.417969 1383.722656 881.722656 L 1383.722656 797.984375 C 1383.71875 793.289062 1384.640625 788.640625 1386.441406 784.296875 C 1388.238281 779.957031 1390.875 776.019531 1394.195312 772.699219 C 1397.519531 769.375 1401.464844 766.742188 1405.808594 764.945312 C 1410.148438 763.148438 1414.800781 762.226562 1419.5 762.230469 L 1573.917969 762.230469 C 1583.507812 762.191406 1592.726562 765.917969 1599.589844 772.601562 C 1606.460938 779.289062 1610.425781 788.40625 1610.636719 797.984375 Z M 1610.636719 797.984375 " fill-opacity="1" fill-rule="nonzero"/><path fill="#fdc93f" d="M 248.402344 857.734375 L 143.890625 857.734375 L 143.890625 1374.269531 L 248.402344 1374.269531 Z M 248.402344 857.734375 " fill-opacity="1" fill-rule="nonzero"/><path fill="#ffffff" d="M 326.3125 1338.992188 L 326.3125 1421.789062 C 326.382812 1426.628906 325.480469 1431.433594 323.664062 1435.917969 C 321.84375 1440.402344 319.140625 1444.476562 315.714844 1447.898438 C 312.292969 1451.320312 308.214844 1454.023438 303.726562 1455.839844 C 299.238281 1457.65625 294.429688 1458.554688 289.585938 1458.484375 L 176.601562 1458.484375 C 167.839844 1457.398438 159.769531 1453.175781 153.886719 1446.605469 C 148 1440.03125 144.699219 1431.550781 144.589844 1422.730469 L 144.589844 1338.992188 C 144.800781 1329.414062 148.761719 1320.296875 155.628906 1313.613281 C 162.496094 1306.925781 171.71875 1303.199219 181.304688 1303.238281 L 294.296875 1303.238281 C 303.121094 1304.160156 311.289062 1308.332031 317.207031 1314.941406 C 323.125 1321.550781 326.371094 1330.121094 326.3125 1338.992188 Z M 326.3125 1338.992188 " fill-opacity="1" fill-rule="nonzero"/><path fill="#ffffff" d="M 289.625 1338.992188 L 289.625 1421.789062 C 289.695312 1426.628906 288.796875 1431.433594 286.976562 1435.917969 C 285.160156 1440.402344 282.457031 1444.476562 279.03125 1447.898438 C 275.609375 1451.320312 271.53125 1454.023438 267.042969 1455.839844 C 262.554688 1457.65625 257.746094 1458.554688 252.902344 1458.484375 L 139.914062 1458.484375 C 131.15625 1457.398438 123.085938 1453.175781 117.203125 1446.605469 C 111.316406 1440.03125 108.015625 1431.550781 107.90625 1422.730469 L 107.90625 1338.992188 C 108.113281 1329.414062 112.078125 1320.296875 118.945312 1313.613281 C 125.8125 1306.925781 135.03125 1303.199219 144.621094 1303.238281 L 257.613281 1303.238281 C 266.4375 1304.160156 274.601562 1308.332031 280.523438 1314.941406 C 286.441406 1321.550781 289.6875 1330.121094 289.625 1338.992188 Z M 289.625 1338.992188 " fill-opacity="1" fill-rule="nonzero"/><path fill="#ffffff" d="M 289.625 797.984375 L 289.625 880.78125 C 289.695312 885.621094 288.796875 890.425781 286.976562 894.910156 C 285.160156 899.394531 282.457031 903.46875 279.03125 906.886719 C 275.609375 910.3125 271.53125 913.015625 267.042969 914.832031 C 262.554688 916.648438 257.746094 917.546875 252.902344 917.476562 L 144.621094 917.476562 C 135.03125 917.511719 125.8125 913.785156 118.945312 907.101562 C 112.082031 900.414062 108.117188 891.300781 107.90625 881.722656 L 107.90625 797.984375 C 108.113281 788.40625 112.078125 779.289062 118.945312 772.601562 C 125.8125 765.917969 135.03125 762.191406 144.621094 762.230469 L 257.613281 762.230469 C 266.4375 763.148438 274.601562 767.324219 280.523438 773.933594 C 286.441406 780.542969 289.6875 789.113281 289.625 797.984375 Z M 289.625 797.984375 " fill-opacity="1" fill-rule="nonzero"/><path fill="#fdc93f" d="M 556.835938 844.566406 L 452.320312 844.566406 L 452.320312 1361.097656 L 556.835938 1361.097656 Z M 556.835938 844.566406 " fill-opacity="1" fill-rule="nonzero"/><path fill="#ffffff" d="M 593.75 1338.992188 L 593.75 1421.789062 C 593.824219 1426.628906 592.921875 1431.433594 591.101562 1435.917969 C 589.28125 1440.402344 586.582031 1444.476562 583.15625 1447.898438 C 579.730469 1451.320312 575.652344 1454.023438 571.164062 1455.839844 C 566.675781 1457.65625 561.867188 1458.554688 557.027344 1458.484375 L 444.042969 1458.484375 C 435.28125 1457.398438 427.214844 1453.175781 421.328125 1446.605469 C 415.441406 1440.03125 412.140625 1431.550781 412.027344 1422.730469 L 412.027344 1338.992188 C 412.238281 1329.410156 416.199219 1320.296875 423.070312 1313.613281 C 429.9375 1306.921875 439.160156 1303.199219 448.75 1303.238281 L 561.738281 1303.238281 C 570.566406 1304.164062 578.730469 1308.332031 584.648438 1314.941406 C 590.566406 1321.550781 593.808594 1330.121094 593.75 1338.992188 Z M 593.75 1338.992188 " fill-opacity="1" fill-rule="nonzero"/><path fill="#ffffff" d="M 593.75 797.984375 L 593.75 880.78125 C 593.824219 885.621094 592.921875 890.425781 591.101562 894.910156 C 589.28125 899.394531 586.582031 903.46875 583.15625 906.886719 C 579.730469 910.3125 575.652344 913.015625 571.164062 914.832031 C 566.675781 916.648438 561.867188 917.546875 557.027344 917.476562 L 448.75 917.476562 C 439.160156 917.515625 429.9375 913.789062 423.070312 907.105469 C 416.207031 900.417969 412.238281 891.300781 412.027344 881.722656 L 412.027344 797.984375 C 412.238281 788.402344 416.199219 779.289062 423.070312 772.601562 C 429.9375 765.914062 439.160156 762.191406 448.75 762.230469 L 561.738281 762.230469 C 570.566406 763.15625 578.730469 767.324219 584.648438 773.933594 C 590.566406 780.542969 593.808594 789.113281 593.75 797.984375 Z M 593.75 797.984375 " fill-opacity="1" fill-rule="nonzero"/><path fill="#fdc93f" d="M 1229.722656 844.566406 L 1124.265625 844.566406 L 1124.265625 1361.097656 L 1229.722656 1361.097656 Z M 1229.722656 844.566406 " fill-opacity="1" fill-rule="nonzero"/><path fill="#ffffff" d="M 1282.960938 1338.992188 L 1282.960938 1421.789062 C 1283.058594 1426.554688 1282.210938 1431.296875 1280.457031 1435.726562 C 1278.707031 1440.160156 1276.089844 1444.207031 1272.757812 1447.621094 C 1269.429688 1451.035156 1265.453125 1453.753906 1261.0625 1455.621094 C 1256.667969 1457.484375 1251.953125 1458.460938 1247.183594 1458.484375 L 1133.25 1458.484375 C 1124.585938 1457.355469 1116.640625 1453.09375 1110.917969 1446.503906 C 1105.191406 1439.914062 1102.085938 1431.457031 1102.183594 1422.730469 L 1102.183594 1338.992188 C 1102.179688 1334.296875 1103.101562 1329.644531 1104.902344 1325.304688 C 1106.699219 1320.96875 1109.335938 1317.027344 1112.660156 1313.707031 C 1115.976562 1310.382812 1119.925781 1307.75 1124.269531 1305.953125 C 1128.609375 1304.160156 1133.261719 1303.234375 1137.960938 1303.238281 L 1251.886719 1303.238281 C 1260.550781 1304.367188 1268.496094 1308.625 1274.222656 1315.21875 C 1279.949219 1321.804688 1283.054688 1330.265625 1282.960938 1338.992188 Z M 1282.960938 1338.992188 " fill-opacity="1" fill-rule="nonzero"/><path fill="#ffffff" d="M 1282.964844 797.984375 L 1282.964844 880.78125 C 1283.066406 885.546875 1282.214844 890.285156 1280.460938 894.71875 C 1278.710938 899.152344 1276.09375 903.199219 1272.761719 906.613281 C 1269.433594 910.027344 1265.460938 912.746094 1261.066406 914.609375 C 1256.679688 916.476562 1251.957031 917.453125 1247.1875 917.476562 L 1137.964844 917.476562 C 1133.269531 917.476562 1128.613281 916.554688 1124.273438 914.757812 C 1119.929688 912.960938 1115.984375 910.328125 1112.664062 907.003906 C 1109.339844 903.6875 1106.707031 899.746094 1104.90625 895.40625 C 1103.113281 891.066406 1102.1875 886.417969 1102.1875 881.722656 L 1102.1875 797.984375 C 1102.1875 793.289062 1103.113281 788.636719 1104.90625 784.296875 C 1106.703125 779.957031 1109.339844 776.019531 1112.664062 772.699219 C 1115.984375 769.375 1119.929688 766.742188 1124.273438 764.945312 C 1128.613281 763.148438 1133.269531 762.226562 1137.964844 762.230469 L 1251.890625 762.230469 C 1260.554688 763.355469 1268.5 767.617188 1274.226562 774.210938 C 1279.953125 780.796875 1283.058594 789.257812 1282.964844 797.984375 Z M 1282.964844 797.984375 " fill-opacity="1" fill-rule="nonzero"/><path fill="#fdc93f" d="M 1526.835938 838.445312 L 1421.375 838.445312 L 1421.375 1354.976562 L 1526.835938 1354.976562 Z M 1526.835938 838.445312 " fill-opacity="1" fill-rule="nonzero"/><path fill="#ffffff" d="M 1564.5 1338.992188 L 1564.5 1421.789062 C 1564.597656 1426.554688 1563.75 1431.296875 1561.996094 1435.726562 C 1560.246094 1440.164062 1557.628906 1444.207031 1554.296875 1447.621094 C 1550.96875 1451.035156 1546.996094 1453.753906 1542.601562 1455.621094 C 1538.210938 1457.484375 1533.492188 1458.460938 1528.722656 1458.484375 L 1414.796875 1458.484375 C 1406.136719 1457.355469 1398.1875 1453.09375 1392.460938 1446.503906 C 1386.738281 1439.914062 1383.628906 1431.457031 1383.722656 1422.730469 L 1383.722656 1338.992188 C 1383.722656 1334.296875 1384.644531 1329.644531 1386.441406 1325.304688 C 1388.238281 1320.96875 1390.875 1317.027344 1394.195312 1313.707031 C 1397.519531 1310.382812 1401.464844 1307.75 1405.808594 1305.953125 C 1410.148438 1304.160156 1414.804688 1303.234375 1419.503906 1303.238281 L 1533.429688 1303.238281 C 1542.085938 1304.367188 1550.03125 1308.625 1555.761719 1315.21875 C 1561.488281 1321.804688 1564.597656 1330.265625 1564.5 1338.992188 Z M 1564.5 1338.992188 " fill-opacity="1" fill-rule="nonzero"/><path fill="#ffffff" d="M 1564.5 797.984375 L 1564.5 880.78125 C 1564.597656 885.546875 1563.746094 890.285156 1561.996094 894.71875 C 1560.246094 899.152344 1557.625 903.199219 1554.296875 906.613281 C 1550.964844 910.027344 1546.992188 912.746094 1542.601562 914.609375 C 1538.207031 916.476562 1533.492188 917.453125 1528.71875 917.476562 L 1419.5 917.476562 C 1414.800781 917.476562 1410.148438 916.554688 1405.808594 914.757812 C 1401.464844 912.960938 1397.519531 910.328125 1394.195312 907.003906 C 1390.875 903.6875 1388.238281 899.746094 1386.441406 895.40625 C 1384.640625 891.066406 1383.71875 886.417969 1383.722656 881.722656 L 1383.722656 797.984375 C 1383.71875 793.289062 1384.640625 788.636719 1386.441406 784.296875 C 1388.238281 779.957031 1390.875 776.019531 1394.195312 772.699219 C 1397.519531 769.375 1401.464844 766.742188 1405.808594 764.945312 C 1410.148438 763.148438 1414.800781 762.226562 1419.5 762.230469 L 1533.425781 762.230469 C 1542.085938 763.355469 1550.03125 767.617188 1555.761719 774.210938 C 1561.484375 780.796875 1564.59375 789.257812 1564.5 797.984375 Z M 1564.5 797.984375 " fill-opacity="1" fill-rule="nonzero"/><path fill="#1f3f77" d="M 1625.640625 1447.65625 C 1611.429688 1470.597656 1597.21875 1492.449219 1581.910156 1513.207031 C 1573.171875 1525.21875 1564.421875 1537.238281 1554.578125 1549.25 L 161.78125 1549.25 L 138.820312 1516.476562 C 121.890625 1493.28125 106.199219 1469.214844 91.808594 1444.375 C 86.34375 1435.632812 81.972656 1426.890625 76.507812 1418.160156 L 1588.464844 1418.160156 C 1592.261719 1418.003906 1596.050781 1418.601562 1599.617188 1419.914062 C 1603.183594 1421.226562 1606.449219 1423.226562 1609.238281 1425.804688 C 1613.601562 1427.765625 1617.394531 1430.792969 1620.261719 1434.613281 C 1623.128906 1438.433594 1624.980469 1442.921875 1625.640625 1447.65625 Z M 1625.640625 1447.65625 " fill-opacity="1" fill-rule="nonzero"/><path fill="#1f3f77" d="M 1652.152344 692.011719 L 1652.152344 750.34375 C 1652.121094 755.234375 1651.117188 760.066406 1649.203125 764.566406 C 1647.285156 769.0625 1644.492188 773.140625 1640.988281 776.550781 C 1637.488281 779.964844 1633.339844 782.648438 1628.792969 784.449219 C 1624.242188 786.25 1619.378906 787.128906 1614.488281 787.039062 L 63.75 787.039062 C 54.011719 787.03125 44.679688 783.15625 37.792969 776.277344 C 30.910156 769.402344 27.039062 760.074219 27.027344 750.34375 L 27.027344 692.011719 C 27.039062 682.28125 30.910156 672.953125 37.796875 666.078125 C 44.679688 659.199219 54.011719 655.328125 63.75 655.316406 L 1614.488281 655.316406 C 1619.378906 655.226562 1624.242188 656.105469 1628.792969 657.90625 C 1633.339844 659.707031 1637.484375 662.390625 1640.988281 665.804688 C 1644.492188 669.214844 1647.28125 673.292969 1649.199219 677.789062 C 1651.117188 682.289062 1652.121094 687.121094 1652.152344 692.011719 Z M 1652.152344 692.011719 " fill-opacity="1" fill-rule="nonzero"/><g clip-path="url(#e590b0eda3)"><path fill="#1f3f77" d="M 1711.835938 414.320312 C 1700.457031 436.980469 1681.753906 454.417969 1659.21875 463.375 C 1636.691406 472.335938 1611.882812 472.199219 1589.4375 462.996094 L 1552.71875 448.832031 L 871.972656 187.765625 L 145.085938 456.800781 L 128.140625 462.996094 C 117.316406 467.46875 105.84375 469.863281 94.242188 470.070312 C 76.121094 470.535156 58.253906 465.457031 42.742188 455.417969 C 27.230469 445.386719 14.71875 430.824219 6.679688 413.4375 C 2.261719 402.242188 0.144531 390.167969 0.464844 378.027344 C 0.785156 365.882812 3.535156 353.953125 8.535156 343.050781 C 13.53125 332.140625 20.660156 322.507812 29.4375 314.800781 C 38.214844 307.097656 48.433594 301.5 59.40625 298.386719 L 145.085938 266.523438 L 615.863281 92.1875 L 838.078125 9.882812 C 860.703125 1.914062 885.121094 1.914062 907.746094 9.882812 L 1121.484375 92.1875 L 1552.714844 257.675781 L 1660.050781 299.269531 C 1670.929688 302.519531 1681.03125 308.214844 1689.6875 315.976562 C 1698.347656 323.734375 1705.359375 333.375 1710.257812 344.261719 C 1715.160156 355.148438 1717.832031 367.027344 1718.109375 379.109375 C 1718.378906 391.191406 1716.242188 403.199219 1711.835938 414.320312 Z M 1711.835938 414.320312 " fill-opacity="1" fill-rule="nonzero"/></g><path fill="#1f3f77" d="M 497.078125 393.734375 L 578.113281 393.734375 C 622.964844 393.734375 639.996094 417.105469 639.996094 441.191406 C 640.445312 449.480469 638.441406 457.710938 634.226562 464.859375 C 630.015625 472.011719 623.789062 477.761719 616.320312 481.390625 C 624.941406 484.566406 632.359375 490.335938 637.550781 497.90625 C 642.738281 505.484375 645.445312 514.484375 645.289062 523.660156 C 645.074219 531.65625 643.191406 539.519531 639.765625 546.75 C 636.332031 553.976562 631.429688 560.414062 625.371094 565.640625 C 619.3125 570.867188 612.230469 574.769531 604.570312 577.105469 C 596.914062 579.441406 588.855469 580.152344 580.90625 579.199219 L 497.078125 579.199219 Z M 573.496094 466.917969 C 592.550781 466.917969 600.445312 458.359375 600.445312 445.328125 C 600.445312 431.722656 590.144531 424.75 574.648438 424.75 L 536.441406 424.75 L 536.441406 466.917969 Z M 536.441406 548.230469 L 572.628906 548.230469 C 594.28125 548.230469 604.195312 539.191406 604.195312 522.363281 C 604.195312 507.40625 594.476562 497.886719 572.433594 497.886719 L 536.4375 497.886719 Z M 536.441406 548.230469 " fill-opacity="1" fill-rule="nonzero"/><path fill="#1f3f77" d="M 715.050781 536.351562 L 700.613281 579.199219 L 661.160156 579.199219 L 724.195312 393.734375 L 774.527344 393.734375 L 840.261719 579.199219 L 798.109375 579.199219 L 782.898438 536.351562 Z M 774.238281 503.511719 C 761.050781 464.371094 752.675781 439.367188 748.15625 422.683594 L 747.867188 422.683594 C 743.34375 440.953125 734.109375 470.042969 723.523438 503.511719 Z M 774.238281 503.511719 " fill-opacity="1" fill-rule="nonzero"/><path fill="#1f3f77" d="M 864.613281 579.199219 L 864.613281 393.734375 L 914.371094 393.734375 C 937.46875 435.375 980.390625 510.480469 988.863281 530.683594 L 989.34375 530.683594 C 987.324219 511.355469 987.324219 479.136719 987.324219 448.695312 L 987.324219 393.734375 L 1023.699219 393.734375 L 1023.699219 579.199219 L 976.542969 579.199219 C 956.625 542.9375 909.078125 456.675781 899.9375 435.277344 L 899.453125 435.277344 C 900.804688 451.484375 901.191406 489.566406 901.191406 522.792969 L 901.191406 579.199219 Z M 864.613281 579.199219 " fill-opacity="1" fill-rule="nonzero"/><path fill="#1f3f77" d="M 1068.648438 393.734375 L 1108.304688 393.734375 L 1108.304688 476.488281 C 1120.527344 462.207031 1158.738281 420.421875 1182.121094 393.734375 L 1230.238281 393.734375 L 1155.652344 470.8125 L 1232.9375 579.199219 L 1184.816406 579.199219 L 1127.835938 496.828125 L 1108.304688 515.53125 L 1108.304688 579.199219 L 1068.648438 579.199219 Z M 1068.648438 393.734375 " fill-opacity="1" fill-rule="nonzero"/><path fill="#1f3f77" d="M 485.007812 393.734375 L 566.042969 393.734375 C 610.890625 393.734375 627.925781 417.105469 627.925781 441.191406 C 628.375 449.480469 626.367188 457.710938 622.15625 464.859375 C 617.945312 472.011719 611.714844 477.761719 604.25 481.390625 C 612.867188 484.566406 620.289062 490.335938 625.480469 497.90625 C 630.671875 505.484375 633.375 514.480469 633.21875 523.660156 C 633.007812 531.65625 631.125 539.519531 627.695312 546.75 C 624.261719 553.976562 619.363281 560.414062 613.300781 565.640625 C 607.242188 570.867188 600.160156 574.769531 592.5 577.105469 C 584.84375 579.441406 576.785156 580.152344 568.835938 579.199219 L 485.007812 579.199219 Z M 561.425781 466.917969 C 580.476562 466.917969 588.371094 458.359375 588.371094 445.328125 C 588.371094 431.722656 578.074219 424.75 562.582031 424.75 L 524.371094 424.75 L 524.371094 466.917969 Z M 524.371094 548.230469 L 560.558594 548.230469 C 582.214844 548.230469 592.121094 539.191406 592.121094 522.363281 C 592.121094 507.40625 582.402344 497.886719 560.367188 497.886719 L 524.367188 497.886719 Z M 524.371094 548.230469 " fill-opacity="1" fill-rule="nonzero"/><path fill="#1f3f77" d="M 702.988281 536.351562 L 688.554688 579.199219 L 649.097656 579.199219 L 712.132812 393.734375 L 762.46875 393.734375 L 828.199219 579.199219 L 786.046875 579.199219 L 770.839844 536.351562 Z M 762.179688 503.511719 C 748.996094 464.371094 740.621094 439.367188 736.09375 422.683594 L 735.808594 422.683594 C 731.28125 440.953125 722.046875 470.042969 711.460938 503.511719 Z M 762.179688 503.511719 " fill-opacity="1" fill-rule="nonzero"/><path fill="#1f3f77" d="M 852.542969 579.199219 L 852.542969 393.734375 L 902.300781 393.734375 C 925.398438 435.375 968.324219 510.480469 976.792969 530.683594 L 977.269531 530.683594 C 975.25 511.355469 975.25 479.136719 975.25 448.695312 L 975.25 393.734375 L 1011.628906 393.734375 L 1011.628906 579.199219 L 964.46875 579.199219 C 944.554688 542.9375 897.011719 456.675781 887.863281 435.277344 L 887.386719 435.277344 C 888.730469 451.484375 889.121094 489.566406 889.121094 522.792969 L 889.121094 579.199219 Z M 852.542969 579.199219 " fill-opacity="1" fill-rule="nonzero"/><path fill="#1f3f77" d="M 1056.585938 393.734375 L 1096.242188 393.734375 L 1096.242188 476.488281 C 1108.464844 462.207031 1146.675781 420.421875 1170.054688 393.734375 L 1218.175781 393.734375 L 1143.589844 470.8125 L 1220.871094 579.199219 L 1172.746094 579.199219 L 1115.773438 496.828125 L 1096.242188 515.53125 L 1096.242188 579.199219 L 1056.585938 579.199219 Z M 1056.585938 393.734375 " fill-opacity="1" fill-rule="nonzero"/><path fill="#1f3f77" d="M 1039.09375 1002.164062 L 1039.09375 1022.867188 C 1039.042969 1024.417969 1038.691406 1025.9375 1038.046875 1027.347656 C 1037.398438 1028.753906 1036.484375 1030.023438 1035.34375 1031.074219 C 1034.207031 1032.125 1032.867188 1032.9375 1031.414062 1033.46875 C 1029.953125 1034 1028.40625 1034.234375 1026.859375 1034.15625 L 691.660156 1034.15625 C 690.109375 1034.234375 688.5625 1034 687.105469 1033.46875 C 685.652344 1032.9375 684.3125 1032.125 683.171875 1031.074219 C 682.035156 1030.023438 681.113281 1028.753906 680.472656 1027.347656 C 679.828125 1025.9375 679.46875 1024.417969 679.421875 1022.867188 L 679.421875 1002.164062 C 679.480469 998.941406 680.785156 995.863281 683.070312 993.578125 C 685.351562 991.296875 688.429688 989.988281 691.660156 989.929688 L 1026.859375 989.929688 C 1030.089844 989.988281 1033.164062 991.296875 1035.449219 993.578125 C 1037.730469 995.863281 1039.039062 998.941406 1039.09375 1002.164062 Z M 1039.09375 1002.164062 " fill-opacity="1" fill-rule="nonzero"/><path fill="#1f3f77" d="M 869.480469 1024.570312 L 846.46875 1024.570312 L 846.46875 1436.378906 L 869.480469 1436.378906 Z M 869.480469 1024.570312 " fill-opacity="1" fill-rule="nonzero"/></svg>