<svg xmlns="http://www.w3.org/2000/svg" xmlns:xlink="http://www.w3.org/1999/xlink" width="600" zoomAndPan="magnify" viewBox="0 0 450 599.999999" height="800" preserveAspectRatio="xMidYMid meet" version="1.0"><defs><g/><clipPath id="ab2c348c6b"><path d="M 77.109375 0.0078125 L 368 0.0078125 L 368 599.964844 L 77.109375 599.964844 Z M 77.109375 0.0078125 " clip-rule="nonzero"/></clipPath><clipPath id="4a0fe23cb5"><path d="M 349.378906 337 L 395.613281 337 L 395.613281 383 L 349.378906 383 Z M 349.378906 337 " clip-rule="nonzero"/></clipPath><clipPath id="59679fd157"><path d="M 54.375 337 L 101 337 L 101 383 L 54.375 383 Z M 54.375 337 " clip-rule="nonzero"/></clipPath></defs><g clip-path="url(#ab2c348c6b)"><path fill="#1bb5c9" d="M 367.859375 136.203125 C 359.453125 186.675781 355.605469 358.199219 362.523438 419.554688 C 369.019531 477.167969 374.546875 522.007812 346.964844 552.832031 C 307.8125 596.566406 243.847656 599.964844 225.179688 599.964844 C 224.488281 599.964844 223.636719 599.960938 222.652344 599.9375 C 221.667969 599.960938 220.816406 599.964844 220.121094 599.964844 C 201.457031 599.964844 137.492188 596.566406 98.34375 552.832031 C 70.757812 522.007812 76.28125 477.167969 82.78125 419.554688 C 89.703125 358.199219 85.851562 186.675781 77.445312 136.203125 C 77.414062 136.027344 77.472656 133.632812 77.53125 130.265625 C 77.9375 108.101562 84.058594 86.332031 95.800781 67.4375 C 118.152344 31.476562 156.601562 -0.382812 222.652344 0.0117188 C 288.699219 -0.382812 327.148438 31.476562 349.503906 67.4375 C 361.25 86.332031 367.367188 108.101562 367.769531 130.265625 C 367.832031 133.632812 367.890625 136.027344 367.859375 136.203125 " fill-opacity="1" fill-rule="nonzero"/></g><path fill="#29bdd8" d="M 357.488281 152.28125 C 349.683594 199.742188 346.105469 361.035156 352.535156 418.730469 C 358.566406 472.90625 363.699219 515.074219 338.085938 544.058594 C 301.730469 585.1875 242.332031 588.382812 225 588.382812 C 224.359375 588.382812 223.566406 588.371094 222.652344 588.355469 C 221.738281 588.371094 220.945312 588.382812 220.304688 588.382812 C 202.96875 588.382812 143.570312 585.1875 107.21875 544.058594 C 81.605469 515.074219 86.734375 472.90625 92.769531 418.730469 C 99.195312 361.035156 95.621094 199.742188 87.816406 152.28125 C 87.785156 152.117188 87.839844 149.867188 87.898438 146.699219 C 88.273438 125.859375 93.953125 105.382812 104.859375 87.621094 C 125.617188 53.800781 161.320312 23.84375 222.652344 24.210938 C 283.984375 23.84375 319.6875 53.800781 340.445312 87.621094 C 351.347656 105.382812 357.03125 125.859375 357.40625 146.699219 C 357.464844 149.867188 357.515625 152.117188 357.488281 152.28125 " fill-opacity="1" fill-rule="nonzero"/><path fill="#1bb5c9" d="M 236.953125 588.105469 C 232.101562 588.320312 228.039062 588.382812 225 588.382812 C 222.527344 588.382812 218.402344 588.320312 213.039062 588.054688 L 213.039062 406.007812 C 220.167969 406.261719 228.480469 406.867188 236.953125 407.953125 L 236.953125 588.105469 " fill-opacity="1" fill-rule="nonzero"/><path fill="#46cde6" d="M 277.023438 580.894531 C 262.277344 585.210938 248.476562 587.082031 238.160156 587.863281 C 238.109375 587.863281 238.054688 587.863281 238.003906 587.863281 L 238.003906 408.660156 C 249.640625 408.910156 263.199219 409.496094 277.023438 410.546875 L 277.023438 580.894531 " fill-opacity="1" fill-rule="nonzero"/><path fill="#46cde6" d="M 172.96875 580.347656 L 172.96875 410.625 C 186.964844 409.542969 200.589844 408.933594 211.984375 408.671875 L 211.984375 587.785156 C 202.027344 586.945312 188.058594 584.960938 172.96875 580.347656 " fill-opacity="1" fill-rule="nonzero"/><path fill="#373d3d" d="M 344.394531 375.296875 C 344.394531 404.035156 290.9375 427.332031 225 427.332031 C 159.050781 427.332031 105.59375 404.035156 105.59375 375.296875 C 105.59375 375.296875 103.367188 204.761719 127.902344 172.074219 C 131.726562 166.976562 136.378906 162.746094 141.5625 159.234375 C 139.117188 172.359375 136.664062 191.382812 135.015625 218.75 C 132.785156 255.503906 133.09375 289.386719 133.148438 293.589844 C 137.191406 300.179688 169.023438 315.667969 225 315.667969 C 280.976562 315.667969 312.800781 300.179688 316.84375 293.589844 C 316.894531 289.363281 317.207031 255.28125 314.980469 218.511719 C 313.320312 191.273438 310.863281 172.320312 308.425781 159.234375 C 313.609375 162.746094 318.265625 166.976562 322.089844 172.074219 C 346.625 204.761719 344.394531 375.296875 344.394531 375.296875 " fill-opacity="1" fill-rule="nonzero"/><path fill="#576061" d="M 217.5625 427.226562 C 210.445312 427.035156 203.496094 426.570312 196.777344 425.859375 C 221.75 404.242188 225.492188 357.3125 228.121094 315.640625 C 270.855469 315.195312 299 305.710938 310.863281 298.558594 L 344.4375 369.847656 C 344.421875 373.351562 344.394531 375.296875 344.394531 375.296875 C 344.394531 404.035156 290.9375 427.332031 225 427.332031 C 222.625 427.332031 220.269531 427.300781 217.925781 427.238281 C 217.804688 427.234375 217.683594 427.230469 217.5625 427.226562 " fill-opacity="1" fill-rule="nonzero"/><path fill="#29bdd8" d="M 316.335938 295.535156 L 311.257812 297.679688 L 345.402344 378.671875 L 350.484375 376.53125 L 316.335938 295.535156 " fill-opacity="1" fill-rule="nonzero"/><path fill="#29bdd8" d="M 133.664062 295.535156 L 99.507812 376.53125 L 104.589844 378.671875 L 138.742188 297.679688 L 133.664062 295.535156 " fill-opacity="1" fill-rule="nonzero"/><path fill="#c9effe" d="M 112.335938 543.421875 C 105.945312 536.226562 101.441406 528.242188 98.359375 519.484375 C 109.015625 518.769531 121.964844 524.097656 132.417969 534.550781 C 143.378906 545.511719 148.703125 559.21875 147.335938 570.148438 C 134.867188 563.742188 122.699219 555.09375 112.335938 543.421875 " fill-opacity="1" fill-rule="nonzero"/><path fill="#c9effe" d="M 351.632812 519.988281 C 348.605469 528.816406 344.136719 536.847656 337.765625 544.058594 C 326.53125 556.769531 313.09375 565.851562 299.378906 572.339844 C 296.9375 561.101562 302.210938 546.261719 313.921875 534.550781 C 325.605469 522.867188 340.402344 517.589844 351.632812 519.988281 " fill-opacity="1" fill-rule="nonzero"/><path fill="#313a52" d="M 158.804688 63.367188 C 155.949219 64.375 152.886719 63.488281 151 61.128906 L 137.558594 44.328125 C 135.941406 42.308594 135.566406 39.582031 136.574219 37.203125 C 137.585938 34.820312 139.816406 33.191406 142.390625 32.953125 L 155.839844 31.71875 C 156.050781 31.695312 156.261719 31.691406 156.476562 31.691406 C 158.21875 31.691406 159.914062 32.339844 161.210938 33.519531 C 162.664062 34.851562 163.496094 36.742188 163.496094 38.707031 L 163.496094 56.746094 C 163.496094 59.769531 161.65625 62.367188 158.804688 63.367188 " fill-opacity="1" fill-rule="nonzero"/><path fill="#313a52" d="M 312.4375 44.328125 L 298.992188 61.132812 C 297.101562 63.488281 294.035156 64.367188 291.1875 63.367188 C 288.335938 62.367188 286.496094 59.769531 286.496094 56.746094 L 286.496094 38.707031 C 286.496094 36.742188 287.328125 34.851562 288.78125 33.519531 C 290.078125 32.339844 291.777344 31.691406 293.515625 31.691406 C 293.730469 31.691406 293.945312 31.695312 294.15625 31.71875 L 307.601562 32.953125 C 310.175781 33.191406 312.402344 34.820312 313.414062 37.199219 C 314.425781 39.578125 314.050781 42.308594 312.4375 44.328125 " fill-opacity="1" fill-rule="nonzero"/><path fill="#3a4458" d="M 342 1.238281 L 107.992188 1.238281 L 107.992188 39.820312 L 342 39.820312 L 342 1.238281 " fill-opacity="1" fill-rule="nonzero"/><path fill="#3a4458" d="M 172.972656 132.019531 L 277.019531 132.019531 L 277.019531 125.578125 L 172.972656 125.578125 L 172.972656 132.019531 " fill-opacity="1" fill-rule="nonzero"/><path fill="#3a4458" d="M 172.972656 117.84375 L 277.019531 117.84375 L 277.019531 111.398438 L 172.972656 111.398438 L 172.972656 117.84375 " fill-opacity="1" fill-rule="nonzero"/><path fill="#3a4458" d="M 172.972656 103.667969 L 277.019531 103.667969 L 277.019531 97.21875 L 172.972656 97.21875 L 172.972656 103.667969 " fill-opacity="1" fill-rule="nonzero"/><path fill="#3a4458" d="M 172.972656 89.488281 L 277.019531 89.488281 L 277.019531 83.042969 L 172.972656 83.042969 L 172.972656 89.488281 " fill-opacity="1" fill-rule="nonzero"/><g clip-path="url(#4a0fe23cb5)"><path fill="#29bdd8" d="M 395.617188 337.105469 L 349.832031 337.105469 L 349.832031 382.890625 L 357.496094 382.890625 C 378.550781 382.890625 395.617188 365.824219 395.617188 344.769531 L 395.617188 337.105469 " fill-opacity="1" fill-rule="nonzero"/></g><g clip-path="url(#59679fd157)"><path fill="#29bdd8" d="M 54.375 337.105469 L 100.160156 337.105469 L 100.160156 382.890625 L 92.492188 382.890625 C 71.441406 382.890625 54.375 365.824219 54.375 344.769531 L 54.375 337.105469 " fill-opacity="1" fill-rule="nonzero"/></g><g fill="#ffffff" fill-opacity="1"><g transform="translate(221.676458, 540.582316)"><g><path d="M 3.3125 0.09375 C 2.820312 0.09375 2.378906 -0.0234375 1.984375 -0.265625 C 1.585938 -0.503906 1.269531 -0.878906 1.03125 -1.390625 C 0.800781 -1.910156 0.6875 -2.570312 0.6875 -3.375 C 0.6875 -4.175781 0.800781 -4.832031 1.03125 -5.34375 C 1.269531 -5.863281 1.585938 -6.242188 1.984375 -6.484375 C 2.378906 -6.722656 2.820312 -6.84375 3.3125 -6.84375 C 3.8125 -6.84375 4.257812 -6.722656 4.65625 -6.484375 C 5.050781 -6.242188 5.363281 -5.863281 5.59375 -5.34375 C 5.820312 -4.832031 5.9375 -4.175781 5.9375 -3.375 C 5.9375 -2.570312 5.820312 -1.910156 5.59375 -1.390625 C 5.363281 -0.878906 5.050781 -0.503906 4.65625 -0.265625 C 4.257812 -0.0234375 3.8125 0.09375 3.3125 0.09375 Z M 3.3125 -0.640625 C 3.90625 -0.640625 4.351562 -0.847656 4.65625 -1.265625 C 4.957031 -1.691406 5.109375 -2.394531 5.109375 -3.375 C 5.109375 -4.351562 4.957031 -5.050781 4.65625 -5.46875 C 4.351562 -5.894531 3.90625 -6.109375 3.3125 -6.109375 C 2.925781 -6.109375 2.597656 -6.019531 2.328125 -5.84375 C 2.066406 -5.664062 1.863281 -5.375 1.71875 -4.96875 C 1.582031 -4.5625 1.515625 -4.03125 1.515625 -3.375 C 1.515625 -2.707031 1.582031 -2.171875 1.71875 -1.765625 C 1.863281 -1.367188 2.066406 -1.082031 2.328125 -0.90625 C 2.597656 -0.726562 2.925781 -0.640625 3.3125 -0.640625 Z M 3.3125 -0.640625 "/></g></g></g></svg>