<svg xmlns="http://www.w3.org/2000/svg" xmlns:xlink="http://www.w3.org/1999/xlink" width="200" zoomAndPan="magnify" viewBox="0 0 150 44.999999" height="60" preserveAspectRatio="xMidYMid meet" version="1.0"><defs><clipPath id="d92af108c2"><path d="M 0 0 L 150 0 L 150 44.25 L 0 44.25 Z M 0 0 " clip-rule="nonzero"/></clipPath></defs><rect x="-15" width="180" fill="#ffffff" y="-4.5" height="53.999999" fill-opacity="1"/><rect x="-15" width="180" fill="#ffffff" y="-4.5" height="53.999999" fill-opacity="1"/><path fill="#ffffff" d="M 149.769531 43.949219 L 0.359375 43.949219 L 0.359375 0.324219 L 149.769531 0.324219 Z M 149.769531 43.949219 " fill-opacity="1" fill-rule="nonzero"/><g clip-path="url(#d92af108c2)"><path fill="#161616" d="M 50.414062 14.527344 L 50.414062 15.882812 C 50.414062 16.191406 50.160156 16.449219 49.851562 16.449219 L 43.105469 16.449219 L 43.105469 20.824219 L 49.296875 20.824219 C 49.605469 20.824219 49.859375 21.082031 49.859375 21.390625 L 49.859375 22.71875 C 49.859375 23.027344 49.605469 23.285156 49.296875 23.285156 L 43.105469 23.285156 L 43.105469 29.757812 C 43.105469 30.066406 42.847656 30.324219 42.542969 30.324219 L 40.570312 30.324219 C 40.261719 30.324219 40.003906 30.066406 40.003906 29.757812 L 40.003906 14.527344 C 40.003906 14.21875 40.261719 13.960938 40.570312 13.960938 L 49.839844 13.960938 C 50.160156 13.960938 50.414062 14.21875 50.414062 14.527344 Z M 55.449219 13.960938 L 53.453125 13.960938 C 53.152344 13.960938 52.90625 14.210938 52.90625 14.511719 L 52.90625 29.757812 C 52.90625 30.058594 53.152344 30.304688 53.453125 30.304688 L 55.449219 30.304688 C 55.75 30.304688 55.996094 30.058594 55.996094 29.757812 L 55.996094 14.511719 C 55.996094 14.210938 55.75 13.960938 55.449219 13.960938 Z M 72.710938 13.960938 L 71.152344 13.960938 C 70.765625 13.960938 70.449219 14.28125 70.449219 14.671875 L 70.449219 20.871094 C 70.449219 22.558594 70.472656 24.070312 70.570312 25.617188 C 69.875 24.449219 69.082031 23.257812 68.167969 21.992188 L 62.546875 14.253906 C 62.417969 14.070312 62.203125 13.960938 61.976562 13.960938 L 59.933594 13.960938 C 59.546875 13.960938 59.230469 14.28125 59.230469 14.671875 L 59.230469 29.597656 C 59.230469 29.988281 59.546875 30.304688 59.933594 30.304688 L 61.484375 30.304688 C 61.871094 30.304688 62.1875 29.988281 62.1875 29.597656 L 62.1875 23.265625 C 62.1875 21.328125 62.160156 19.800781 62.089844 18.339844 C 62.777344 19.488281 63.632812 20.761719 64.695312 22.25 L 70.269531 30.011719 C 70.402344 30.199219 70.613281 30.304688 70.84375 30.304688 L 72.703125 30.304688 C 73.089844 30.304688 73.40625 29.988281 73.40625 29.597656 L 73.40625 14.671875 C 73.414062 14.28125 73.097656 13.960938 72.710938 13.960938 Z M 79.210938 13.960938 L 77.15625 13.960938 C 76.867188 13.960938 76.636719 14.203125 76.636719 14.484375 L 76.636719 29.785156 C 76.636719 30.074219 76.875 30.304688 77.15625 30.304688 L 79.210938 30.304688 C 79.5 30.304688 79.730469 30.066406 79.730469 29.785156 L 79.730469 14.484375 C 79.738281 14.203125 79.5 13.960938 79.210938 13.960938 Z M 88.835938 20.71875 C 86.351562 19.878906 85.558594 19.242188 85.558594 18.09375 C 85.558594 17.128906 86.472656 16.15625 88.527344 16.15625 C 89.96875 16.15625 91.070312 16.535156 91.738281 16.855469 C 91.953125 16.953125 92.199219 16.855469 92.277344 16.640625 L 92.910156 15.007812 C 92.980469 14.8125 92.902344 14.597656 92.71875 14.503906 C 92.109375 14.203125 90.769531 13.695312 88.597656 13.695312 C 84.96875 13.695312 82.433594 15.597656 82.433594 18.3125 C 82.433594 21.222656 85.277344 22.433594 87.417969 23.097656 C 90.003906 23.964844 90.507812 24.75 90.507812 25.8125 C 90.507812 27.199219 89.230469 28.066406 87.167969 28.066406 C 85.832031 28.066406 84.359375 27.707031 83.226562 27.105469 C 83.011719 26.988281 82.742188 27.09375 82.660156 27.324219 L 82.078125 29.003906 C 82.019531 29.183594 82.089844 29.386719 82.257812 29.484375 C 83.3125 30.101562 85.269531 30.527344 87.003906 30.527344 C 91.90625 30.527344 93.640625 27.898438 93.640625 25.652344 C 93.660156 22.734375 91.21875 21.523438 88.835938 20.71875 Z M 109.535156 13.960938 L 107.46875 13.960938 C 107.175781 13.960938 106.9375 14.203125 106.9375 14.492188 L 106.9375 20.472656 L 99.101562 20.472656 L 99.101562 14.492188 C 99.101562 14.203125 98.863281 13.960938 98.574219 13.960938 L 96.53125 13.960938 C 96.238281 13.960938 96.003906 14.203125 96.003906 14.492188 L 96.003906 29.785156 C 96.003906 30.074219 96.238281 30.3125 96.53125 30.3125 L 98.574219 30.3125 C 98.863281 30.3125 99.101562 30.074219 99.101562 29.785156 L 99.101562 23.019531 L 106.9375 23.019531 L 106.9375 29.785156 C 106.9375 30.074219 107.175781 30.3125 107.46875 30.3125 L 109.535156 30.3125 C 109.828125 30.3125 110.066406 30.074219 110.066406 29.785156 L 110.066406 14.492188 C 110.066406 14.203125 109.828125 13.960938 109.535156 13.960938 Z M 150 0.0703125 L 150 44.234375 L 149.699219 44.234375 L 0 44.179688 L 0 0.015625 Z M 144.972656 23.910156 L 144.972656 19.066406 L 149.402344 19.066406 L 149.402344 14.21875 L 144.972656 14.21875 L 144.972656 9.992188 L 140.191406 9.992188 L 140.191406 5.164062 L 144.964844 5.164062 L 144.964844 0.660156 L 140.15625 0.660156 L 140.15625 5.164062 L 135.382812 5.164062 L 135.382812 9.371094 L 140.15625 9.371094 L 140.15625 14.21875 L 135.347656 14.21875 L 135.347656 9.992188 L 130.574219 9.992188 L 130.574219 5.164062 L 135.347656 5.164062 L 135.347656 0.660156 L 130.539062 0.660156 L 130.539062 5.164062 L 125.730469 5.164062 L 125.730469 9.992188 L 120.90625 9.992188 L 120.90625 5.164062 L 125.730469 5.164062 L 125.730469 0.652344 L 120.90625 0.652344 L 120.90625 5.164062 L 116.078125 5.164062 L 116.078125 0.652344 L 111.253906 0.652344 L 111.253906 5.164062 L 116.078125 5.164062 L 116.078125 9.992188 L 111.253906 9.992188 L 111.253906 5.164062 L 106.429688 5.164062 L 106.429688 0.652344 L 101.601562 0.652344 L 101.601562 5.164062 L 106.429688 5.164062 L 106.429688 9.992188 L 101.601562 9.992188 L 101.601562 5.164062 L 96.777344 5.164062 L 96.777344 0.644531 L 91.953125 0.644531 L 91.953125 5.164062 L 87.125 5.164062 L 87.125 0.644531 L 82.300781 0.644531 L 82.300781 5.164062 L 87.125 5.164062 L 87.125 9.992188 L 82.300781 9.992188 L 82.300781 5.164062 L 77.472656 5.164062 L 77.472656 0.636719 L 72.648438 0.636719 L 72.648438 5.164062 L 67.824219 5.164062 L 67.824219 0.636719 L 62.996094 0.636719 L 62.996094 5.164062 L 67.824219 5.164062 L 67.824219 9.992188 L 62.996094 9.992188 L 62.996094 5.164062 L 58.171875 5.164062 L 58.171875 0.636719 L 53.347656 0.636719 L 53.347656 5.164062 L 58.171875 5.164062 L 58.171875 9.992188 L 53.347656 9.992188 L 53.347656 5.164062 L 48.519531 5.164062 L 48.519531 0.625 L 43.695312 0.625 L 43.695312 5.164062 L 38.871094 5.164062 L 38.871094 0.625 L 34.042969 0.625 L 34.042969 5.164062 L 29.21875 5.164062 L 29.21875 0.625 L 24.390625 0.625 L 24.390625 5.164062 L 29.21875 5.164062 L 29.21875 9.992188 L 24.390625 9.992188 L 24.390625 5.164062 L 19.566406 5.164062 L 19.566406 0.617188 L 14.742188 0.617188 L 14.742188 5.164062 L 9.914062 5.164062 L 9.914062 0.617188 L 5.109375 0.617188 L 5.109375 5.164062 L 0.589844 5.164062 L 0.589844 10.007812 L 5.109375 10.007812 L 5.109375 14.855469 L 0.589844 14.855469 L 0.589844 19.703125 L 5.109375 19.703125 L 5.109375 24.546875 L 0.589844 24.546875 L 0.589844 29.394531 L 5.109375 29.394531 L 5.109375 34.242188 L 0.589844 34.242188 L 0.589844 39.085938 L 4.992188 39.085938 L 4.992188 34.257812 L 9.800781 34.257812 L 9.800781 39.085938 L 5.027344 39.085938 L 5.027344 43.589844 L 9.835938 43.589844 L 9.835938 39.085938 L 14.609375 39.085938 L 14.609375 34.257812 L 19.417969 34.257812 L 19.417969 39.085938 L 14.644531 39.085938 L 14.644531 43.589844 L 19.453125 43.589844 L 19.453125 39.085938 L 24.261719 39.085938 L 24.261719 43.597656 L 29.085938 43.597656 L 29.085938 39.085938 L 33.910156 39.085938 L 33.910156 43.597656 L 38.738281 43.597656 L 38.738281 39.085938 L 43.5625 39.085938 L 43.5625 43.597656 L 48.386719 43.597656 L 48.386719 39.085938 L 43.5625 39.085938 L 43.5625 34.257812 L 48.386719 34.257812 L 48.386719 39.085938 L 53.214844 39.085938 L 53.214844 43.605469 L 58.039062 43.605469 L 58.039062 39.085938 L 62.867188 39.085938 L 62.867188 43.605469 L 67.691406 43.605469 L 67.691406 39.085938 L 62.867188 39.085938 L 62.867188 34.257812 L 67.691406 34.257812 L 67.691406 39.085938 L 72.515625 39.085938 L 72.515625 43.613281 L 77.34375 43.613281 L 77.34375 39.085938 L 82.167969 39.085938 L 82.167969 43.613281 L 86.992188 43.613281 L 86.992188 39.085938 L 82.167969 39.085938 L 82.167969 34.257812 L 87.003906 34.257812 L 87.003906 39.085938 L 91.828125 39.085938 L 91.828125 43.613281 L 96.652344 43.613281 L 96.652344 39.085938 L 91.828125 39.085938 L 91.828125 34.257812 L 96.652344 34.257812 L 96.652344 39.085938 L 101.480469 39.085938 L 101.480469 43.625 L 106.304688 43.625 L 106.304688 39.085938 L 111.128906 39.085938 L 111.128906 43.625 L 115.957031 43.625 L 115.957031 39.085938 L 111.128906 39.085938 L 111.128906 34.257812 L 115.957031 34.257812 L 115.957031 39.085938 L 120.78125 39.085938 L 120.78125 43.625 L 125.609375 43.625 L 125.609375 39.085938 L 130.433594 39.085938 L 130.433594 43.632812 L 135.257812 43.632812 L 135.257812 39.085938 L 140.085938 39.085938 L 140.085938 43.632812 L 144.894531 43.632812 L 144.894531 39.085938 L 149.402344 39.085938 L 149.402344 33.605469 L 144.972656 33.605469 L 144.972656 28.757812 L 149.402344 28.757812 L 149.402344 23.910156 Z M 149.410156 9.371094 L 149.410156 5.164062 L 145.007812 5.164062 L 145.007812 9.371094 Z M 9.914062 5.164062 L 5.109375 5.164062 L 5.109375 10.007812 L 9.914062 10.007812 Z M 9.914062 24.546875 L 5.109375 24.546875 L 5.109375 29.394531 L 9.914062 29.394531 Z M 9.914062 14.855469 L 5.109375 14.855469 L 5.109375 19.703125 L 9.914062 19.703125 Z M 38.871094 9.992188 L 38.871094 5.164062 L 34.042969 5.164062 L 34.042969 9.992188 Z M 19.566406 9.992188 L 19.566406 5.164062 L 14.742188 5.164062 L 14.742188 9.992188 Z M 48.519531 9.992188 L 48.519531 5.164062 L 43.695312 5.164062 L 43.695312 9.992188 Z M 77.472656 9.992188 L 77.472656 5.164062 L 72.648438 5.164062 L 72.648438 9.992188 Z M 96.785156 9.992188 L 96.785156 5.164062 L 91.960938 5.164062 L 91.960938 9.992188 Z M 9.925781 14.855469 L 14.730469 14.855469 L 14.730469 10.007812 L 9.925781 10.007812 Z M 9.925781 24.546875 L 14.730469 24.546875 L 14.730469 19.703125 L 9.925781 19.703125 Z M 9.925781 34.242188 L 14.730469 34.242188 L 14.730469 29.394531 L 9.925781 29.394531 Z M 144.964844 28.757812 L 144.964844 23.910156 L 140.15625 23.910156 L 140.15625 28.757812 Z M 135.347656 19.066406 L 135.347656 23.910156 L 140.15625 23.910156 L 140.15625 19.066406 L 144.964844 19.066406 L 144.964844 14.21875 L 140.15625 14.21875 L 140.15625 19.066406 Z M 135.347656 33.605469 L 140.15625 33.605469 L 140.15625 28.757812 L 135.347656 28.757812 Z M 140.085938 34.242188 L 140.085938 39.085938 L 144.890625 39.085938 L 144.890625 34.242188 Z M 130.433594 34.257812 L 130.433594 39.085938 L 135.257812 39.085938 L 135.257812 34.257812 Z M 120.78125 34.257812 L 120.78125 39.085938 L 125.609375 39.085938 L 125.609375 34.257812 Z M 101.480469 34.257812 L 101.480469 39.085938 L 106.304688 39.085938 L 106.304688 34.257812 Z M 72.515625 34.257812 L 72.515625 39.085938 L 77.34375 39.085938 L 77.34375 34.257812 Z M 53.214844 34.257812 L 53.214844 39.085938 L 58.039062 39.085938 L 58.039062 34.257812 Z M 33.910156 34.257812 L 33.910156 39.085938 L 38.738281 39.085938 L 38.738281 34.257812 Z M 24.261719 34.257812 L 24.261719 39.085938 L 29.085938 39.085938 L 29.085938 34.257812 Z M 24.261719 34.257812 " fill-opacity="1" fill-rule="nonzero"/></g></svg>