<svg width="40" height="61" viewBox="0 0 40 61" fill="none" xmlns="http://www.w3.org/2000/svg">
<path d="M38.7089 31.882C34.783 19.9433 20.8048 19.2996 24.1806 1.94762C24.4306 0.660126 23.2554 -0.334758 22.3051 0.338253C13.2281 6.60018 6.70155 19.1533 12.1778 35.5982C12.6279 36.9442 11.2776 38.2024 10.3024 37.3246C5.77633 33.3158 5.30122 27.5513 5.70132 23.4254C5.85135 21.9039 4.15096 21.1723 3.42579 22.4306C1.7254 25.4737 0 30.3896 0 37.7928C0.950219 54.1791 12.7779 59.2121 17.0289 59.8558C23.1053 60.7629 29.6819 59.4461 34.4079 54.3839C39.6091 48.7365 41.5096 39.724 38.7089 31.882ZM15.5036 46.6004C19.1044 45.5763 20.9548 42.5331 21.455 39.841C22.2801 35.6567 19.0544 31.5601 21.2299 24.947C22.0551 30.4189 29.4068 33.8425 29.4068 39.8118C29.6068 47.2149 22.7552 53.5646 15.5036 46.6004Z" fill="#FF7324"/>
</svg>
