<svg xmlns="http://www.w3.org/2000/svg" xmlns:xlink="http://www.w3.org/1999/xlink" width="60" zoomAndPan="magnify" viewBox="0 0 45 44.999999" height="60" preserveAspectRatio="xMidYMid meet" version="1.0"><defs><clipPath id="912f42648d"><path d="M 0 0 L 45 0 L 45 44.25 L 0 44.25 Z M 0 0 " clip-rule="nonzero"/></clipPath></defs><g clip-path="url(#912f42648d)"><path fill="#000000" d="M 44.613281 14.847656 L 36.191406 40.964844 C 35.800781 42.183594 34.933594 43.210938 33.808594 43.785156 C 33.152344 44.121094 32.429688 44.296875 31.703125 44.296875 C 31.238281 44.296875 30.773438 44.226562 30.332031 44.085938 L 13.285156 38.660156 L 5.609375 38.660156 C 3.039062 38.660156 0.945312 36.511719 0.945312 33.875 L 0.945312 5.757812 C 0.945312 3.117188 3.039062 0.972656 5.609375 0.972656 L 26.710938 0.972656 C 29.25 0.972656 30.101562 3.5625 30.15625 6.160156 L 41.660156 8.929688 C 42.890625 9.320312 43.871094 10.191406 44.417969 11.375 C 44.914062 12.460938 44.984375 13.695312 44.613281 14.847656 Z M 44.613281 14.847656 " fill-opacity="0.35" fill-rule="nonzero"/></g><path fill="#f2f2f2" d="M 43.660156 13.898438 L 35.238281 40.019531 C 34.847656 41.238281 33.980469 42.265625 32.855469 42.839844 C 32.199219 43.175781 31.476562 43.351562 30.75 43.351562 C 30.28125 43.351562 29.820312 43.277344 29.378906 43.136719 L 12.332031 37.710938 L 4.652344 37.710938 C 2.082031 37.710938 -0.0117188 35.566406 -0.0117188 32.925781 L -0.0117188 4.808594 C -0.0117188 2.167969 2.082031 0.0234375 4.652344 0.0234375 L 25.757812 0.0234375 C 28.292969 0.0234375 30.363281 2.113281 30.417969 4.710938 L 40.707031 7.984375 C 41.9375 8.371094 42.917969 9.242188 43.464844 10.425781 C 43.960938 11.511719 44.03125 12.75 43.660156 13.898438 Z M 43.660156 13.898438 " fill-opacity="1" fill-rule="nonzero"/><path fill="#70bfff" d="M 10.722656 33.964844 L 30.324219 40.203125 C 31.125 40.460938 32.003906 39.957031 32.285156 39.082031 L 40.707031 12.964844 C 40.988281 12.089844 40.566406 11.171875 39.765625 10.917969 L 20.164062 4.679688 C 19.363281 4.425781 18.484375 4.925781 18.203125 5.800781 L 9.78125 31.921875 C 9.496094 32.796875 9.917969 33.710938 10.722656 33.964844 Z M 10.722656 33.964844 " fill-opacity="1" fill-rule="nonzero"/><path fill="#d9eeff" d="M 4.621094 33.980469 L 25.285156 33.980469 C 26.128906 33.980469 26.816406 33.230469 26.816406 32.308594 L 26.816406 4.773438 C 26.816406 3.851562 26.128906 3.105469 25.285156 3.105469 L 4.621094 3.105469 C 3.773438 3.105469 3.089844 3.851562 3.089844 4.773438 L 3.089844 32.308594 C 3.089844 33.230469 3.773438 33.980469 4.621094 33.980469 Z M 4.621094 33.980469 " fill-opacity="1" fill-rule="nonzero"/><path fill="#40396e" d="M 13.699219 22.089844 C 13.164062 22.089844 12.898438 21.832031 12.898438 21.316406 C 12.898438 20.808594 13.164062 20.554688 13.699219 20.554688 L 14.925781 20.554688 L 14.925781 15.652344 L 14.039062 16.183594 C 13.804688 16.320312 13.59375 16.355469 13.40625 16.292969 C 13.222656 16.226562 13.078125 16.105469 12.980469 15.929688 C 12.882812 15.75 12.855469 15.558594 12.898438 15.355469 C 12.9375 15.148438 13.070312 14.972656 13.296875 14.828125 L 14.988281 13.816406 C 15.15625 13.710938 15.332031 13.625 15.503906 13.5625 C 15.679688 13.496094 15.851562 13.464844 16.023438 13.464844 C 16.265625 13.464844 16.457031 13.53125 16.597656 13.660156 C 16.742188 13.789062 16.8125 13.976562 16.8125 14.226562 L 16.8125 20.554688 L 17.917969 20.554688 C 18.445312 20.554688 18.707031 20.808594 18.707031 21.316406 C 18.707031 21.832031 18.445312 22.089844 17.917969 22.089844 Z M 13.699219 22.089844 " fill-opacity="1" fill-rule="nonzero"/><path fill="#40396e" d="M 30.75 40.980469 C 30.53125 40.980469 30.3125 40.949219 30.101562 40.878906 L 12.707031 35.34375 L 4.652344 35.34375 C 3.398438 35.34375 2.375 34.257812 2.375 32.925781 L 2.375 4.808594 C 2.375 3.476562 3.398438 2.390625 4.652344 2.390625 L 25.757812 2.390625 C 27.011719 2.390625 28.03125 3.476562 28.03125 4.808594 L 28.03125 6.4375 L 39.980469 10.238281 C 40.566406 10.425781 41.03125 10.839844 41.292969 11.414062 C 41.546875 11.960938 41.582031 12.589844 41.390625 13.179688 L 32.96875 39.296875 C 32.769531 39.921875 32.328125 40.445312 31.761719 40.734375 C 31.441406 40.898438 31.09375 40.980469 30.75 40.980469 Z M 4.652344 3.8125 C 4.1875 3.8125 3.804688 4.261719 3.804688 4.808594 L 3.804688 32.925781 C 3.804688 33.476562 4.1875 33.921875 4.652344 33.921875 L 12.820312 33.921875 C 12.894531 33.921875 12.964844 33.933594 13.039062 33.957031 L 30.539062 39.527344 C 30.769531 39.601562 30.976562 39.539062 31.105469 39.472656 C 31.335938 39.351562 31.519531 39.132812 31.605469 38.867188 L 40.027344 12.746094 C 40.109375 12.492188 40.097656 12.230469 39.992188 12.003906 C 39.898438 11.800781 39.742188 11.65625 39.546875 11.59375 L 27.097656 7.632812 C 26.800781 7.539062 26.601562 7.265625 26.601562 6.957031 L 26.601562 4.808594 C 26.601562 4.261719 26.222656 3.8125 25.757812 3.8125 Z M 4.652344 3.8125 " fill-opacity="1" fill-rule="nonzero"/></svg>