<svg xmlns="http://www.w3.org/2000/svg" xmlns:xlink="http://www.w3.org/1999/xlink" width="60" zoomAndPan="magnify" viewBox="0 0 45 44.999999" height="60" preserveAspectRatio="xMidYMid meet" version="1.0"><defs><clipPath id="4124dc1651"><path d="M 0 0 L 44.25 0 L 44.25 45 L 0 45 Z M 0 0 " clip-rule="nonzero"/></clipPath></defs><path fill="#d5a889" d="M 17.679688 13.609375 L 18.191406 14.496094 C 16.308594 15.59375 15.59375 15.972656 14.949219 16.480469 C 14.320312 16.980469 13.761719 17.601562 12.257812 19.132812 L 15.910156 25.507812 C 16.421875 26.398438 17.5625 26.707031 18.449219 26.191406 C 19.335938 25.675781 19.640625 24.523438 19.128906 23.632812 L 18.335938 22.246094 L 18.621094 22.746094 C 19.132812 23.636719 20.273438 23.945312 21.160156 23.429688 C 22.046875 22.914062 22.351562 21.765625 21.839844 20.871094 L 19.988281 17.636719 L 21.332031 19.984375 C 21.84375 20.875 22.984375 21.183594 23.871094 20.667969 C 24.757812 20.152344 25.0625 19.003906 24.550781 18.109375 L 20.902344 11.734375 Z M 17.679688 13.609375 " fill-opacity="1" fill-rule="evenodd"/><path fill="#e3b997" d="M 17.679688 13.609375 L 21.332031 19.984375 C 21.578125 20.414062 21.972656 20.710938 22.414062 20.839844 C 22.550781 20.800781 22.683594 20.742188 22.808594 20.667969 C 23.695312 20.152344 24 19.003906 23.492188 18.109375 L 20.105469 12.199219 Z M 17.679688 13.609375 " fill-opacity="1" fill-rule="evenodd"/><path fill="#e3b997" d="M 12.257812 19.132812 L 15.910156 25.507812 C 16.15625 25.9375 16.550781 26.230469 16.992188 26.363281 C 17.128906 26.324219 17.261719 26.265625 17.386719 26.191406 C 18.273438 25.675781 18.578125 24.523438 18.070312 23.632812 L 14.300781 17.054688 Z M 12.257812 19.132812 " fill-opacity="1" fill-rule="evenodd"/><path fill="#e3b997" d="M 14.96875 16.371094 L 18.621094 22.746094 C 18.867188 23.175781 19.261719 23.472656 19.703125 23.601562 C 19.839844 23.5625 19.972656 23.503906 20.097656 23.429688 C 20.984375 22.914062 21.289062 21.765625 20.777344 20.871094 L 17.394531 14.960938 Z M 14.96875 16.371094 " fill-opacity="1" fill-rule="evenodd"/><path fill="#efc7a4" d="M 24.390625 17.902344 L 21.140625 12.96875 C 20.011719 12.71875 19.699219 13.039062 19 13.746094 L 12.847656 19.945312 C 12.011719 20.789062 10.644531 20.789062 9.808594 19.945312 C 8.972656 19.105469 8.972656 17.726562 9.808594 16.882812 L 18.625 7.996094 C 19.457031 7.160156 20.488281 6.890625 21.660156 6.785156 L 26.824219 6.3125 C 30.039062 7.621094 32.714844 8.695312 35.203125 10.929688 C 35.730469 11.402344 36.3125 11.660156 37.011719 11.726562 L 43.328125 12.347656 C 43.492188 12.363281 43.617188 12.5 43.617188 12.667969 L 43.617188 23.890625 C 43.617188 23.988281 43.578125 24.070312 43.507812 24.132812 C 43.4375 24.195312 43.351562 24.222656 43.257812 24.210938 L 34.871094 23.144531 C 32.121094 22.796875 26.757812 21.132812 24.390625 17.902344 Z M 24.390625 17.902344 " fill-opacity="1" fill-rule="evenodd"/><path fill="#e3b997" d="M 22.738281 13.449219 C 22.328125 13.433594 22.011719 13.085938 22.027344 12.671875 C 22.042969 12.261719 22.386719 11.941406 22.796875 11.957031 C 23.53125 11.988281 24.289062 11.839844 24.957031 11.5625 C 25.59375 11.296875 26.136719 10.910156 26.476562 10.453125 C 26.722656 10.121094 27.1875 10.054688 27.515625 10.300781 C 27.84375 10.546875 27.914062 11.015625 27.667969 11.347656 C 27.164062 12.023438 26.402344 12.574219 25.527344 12.941406 C 24.671875 13.300781 23.691406 13.488281 22.738281 13.449219 Z M 22.738281 13.449219 " fill-opacity="1" fill-rule="evenodd"/><path fill="#e3b997" d="M 20.351562 12.890625 C 19.804688 12.929688 19.277344 13.089844 19 13.746094 L 17.582031 17.089844 L 14.554688 18.226562 C 13.886719 17.558594 13.46875 16.636719 13.46875 15.613281 C 13.46875 13.597656 15.101562 11.949219 17.101562 11.949219 L 20.351562 11.949219 Z M 20.351562 12.890625 " fill-opacity="1" fill-rule="evenodd"/><path fill="#e4e8eb" d="M 42.273438 9.902344 L 39.730469 9.902344 C 38.988281 9.902344 38.386719 10.511719 38.386719 11.257812 L 38.386719 24.058594 C 38.386719 24.804688 38.988281 25.414062 39.730469 25.414062 L 42.273438 25.414062 C 43.011719 25.414062 43.617188 24.804688 43.617188 24.058594 L 43.617188 11.257812 C 43.617188 10.511719 43.011719 9.902344 42.273438 9.902344 Z M 42.273438 9.902344 " fill-opacity="1" fill-rule="evenodd"/><path fill="#fdcd56" d="M 23.902344 2.199219 C 24.53125 1.101562 25.9375 0.71875 27.023438 1.355469 C 28.113281 1.988281 28.492188 3.40625 27.863281 4.503906 C 27.863281 4.503906 17.226562 23.070312 16.585938 24.1875 C 16.566406 24.222656 16.542969 24.25 16.507812 24.273438 L 12.46875 27.078125 C 12.378906 27.140625 12.269531 27.144531 12.175781 27.085938 C 12.085938 27.03125 12.035156 26.933594 12.046875 26.824219 L 12.589844 21.992188 C 12.59375 21.953125 12.605469 21.921875 12.625 21.886719 C 13.238281 20.8125 23.902344 2.199219 23.902344 2.199219 Z M 23.902344 2.199219 " fill-opacity="1" fill-rule="evenodd"/><path fill="#efc7a4" d="M 12.46875 27.078125 L 15.574219 24.921875 L 16.507812 24.273438 C 16.535156 24.253906 16.554688 24.234375 16.574219 24.207031 C 16 23.871094 15.222656 23.417969 14.460938 22.976562 C 13.789062 22.582031 13.125 22.199219 12.617188 21.902344 C 12.601562 21.929688 12.59375 21.957031 12.589844 21.992188 L 12.046875 26.824219 C 12.035156 26.933594 12.085938 27.03125 12.175781 27.089844 C 12.269531 27.144531 12.378906 27.140625 12.46875 27.078125 Z M 12.46875 27.078125 " fill-opacity="1" fill-rule="evenodd"/><path fill="#636c77" d="M 22.515625 4.621094 L 25.609375 6.421875 L 26.472656 6.925781 C 26.597656 6.710938 26.714844 6.503906 26.824219 6.3125 C 27.46875 5.191406 27.863281 4.503906 27.863281 4.503906 C 28.492188 3.40625 28.113281 1.988281 27.023438 1.355469 C 25.9375 0.722656 24.53125 1.101562 23.902344 2.199219 C 23.902344 2.199219 23.359375 3.144531 22.515625 4.621094 Z M 22.515625 4.621094 " fill-opacity="1" fill-rule="evenodd"/><path fill="#efc7a4" d="M 23.0625 13.449219 L 17.101562 13.449219 C 15.921875 13.449219 14.953125 14.425781 14.953125 15.617188 C 14.953125 16.808594 15.921875 17.78125 17.101562 17.78125 L 24.363281 17.78125 Z M 23.0625 13.449219 " fill-opacity="1" fill-rule="evenodd"/><g clip-path="url(#4124dc1651)"><path fill="#000000" d="M 42.988281 11.257812 C 42.988281 10.859375 42.667969 10.535156 42.269531 10.535156 L 39.726562 10.535156 C 39.335938 10.535156 39.011719 10.859375 39.011719 11.257812 L 39.011719 24.058594 C 39.011719 24.457031 39.335938 24.78125 39.726562 24.78125 L 42.269531 24.78125 C 42.667969 24.78125 42.988281 24.457031 42.988281 24.058594 Z M 34.945312 22.519531 L 37.757812 22.875 L 37.757812 12.4375 L 36.949219 12.355469 C 36.117188 12.273438 35.40625 11.960938 34.785156 11.402344 C 32.503906 9.355469 30.09375 8.328125 27.097656 7.105469 L 23.867188 12.738281 C 24.972656 12.535156 26.003906 11.988281 26.539062 11.269531 C 26.746094 10.988281 27.136719 10.929688 27.417969 11.140625 C 27.695312 11.347656 27.75 11.742188 27.542969 12.023438 C 26.574219 13.332031 24.640625 14.160156 22.722656 14.082031 L 17.101562 14.082031 C 16.261719 14.082031 15.578125 14.769531 15.578125 15.617188 C 15.578125 16.460938 16.261719 17.148438 17.101562 17.148438 L 24.308594 17.148438 C 24.519531 17.148438 24.710938 17.257812 24.828125 17.433594 C 26.515625 19.996094 31.394531 22.066406 34.945312 22.519531 Z M 24.039062 18.484375 C 24.328125 19.066406 24.117188 19.792969 23.558594 20.121094 C 23.273438 20.285156 22.941406 20.328125 22.621094 20.246094 C 22.304688 20.160156 22.039062 19.957031 21.875 19.671875 L 21.15625 18.414062 L 23.984375 18.414062 C 24 18.4375 24.019531 18.460938 24.039062 18.484375 Z M 21.296875 21.1875 C 21.636719 21.78125 21.433594 22.542969 20.84375 22.882812 C 20.5625 23.046875 20.230469 23.089844 19.914062 23.007812 C 19.59375 22.917969 19.328125 22.714844 19.164062 22.429688 L 18.738281 21.691406 L 20.160156 19.207031 L 20.789062 20.300781 C 20.789062 20.304688 20.789062 20.304688 20.792969 20.308594 Z M 18.585938 23.949219 L 18.015625 22.953125 L 17.097656 24.554688 C 17.054688 24.636719 16.988281 24.707031 16.910156 24.757812 L 16.402344 25.109375 L 16.449219 25.191406 C 16.792969 25.785156 17.546875 25.988281 18.136719 25.644531 C 18.722656 25.304688 18.925781 24.542969 18.585938 23.949219 Z M 12.753906 26.109375 L 15.417969 24.261719 L 13.113281 22.921875 Z M 19.167969 18.414062 L 16.34375 23.34375 L 13.46875 21.671875 L 15.449219 18.222656 L 15.660156 18.003906 C 16.078125 18.265625 16.574219 18.414062 17.101562 18.414062 Z M 12.40625 19.5 C 12.121094 19.789062 11.734375 19.949219 11.328125 19.949219 C 10.917969 19.949219 10.535156 19.789062 10.25 19.5 C 9.96875 19.210938 9.808594 18.828125 9.808594 18.414062 C 9.808594 18.003906 9.96875 17.617188 10.25 17.328125 L 19.066406 8.445312 C 19.324219 8.1875 19.613281 7.984375 19.953125 7.824219 L 17.09375 12.816406 C 15.566406 12.820312 14.328125 14.074219 14.328125 15.617188 C 14.328125 16.167969 14.488281 16.6875 14.765625 17.121094 Z M 23.367188 4.390625 L 26.242188 6.0625 L 27.320312 4.1875 C 27.773438 3.386719 27.503906 2.363281 26.707031 1.902344 C 25.917969 1.441406 24.902344 1.714844 24.441406 2.515625 Z M 25.617188 7.15625 L 22.375 12.816406 L 18.539062 12.816406 L 22.738281 5.484375 Z M 44.242188 11.257812 L 44.242188 24.058594 C 44.242188 25.152344 43.355469 26.042969 42.269531 26.042969 L 39.726562 26.042969 C 38.671875 26.042969 37.808594 25.203125 37.757812 24.148438 L 34.789062 23.773438 C 32.105469 23.429688 27.910156 22.03125 25.300781 19.804688 C 25.121094 20.382812 24.738281 20.894531 24.183594 21.214844 C 23.730469 21.480469 23.214844 21.589844 22.703125 21.539062 C 22.804688 22.496094 22.347656 23.46875 21.472656 23.976562 C 21.015625 24.242188 20.503906 24.351562 19.988281 24.300781 C 20.089844 25.257812 19.640625 26.230469 18.761719 26.738281 C 18.371094 26.964844 17.945312 27.074219 17.519531 27.074219 C 16.664062 27.074219 15.832031 26.628906 15.371094 25.828125 L 12.335938 27.9375 C 12.230469 28.011719 12.105469 28.046875 11.980469 28.046875 C 11.871094 28.046875 11.757812 28.019531 11.660156 27.957031 C 11.449219 27.828125 11.332031 27.589844 11.355469 27.34375 L 11.972656 21.863281 C 11.980469 21.777344 12.011719 21.695312 12.050781 21.617188 L 12.410156 20.992188 C 12.074219 21.132812 11.707031 21.210938 11.328125 21.210938 C 10.585938 21.210938 9.886719 20.921875 9.363281 20.394531 C 8.84375 19.867188 8.554688 19.164062 8.554688 18.414062 C 8.554688 17.667969 8.84375 16.964844 9.363281 16.4375 L 18.183594 7.550781 C 19.046875 6.679688 20.078125 6.382812 20.855469 6.25 L 23.355469 1.882812 C 24.160156 0.480469 25.945312 0 27.335938 0.808594 C 28.726562 1.617188 29.207031 3.417969 28.402344 4.820312 L 27.726562 6 C 30.660156 7.199219 33.226562 8.308594 35.617188 10.457031 C 36.042969 10.839844 36.503906 11.042969 37.070312 11.097656 L 37.757812 11.167969 C 37.804688 10.113281 38.671875 9.273438 39.726562 9.273438 L 42.269531 9.273438 C 43.355469 9.273438 44.242188 10.160156 44.242188 11.257812 Z M 12.570312 29.804688 C 12.570312 29.457031 12.292969 29.171875 11.945312 29.171875 C 11.597656 29.171875 11.320312 29.457031 11.320312 29.804688 L 11.320312 40.78125 C 11.320312 42.003906 10.332031 43 9.117188 43 C 7.902344 43 6.917969 42.003906 6.917969 40.78125 L 6.917969 24.15625 C 6.917969 22.238281 5.367188 20.675781 3.460938 20.675781 C 1.558594 20.675781 0.0078125 22.238281 0.0078125 24.15625 L 0.0078125 44.367188 C 0.0078125 44.71875 0.285156 45 0.636719 45 C 0.980469 45 1.257812 44.71875 1.257812 44.367188 L 1.257812 24.15625 C 1.257812 22.933594 2.25 21.9375 3.460938 21.9375 C 4.675781 21.9375 5.660156 22.933594 5.660156 24.15625 L 5.660156 40.78125 C 5.660156 42.699219 7.210938 44.261719 9.117188 44.261719 C 11.023438 44.261719 12.570312 42.699219 12.570312 40.78125 Z M 12.570312 29.804688 " fill-opacity="1" fill-rule="evenodd"/></g></svg>