<?xml version="1.0" encoding="UTF-8"?>
<svg version="1.1" xmlns="http://www.w3.org/2000/svg" width="512" height="512">
<path d="M0 0 C1.30286453 0.00506058 1.30286453 0.00506058 2.63204956 0.01022339 C28.90283214 0.15735397 53.35262478 5.20306328 77.5625 15.5625 C78.30741699 15.87477539 79.05233398 16.18705078 79.81982422 16.50878906 C84.07586095 18.43358945 86.5715949 20.03167094 88.3125 24.4375 C88.2403125 25.26378906 88.168125 26.09007813 88.09375 26.94140625 C88.05811547 29.78059738 88.05811547 29.78059738 91.09375 31.96484375 C92.32097743 32.78697987 93.56130937 33.58981405 94.8125 34.375 C95.41320312 34.79845703 96.01390625 35.22191406 96.6328125 35.65820312 C100.23152665 37.97749419 100.23152665 37.97749419 104.390625 38.17236328 C105.7609347 37.77279694 107.12506427 37.35129694 108.48144531 36.90673828 C111.30584969 36.18293759 112.85481711 36.99549218 115.3125 38.4375 C135.62788265 52.29203817 152.28520924 73.22165791 164.3125 94.4375 C164.66231934 95.03369141 165.01213867 95.62988281 165.37255859 96.24414062 C190.25547724 138.83790706 194.69985629 190.21457144 183.05859375 237.59765625 C177.04570068 260.48442724 166.28635109 287.46364891 149.3125 304.4375 C149.64591448 308.78846463 150.91738008 312.11512632 152.90454102 315.96459961 C153.44502579 317.02267319 153.98551056 318.08074677 154.54237366 319.17088318 C155.42051979 320.86326866 155.42051979 320.86326866 156.31640625 322.58984375 C157.22993302 324.38288287 158.14344348 326.17593051 159.05599117 327.96946812 C161.30112777 332.37580356 163.56385284 336.77308845 165.83178711 341.16772461 C167.10639358 343.63910287 168.37333237 346.11414655 169.6325531 348.59339905 C170.81683497 350.92349073 172.01276073 353.24770961 173.22157288 355.56517029 C178.22674873 365.45033514 178.22674873 365.45033514 177.3125 371.4375 C176.92191406 372.25734375 176.53132813 373.0771875 176.12890625 373.921875 C175.09506174 377.10750115 175.87370813 378.84193526 177.28320312 381.8046875 C177.60224609 382.42601562 177.92128906 383.04734375 178.25 383.6875 C178.53423828 384.32429688 178.81847656 384.96109375 179.11132812 385.6171875 C180.09913368 387.74218085 180.09913368 387.74218085 182.3125 390.4375 C184.64031429 390.80741374 186.97435604 391.13977805 189.3125 391.4375 C193.7628751 395.63412564 196.08247491 400.59740562 198.5625 406.125 C198.913125 406.88361328 199.26375 407.64222656 199.625 408.42382812 C203.92691799 417.79704559 205.28463537 427.90252744 202.25390625 437.9453125 C197.78379773 447.41855061 191.29229755 454.64558098 181.4609375 458.578125 C165.81709517 462.8481564 151.64892457 456.42449508 137.21484375 450.859375 C129.6412947 447.99148047 123.07207472 445.58874762 115.09765625 448.1484375 C108.33548877 451.49804001 106.74778559 457.71982862 104.3125 464.4375 C102.33810941 470.55975229 100.55403369 476.73671694 98.79492188 482.92382812 C95.37976209 494.41448079 90.68232198 503.36823046 80.2421875 509.69140625 C71.75224146 513.82126136 61.38359173 513.75798198 52.27734375 511.77734375 C49.75220661 510.87578783 47.60351762 509.82561196 45.3125 508.4375 C44.64347656 508.04433594 43.97445312 507.65117187 43.28515625 507.24609375 C38.40789192 503.70162641 35.73665891 499.03561758 32.9140625 493.8515625 C32.27581039 492.69019775 32.27581039 492.69019775 31.62466431 491.50537109 C25.97959468 481.12603934 20.71757655 470.54679299 15.44970703 459.97265625 C13.95914403 456.98244397 12.46323023 453.99504329 10.96431541 451.00901794 C9.52182009 448.13294401 8.08537906 445.25385172 6.6484375 442.375 C6.11108978 441.30435303 5.57374207 440.23370605 5.02011108 439.13061523 C4.28771713 437.65637085 4.28771713 437.65637085 3.54052734 436.15234375 C3.10880219 435.28730225 2.67707703 434.42226074 2.23226929 433.53100586 C1.3125 431.4375 1.3125 431.4375 1.3125 429.4375 C0.6525 429.4375 -0.0075 429.4375 -0.6875 429.4375 C-0.96020218 430.30691223 -1.23290436 431.17632446 -1.51387024 432.07208252 C-2.63687271 435.29232477 -3.95094138 438.23132694 -5.46557617 441.28417969 C-6.02343307 442.4126532 -6.58128998 443.54112671 -7.15605164 444.70379639 C-7.76386608 445.92248453 -8.37201365 447.14100658 -8.98046875 448.359375 C-9.6111423 449.62716078 -10.24169955 450.89500441 -10.87214661 452.16290283 C-12.19325285 454.8170616 -13.51763219 457.46955783 -14.84399414 460.12109375 C-16.5285821 463.49006728 -18.20212863 466.86439128 -19.87281322 470.24027634 C-21.17225428 472.86159613 -22.47911441 475.47916661 -23.78795815 478.09580231 C-24.40720919 479.33663781 -25.02391699 480.57874642 -25.63783836 481.82222748 C-31.85044788 494.39067754 -37.61330021 504.48793648 -50.125 511.3125 C-58.88562277 514.20957723 -71.15784326 513.87528846 -79.48046875 509.8203125 C-92.9941803 501.35331447 -96.4602936 488.80122715 -100.75 474.25 C-101.5850764 471.42007213 -102.43178073 468.59398752 -103.28515625 465.76953125 C-103.65133057 464.52921143 -104.01750488 463.2888916 -104.39477539 462.01098633 C-106.50987375 456.16420735 -108.78176022 450.95634232 -114.6796875 448.09375 C-124.23880325 444.96936976 -133.68911066 449.51853504 -142.5625 452.875 C-144.6641748 453.65263897 -146.76745587 454.42578591 -148.87112427 455.19801331 C-150.76557159 455.8961467 -152.6561021 456.60488188 -154.54638672 457.31420898 C-163.04374847 460.35294374 -174.25363417 461.39549953 -182.75 457.75 C-184.08509409 457.01899791 -185.40005942 456.24949572 -186.6875 455.4375 C-187.30882812 455.086875 -187.93015625 454.73625 -188.5703125 454.375 C-195.80138866 449.86731616 -199.80666447 442.24867976 -202.6875 434.4375 C-203.07472351 431.67923396 -203.28641206 429.25227729 -203.3125 426.5 C-203.35761719 425.85482422 -203.40273437 425.20964844 -203.44921875 424.54492188 C-203.60650812 412.6246348 -194.98688425 399.76179002 -189.60516357 389.5513916 C-187.7933063 386.10594062 -186.00887671 382.64629239 -184.22265625 379.1875 C-183.81494995 378.39813049 -183.40724365 377.60876099 -182.98718262 376.79547119 C-177.16957592 365.51433319 -171.40528468 354.20613131 -165.6881094 342.87379074 C-163.95427552 339.4374948 -162.21556268 336.00388256 -160.46456909 332.57629395 C-158.79367498 329.30500827 -157.13642018 326.02716233 -155.48901558 322.74398804 C-154.87089185 321.51785805 -154.24794498 320.29414653 -153.61997795 319.07302856 C-152.75300207 317.38506164 -151.90508209 315.68734795 -151.05810547 313.98925781 C-150.57421356 313.03400208 -150.09032166 312.07874634 -149.59176636 311.09454346 C-148.54729921 308.02554218 -148.69974299 306.49288065 -149.6875 303.4375 C-151.21721264 300.99373709 -151.21721264 300.99373709 -153.1875 298.5625 C-182.33747594 259.62646071 -193.21886292 209.3606385 -186.96875 161.48828125 C-179.73495479 112.90560327 -153.67087136 67.62313555 -114.25 38.02734375 C-80.58580301 13.3458395 -41.88835359 -0.31873275 0 0 Z " fill="#FDCF5A" transform="translate(255.6875,-0.4375)"/>
<path d="M0 0 C1.30286453 0.00506058 1.30286453 0.00506058 2.63204956 0.01022339 C28.90283214 0.15735397 53.35262478 5.20306328 77.5625 15.5625 C78.30741699 15.87477539 79.05233398 16.18705078 79.81982422 16.50878906 C84.07278395 18.43219787 86.50979584 20.06646443 88.3125 24.4375 C88.24346951 27.88902438 87.96193318 29.68815402 85.6875 32.3125 C81.83814121 34.13588048 78.19598171 34.01819812 74.12695312 32.76367188 C71.68420158 31.81176278 69.27987356 30.79383922 66.875 29.75 C65.07975237 29.00777031 63.2828544 28.26952048 61.484375 27.53515625 C60.60201172 27.17437988 59.71964844 26.81360352 58.81054688 26.44189453 C18.88008388 10.38697616 -27.96921123 12.89832825 -67.28198242 29.51074219 C-88.2570498 38.74665222 -106.14524528 51.70278138 -122.6875 67.4375 C-123.33203125 68.02917969 -123.9765625 68.62085937 -124.640625 69.23046875 C-155.60642892 98.53222246 -170.61495134 142.99098725 -171.91015625 184.59375 C-172.50447995 214.16135431 -166.07994884 241.98541665 -152.6875 268.4375 C-152.37876953 269.04948242 -152.07003906 269.66146484 -151.75195312 270.29199219 C-144.50934005 284.35613618 -134.5979768 297.03820256 -123.6875 308.4375 C-122.96820313 309.21996094 -122.24890625 310.00242187 -121.5078125 310.80859375 C-93.58243215 340.19135926 -50.93386212 359.57950879 -10.45703125 360.8515625 C5.27118351 361.20784311 20.84228629 360.44110454 36.3125 357.4375 C37.00972168 357.30891602 37.70694336 357.18033203 38.42529297 357.04785156 C62.54811884 352.43794611 85.96894939 340.33578882 105.3125 325.4375 C106.24320312 324.73109375 107.17390625 324.0246875 108.1328125 323.296875 C141.60271478 296.95030469 165.08676523 256.88996819 170.93188477 214.56738281 C175.07493842 179.1374974 171.27784379 144.58908213 155.3125 112.4375 C154.99023438 111.77669434 154.66796875 111.11588867 154.3359375 110.43505859 C143.28536192 87.95769374 126.31054741 67.13505994 106.2734375 52.05859375 C103.48871205 49.75648008 102.38417974 48.11128956 102 44.5 C102.35013238 41.06870272 102.80202605 39.77483782 105.3125 37.4375 C108.21137055 36.36949506 109.73510913 36.24980033 112.6796875 37.20703125 C134.44448343 47.37900561 152.80287462 74.13480678 164.3125 94.4375 C164.66231934 95.03369141 165.01213867 95.62988281 165.37255859 96.24414062 C190.25547724 138.83790706 194.69985629 190.21457144 183.05859375 237.59765625 C177.04570068 260.48442724 166.28635109 287.46364891 149.3125 304.4375 C149.64591448 308.78846463 150.91738008 312.11512632 152.90454102 315.96459961 C153.44502579 317.02267319 153.98551056 318.08074677 154.54237366 319.17088318 C155.42051979 320.86326866 155.42051979 320.86326866 156.31640625 322.58984375 C157.22993302 324.38288287 158.14344348 326.17593051 159.05599117 327.96946812 C161.30112777 332.37580356 163.56385284 336.77308845 165.83178711 341.16772461 C167.10639358 343.63910287 168.37333237 346.11414655 169.6325531 348.59339905 C170.81683497 350.92349073 172.01276073 353.24770961 173.22157288 355.56517029 C178.22674873 365.45033514 178.22674873 365.45033514 177.3125 371.4375 C176.92191406 372.25734375 176.53132813 373.0771875 176.12890625 373.921875 C175.09506174 377.10750115 175.87370813 378.84193526 177.28320312 381.8046875 C177.60224609 382.42601562 177.92128906 383.04734375 178.25 383.6875 C178.53423828 384.32429688 178.81847656 384.96109375 179.11132812 385.6171875 C180.09913368 387.74218085 180.09913368 387.74218085 182.3125 390.4375 C184.64031429 390.80741374 186.97435604 391.13977805 189.3125 391.4375 C193.7628751 395.63412564 196.08247491 400.59740562 198.5625 406.125 C198.913125 406.88361328 199.26375 407.64222656 199.625 408.42382812 C203.92691799 417.79704559 205.28463537 427.90252744 202.25390625 437.9453125 C197.78379773 447.41855061 191.29229755 454.64558098 181.4609375 458.578125 C165.81709517 462.8481564 151.64892457 456.42449508 137.21484375 450.859375 C129.6412947 447.99148047 123.07207472 445.58874762 115.09765625 448.1484375 C108.33548877 451.49804001 106.74778559 457.71982862 104.3125 464.4375 C102.33810941 470.55975229 100.55403369 476.73671694 98.79492188 482.92382812 C95.37976209 494.41448079 90.68232198 503.36823046 80.2421875 509.69140625 C71.75224146 513.82126136 61.38359173 513.75798198 52.27734375 511.77734375 C49.75220661 510.87578783 47.60351762 509.82561196 45.3125 508.4375 C44.64347656 508.04433594 43.97445312 507.65117187 43.28515625 507.24609375 C38.40789192 503.70162641 35.73665891 499.03561758 32.9140625 493.8515625 C32.27581039 492.69019775 32.27581039 492.69019775 31.62466431 491.50537109 C25.97959468 481.12603934 20.71757655 470.54679299 15.44970703 459.97265625 C13.95914403 456.98244397 12.46323023 453.99504329 10.96431541 451.00901794 C9.52182009 448.13294401 8.08537906 445.25385172 6.6484375 442.375 C6.11108978 441.30435303 5.57374207 440.23370605 5.02011108 439.13061523 C4.28771713 437.65637085 4.28771713 437.65637085 3.54052734 436.15234375 C3.10880219 435.28730225 2.67707703 434.42226074 2.23226929 433.53100586 C1.3125 431.4375 1.3125 431.4375 1.3125 429.4375 C0.6525 429.4375 -0.0075 429.4375 -0.6875 429.4375 C-0.96020218 430.30691223 -1.23290436 431.17632446 -1.51387024 432.07208252 C-2.63687271 435.29232477 -3.95094138 438.23132694 -5.46557617 441.28417969 C-6.02343307 442.4126532 -6.58128998 443.54112671 -7.15605164 444.70379639 C-7.76386608 445.92248453 -8.37201365 447.14100658 -8.98046875 448.359375 C-9.6111423 449.62716078 -10.24169955 450.89500441 -10.87214661 452.16290283 C-12.19325285 454.8170616 -13.51763219 457.46955783 -14.84399414 460.12109375 C-16.5285821 463.49006728 -18.20212863 466.86439128 -19.87281322 470.24027634 C-21.17225428 472.86159613 -22.47911441 475.47916661 -23.78795815 478.09580231 C-24.40720919 479.33663781 -25.02391699 480.57874642 -25.63783836 481.82222748 C-31.85044788 494.39067754 -37.61330021 504.48793648 -50.125 511.3125 C-58.88562277 514.20957723 -71.15784326 513.87528846 -79.48046875 509.8203125 C-92.9941803 501.35331447 -96.4602936 488.80122715 -100.75 474.25 C-101.5850764 471.42007213 -102.43178073 468.59398752 -103.28515625 465.76953125 C-103.65133057 464.52921143 -104.01750488 463.2888916 -104.39477539 462.01098633 C-106.50987375 456.16420735 -108.78176022 450.95634232 -114.6796875 448.09375 C-124.23880325 444.96936976 -133.68911066 449.51853504 -142.5625 452.875 C-144.6641748 453.65263897 -146.76745587 454.42578591 -148.87112427 455.19801331 C-150.76557159 455.8961467 -152.6561021 456.60488188 -154.54638672 457.31420898 C-163.04374847 460.35294374 -174.25363417 461.39549953 -182.75 457.75 C-184.08509409 457.01899791 -185.40005942 456.24949572 -186.6875 455.4375 C-187.30882812 455.086875 -187.93015625 454.73625 -188.5703125 454.375 C-195.80138866 449.86731616 -199.80666447 442.24867976 -202.6875 434.4375 C-203.07472351 431.67923396 -203.28641206 429.25227729 -203.3125 426.5 C-203.35761719 425.85482422 -203.40273437 425.20964844 -203.44921875 424.54492188 C-203.60650812 412.6246348 -194.98688425 399.76179002 -189.60516357 389.5513916 C-187.7933063 386.10594062 -186.00887671 382.64629239 -184.22265625 379.1875 C-183.81494995 378.39813049 -183.40724365 377.60876099 -182.98718262 376.79547119 C-177.16957592 365.51433319 -171.40528468 354.20613131 -165.6881094 342.87379074 C-163.95427552 339.4374948 -162.21556268 336.00388256 -160.46456909 332.57629395 C-158.79367498 329.30500827 -157.13642018 326.02716233 -155.48901558 322.74398804 C-154.87089185 321.51785805 -154.24794498 320.29414653 -153.61997795 319.07302856 C-152.75300207 317.38506164 -151.90508209 315.68734795 -151.05810547 313.98925781 C-150.57421356 313.03400208 -150.09032166 312.07874634 -149.59176636 311.09454346 C-148.54729921 308.02554218 -148.69974299 306.49288065 -149.6875 303.4375 C-151.21721264 300.99373709 -151.21721264 300.99373709 -153.1875 298.5625 C-182.33747594 259.62646071 -193.21886292 209.3606385 -186.96875 161.48828125 C-179.73495479 112.90560327 -153.67087136 67.62313555 -114.25 38.02734375 C-80.58580301 13.3458395 -41.88835359 -0.31873275 0 0 Z " fill="#020100" transform="translate(255.6875,-0.4375)"/>
<path d="M0 0 C0.89420654 0.36512695 1.78841309 0.73025391 2.7097168 1.10644531 C4.45174859 1.82667338 6.18805403 2.5609691 7.91723633 3.31152344 C12.7142728 5.33102196 16.52758768 6.58980738 21.828125 5.90234375 C24.69959494 4.53237218 24.69959494 4.53237218 26.828125 2.90234375 C29.14738296 4.32980962 31.45818988 5.76849229 33.765625 7.21484375 C34.7546582 7.82102539 34.7546582 7.82102539 35.76367188 8.43945312 C40.71484375 11.5625 40.71484375 11.5625 41.828125 14.90234375 C41.76625 15.85109375 41.704375 16.79984375 41.640625 17.77734375 C41.88065367 21.77782164 43.18225269 22.95486942 45.828125 25.90234375 C47.25027189 27.09279255 48.71151328 28.23768014 50.203125 29.33984375 C84.44385445 56.21805995 104.77592947 96.99854172 111.078125 139.52734375 C114.96758905 174.98804299 108.94633212 210.06648138 92.828125 241.90234375 C92.3650293 242.82031738 92.3650293 242.82031738 91.89257812 243.75683594 C84.16586981 258.76102534 73.4919218 271.80527069 61.828125 283.90234375 C60.66603516 285.15917969 60.66603516 285.15917969 59.48046875 286.44140625 C29.70898225 317.75365416 -14.53600394 334.16563724 -57.07369995 335.31777954 C-73.9136941 335.65585917 -89.80600801 334.19276131 -106.171875 329.90234375 C-106.99107422 329.68835938 -107.81027344 329.474375 -108.65429688 329.25390625 C-136.79359323 321.56012396 -161.05755303 305.63053466 -182.171875 285.90234375 C-183.04714844 285.0928125 -183.92242187 284.28328125 -184.82421875 283.44921875 C-214.75039511 254.76817742 -233.11143581 212.03832938 -234.4140625 170.7734375 C-235.30627068 120.38307132 -218.8063946 75.80682937 -183.84326172 39.29003906 C-137.0655213 -8.39585756 -62.13585301 -25.40580257 0 0 Z M-99.171875 22.90234375 C-99.83203613 23.0842627 -100.49219727 23.26618164 -101.17236328 23.45361328 C-117.63036202 28.08669519 -132.39540191 35.91440076 -146.171875 45.90234375 C-147.0278125 46.51335937 -147.88375 47.124375 -148.765625 47.75390625 C-177.22009302 69.28445372 -198.22707134 102.56249354 -203.49316406 138.06860352 C-206.10477815 160.62536713 -205.52017552 184.79941792 -198.234375 206.40234375 C-197.87351807 207.47246704 -197.87351807 207.47246704 -197.50537109 208.56420898 C-196.08394761 212.41676653 -194.88739841 214.97604326 -191.171875 216.90234375 C-188.00455079 217.15321099 -188.00455079 217.15321099 -185.171875 216.90234375 C-184.945 217.70671875 -184.718125 218.51109375 -184.484375 219.33984375 C-183.07362278 223.16902834 -181.18886819 226.32628298 -179 229.75390625 C-178.72671875 230.46289062 -178.4534375 231.171875 -178.171875 231.90234375 C-178.8038476 233.25246703 -179.47679647 234.58359887 -180.171875 235.90234375 C-180.95174755 243.1895399 -178.24693715 246.22669865 -173.86328125 251.71484375 C-172.97015561 252.78071654 -172.07298223 253.84321016 -171.171875 254.90234375 C-170.73343262 255.42054688 -170.29499023 255.93875 -169.84326172 256.47265625 C-163.60221775 263.75959574 -156.8580306 270.13246256 -149.171875 275.90234375 C-148.21023437 276.629375 -147.24859375 277.35640625 -146.2578125 278.10546875 C-115.669538 300.25292826 -78.06686435 310.17358914 -40.5480957 304.87060547 C-13.58247684 300.48048095 10.82304482 289.25283376 31.828125 271.90234375 C32.35905762 271.46390137 32.88999023 271.02545898 33.43701172 270.57373047 C40.44744642 264.6905791 46.28171295 258.16086451 51.828125 250.90234375 C52.49457031 250.0515625 53.16101563 249.20078125 53.84765625 248.32421875 C64.9137369 233.74405726 72.32896052 217.62160993 77.578125 200.15234375 C77.77696289 199.49177979 77.97580078 198.83121582 78.18066406 198.15063477 C81.27371046 187.37935269 82.15059488 176.99622333 82.08886719 165.83300781 C82.0781753 163.53814071 82.08880247 161.24406176 82.1015625 158.94921875 C82.14111566 121.06826887 66.48797288 86.41639011 40.015625 59.58984375 C9.92617961 29.93341725 -27.18099667 18.36447417 -68.66088867 18.59565735 C-79.20029007 18.71695127 -89.0432519 19.9903347 -99.171875 22.90234375 Z " fill="#FCDE75" transform="translate(317.171875,26.09765625)"/>
<path d="M0 0 C0.4752713 0.96719719 0.4752713 0.96719719 0.96014404 1.95393372 C3.95092609 8.03576862 6.95137263 14.11274642 9.96268845 20.18443775 C11.51042582 23.30598272 13.05439521 26.42927439 14.58984375 29.55688477 C16.35607533 33.15416961 18.13850483 36.74321171 19.921875 40.33203125 C20.74398468 42.01496025 20.74398468 42.01496025 21.58270264 43.73188782 C22.10294006 44.77274033 22.62317749 45.81359283 23.15917969 46.88598633 C23.61218445 47.80309891 24.06518921 48.72021149 24.53192139 49.66511536 C26.12077437 52.19208387 27.42446746 53.50727411 30 55 C33.66714849 55.25063732 33.66714849 55.25063732 37 55 C38.39489126 57.57426284 39.76570979 60.15703057 41.125 62.75 C41.52332031 63.47960937 41.92164063 64.20921875 42.33203125 64.9609375 C42.69941406 65.66992188 43.06679688 66.37890625 43.4453125 67.109375 C43.79094238 67.75874023 44.13657227 68.40810547 44.49267578 69.07714844 C45 71 45 71 44.15966797 73.18066406 C43 75 43 75 42 76 C41.14342684 83.40741111 44.40473301 88.49550369 47.80078125 94.88476562 C50.88817541 100.96644206 52.25176671 105.55990983 50.3359375 112.35546875 C47.40336056 117.9464386 44.22671005 121.21681813 38.625 124.3125 C31.64242659 126.14126923 26.05397752 124.68961109 19.546875 122.15625 C17.94151977 121.56349454 16.33604726 120.97105664 14.73046875 120.37890625 C12.24240533 119.44386413 9.75691273 118.5026405 7.27392578 117.55419922 C-3.54715377 113.44550003 -12.89485673 109.98485987 -24.55078125 112.8828125 C-35.40666966 117.76565905 -41.33218531 122.85186811 -46 134 C-47.98471143 139.77347466 -49.62028942 145.65507868 -51.28857422 151.52587891 C-52.34025819 155.18331381 -53.45800114 158.81536957 -54.625 162.4375 C-54.98851562 163.59121094 -55.35203125 164.74492187 -55.7265625 165.93359375 C-58.1076601 171.66721833 -61.32523033 174.74943258 -66.85546875 177.2734375 C-71.74231573 178.92909058 -75.76837865 178.39662382 -80.6875 176.8125 C-87.537613 173.06432496 -90.50513222 167.75247714 -93.890625 161.01953125 C-94.38846497 160.04764359 -94.88630493 159.07575592 -95.39923096 158.07441711 C-96.9161821 155.10117908 -98.4218565 152.12268474 -99.92221069 149.14105988 C-101.09185923 146.81751896 -102.26418142 144.49533856 -103.43676758 142.17327881 C-109.21752724 130.72036157 -114.96713718 119.25200727 -120.70410156 107.77709961 C-123.26895561 102.64728829 -125.83938154 97.5202896 -128.41108322 92.3939085 C-130.40055163 88.42603847 -132.38642352 84.45637686 -134.37125397 80.48618507 C-135.31891839 78.59203663 -136.26788077 76.698537 -137.21816254 74.8057003 C-138.53301043 72.18573173 -139.842834 69.56331232 -141.15136719 66.94018555 C-141.54394714 66.16064514 -141.9365271 65.38110474 -142.34100342 64.57794189 C-145 59.22834279 -145 59.22834279 -145 57 C-144.11965088 56.95512451 -143.23930176 56.91024902 -142.33227539 56.86401367 C-118.99968566 55.80000914 -118.99968566 55.80000914 -96 52 C-94.78699219 51.72414063 -93.57398438 51.44828125 -92.32421875 51.1640625 C-59.7094012 43.10506851 -28.28289314 26.46705477 -5.0625 1.9375 C-3 0 -3 0 0 0 Z " fill="#FC636E" transform="translate(393,319)"/>
<path d="M0 0 C3.79483263 1.54926653 5.97491725 3.90169705 8.75 6.875 C29.70509195 28.50071258 59.47132519 43.31405255 88.1875 51.25 C89.07775879 51.49637207 89.96801758 51.74274414 90.88525391 51.99658203 C94.66340013 53.00098725 98.23068456 53.93916067 102.13964844 54.24829102 C110.00448107 54.92146737 110.00448107 54.92146737 112.88256836 58.03955078 C114.45765807 60.77840929 115.69049123 63.50891899 116.875 66.4375 C117.77173407 68.44867705 118.67015329 70.45910364 119.5703125 72.46875 C119.98442383 73.43039062 120.39853516 74.39203125 120.82519531 75.3828125 C122.61287978 79.36535146 124.83808616 82.99697677 127.171875 86.68359375 C128.70933138 90.98412033 127.37953954 95.05882384 125.71873474 99.17726135 C125.17660843 100.25644333 124.63448212 101.33562531 124.07592773 102.44750977 C123.77651779 103.05027237 123.47710785 103.65303497 123.16862488 104.27406311 C122.18324278 106.25149848 121.18375036 108.22140799 120.18359375 110.19140625 C119.48597863 111.58237694 118.78913869 112.97373665 118.09303284 114.36546326 C116.63217565 117.28102268 115.16479031 120.19316384 113.69213867 123.1027832 C111.82597388 126.79019726 109.97179405 130.48346311 108.12208462 134.1791544 C106.68140854 137.05602185 105.23637522 139.93068254 103.78990364 142.80463982 C103.10630828 144.16308537 102.42349213 145.52192339 101.74154472 146.88119698 C99.84654735 150.65296716 97.92788694 154.41078982 95.9683342 158.14946365 C95.30685608 159.41358229 94.65062131 160.68045494 93.99895096 161.94965744 C93.00354113 163.87602324 91.98227309 165.78642199 90.95336914 167.69506836 C90.36197647 168.81159286 89.7705838 169.92811737 89.16127014 171.07847595 C85.70022618 175.75698558 80.87198181 178.38576995 75.0546875 179.30859375 C69.29262264 179.64936103 65.82579247 178.23002785 61.04296875 175.09375 C55.81069073 169.73141536 53.9878645 162.28720237 52 155.25 C51.48013306 153.47627897 50.95930317 151.70283989 50.4375 149.9296875 C49.95820937 148.28649449 49.4790315 146.64326857 49 145 C45.65753514 133.6208733 41.87401259 123.03064823 31 117 C21.06381476 112.10080235 11.86477454 111.47871971 1.38677979 114.99990845 C-2.67949003 116.44700395 -6.71813936 117.95992624 -10.75 119.5 C-13.22301147 120.43650503 -15.6977291 121.3668316 -18.17877197 122.28186035 C-19.710783 122.84753447 -21.23835065 123.42545699 -22.76019287 124.01794434 C-28.18150612 126.02955122 -33.43965961 127.10650432 -39.13671875 125.3359375 C-44.70648433 121.88464699 -49.28378973 117.55280283 -51 111 C-51.70958213 103.67580743 -49.54775507 98.96104397 -46.25 92.5 C-45.75701416 91.50387695 -45.26402832 90.50775391 -44.75610352 89.48144531 C-43.71244233 87.37800335 -42.66158485 85.27811847 -41.60400391 83.18164062 C-40.03610265 80.07161183 -38.48969008 76.9518171 -36.94921875 73.828125 C-32.15399795 64.13193506 -27.24234881 54.50845322 -22.16015625 44.95996094 C-17.62029796 36.37386386 -13.28477958 27.68462638 -8.9375 19 C-8.5517984 18.23109436 -8.1660968 17.46218872 -7.76870728 16.66998291 C-6.66509399 14.46864212 -5.56443924 12.26584999 -4.46484375 10.0625 C-4.12989899 9.39459442 -3.79495422 8.72668884 -3.44985962 8.0385437 C-2.12760349 5.3806884 -0.94030117 2.8209035 0 0 Z " fill="#FB4654" transform="translate(119,318)"/>
<path d="M0 0 C3.58564635 0.64541634 4.54474768 1.72093252 6.74658203 4.51391602 C9.66877445 8.85683429 11.84875006 13.60979073 14.125 18.3125 C14.63289063 19.34632813 15.14078125 20.38015625 15.6640625 21.4453125 C17.62627117 25.4401681 19.58634953 29.43547748 21.50561523 33.45117188 C21.93559814 34.33869141 22.36558105 35.22621094 22.80859375 36.140625 C23.18298584 36.9234082 23.55737793 37.70619141 23.94311523 38.51269531 C26.47699204 42.90733065 30.50057031 45.6130542 35.125 47.5625 C37.45894398 48.03485839 39.80856012 48.43192854 42.1640625 48.78125 C42.84495941 48.88465698 43.52585632 48.98806396 44.22738647 49.09460449 C46.40068709 49.42363182 48.57520079 49.74354232 50.75 50.0625 C66.92166435 52.4694962 66.92166435 52.4694962 72.9609375 53.53125 C73.70649902 53.65951172 74.45206055 53.78777344 75.22021484 53.91992188 C77.55607198 54.70792187 78.61193169 55.62826835 80.125 57.5625 C80.81260904 61.06930611 80.86420236 63.39920398 78.90625 66.48046875 C74.98626611 71.11233651 70.41780727 75.05660734 65.88671875 79.07421875 C53.27398059 89.41514191 53.27398059 89.41514191 46.91503906 103.62084961 C46.81971024 112.5293282 48.67927783 121.05924067 50.34765625 129.77539062 C53.33466175 146.03323487 53.33466175 146.03323487 52.125 151.5625 C49.90908533 153.97738807 48.52597027 154.50851068 45.2746582 154.94628906 C41.48576791 154.48460892 39.06387333 153.27544509 35.73046875 151.421875 C35.13881424 151.09842102 34.54715973 150.77496704 33.93757629 150.44171143 C32.05581317 149.41034097 30.18398466 148.36238671 28.3125 147.3125 C25.85060867 145.94773847 23.38521997 144.5894205 20.91796875 143.234375 C20.3256395 142.90896729 19.73331024 142.58355957 19.12303162 142.24829102 C8.2558036 136.11490778 8.2558036 136.11490778 -3.875 135.5625 C-9.88093681 137.40445917 -15.43333418 140.3060612 -20.94921875 143.26953125 C-21.56778244 143.60117279 -22.18634613 143.93281433 -22.82365417 144.27450562 C-25.39052777 145.6552183 -27.95499009 147.03930899 -30.50610352 148.44897461 C-32.39523419 149.48932047 -34.29567246 150.50586202 -36.19921875 151.51953125 C-37.31385498 152.12772705 -38.42849121 152.73592285 -39.5769043 153.36254883 C-43.5126005 154.79447916 -45.8470492 154.58611882 -49.875 153.5625 C-51.875 151.5625 -51.875 151.5625 -52.15820312 149.47290039 C-52.15223449 141.45031376 -50.88037573 133.86457107 -49.375 126 C-45.66642589 109.95129177 -45.66642589 109.95129177 -50.18115234 94.81738281 C-53.45308634 90.46172089 -57.27481749 86.7131625 -61.1875 82.9375 C-62.00412109 82.13054687 -62.82074219 81.32359375 -63.66210938 80.4921875 C-68.09351085 76.14199896 -72.61772045 71.95970324 -77.36791992 67.95947266 C-79.76143417 65.7408288 -79.88168731 64.50231421 -80.25 61.1875 C-79.875 57.5625 -79.875 57.5625 -77.76586914 55.40844727 C-74.43419954 53.28102949 -72.15944531 52.83473263 -68.24609375 52.40234375 C-66.96283203 52.24830078 -65.67957031 52.09425781 -64.35742188 51.93554688 C-63.0092374 51.78922849 -61.66092862 51.64405109 -60.3125 51.5 C-42.46049488 50.21820948 -42.46049488 50.21820948 -26.875 42.5625 C-22.37000328 36.86478071 -19.40822293 30.76373122 -16.375 24.1875 C-5.64499066 1.10445469 -5.64499066 1.10445469 0 0 Z " fill="#FDDF76" transform="translate(255.875,110.4375)"/>
<path d="M0 0 C2.17232664 -0.00216009 4.34412218 -0.02027146 6.51635742 -0.03930664 C43.84728777 -0.19125817 77.29017794 14.68579348 104.2722168 40.18530273 C105.14491211 40.98194336 106.01760742 41.77858398 106.91674805 42.59936523 C130.50190554 64.93609522 146.33942966 98.46721072 147.39624023 131.00366211 C147.47605648 134.67392049 147.50305828 138.34334859 147.51245117 142.0144043 C147.52211041 144.28529161 147.553207 146.55525323 147.5847168 148.82592773 C147.6899723 163.05772754 145.47162905 176.18017547 140.6472168 189.62280273 C140.30166748 190.59652832 139.95611816 191.57025391 139.60009766 192.57348633 C133.24649797 209.92167494 123.88553922 225.52563537 111.26049805 239.04467773 C109.65362463 240.77467111 108.16776554 242.51976419 106.7097168 244.37280273 C85.75510973 268.55119551 50.09009934 284.28634229 18.68579102 287.01831055 C-22.82682306 289.8905165 -60.45684672 277.27337628 -92.0637207 250.36889648 C-98.70936919 244.56345518 -104.37003383 238.18317947 -109.7277832 231.18530273 C-110.27692383 230.52530273 -110.82606445 229.86530273 -111.3918457 229.18530273 C-113.7382394 226.24903353 -114.71917112 224.24175971 -115.2902832 220.49780273 C-114.7277832 217.18530273 -114.7277832 217.18530273 -113.1027832 214.74780273 C-109.97094828 212.68738502 -108.41233547 212.50854824 -104.7277832 213.18530273 C-102.04731744 215.30145992 -100.21195635 217.55907389 -98.13012695 220.25170898 C-88.60159565 232.53157841 -78.0143298 243.03947509 -64.7277832 251.18530273 C-63.80376709 251.75522949 -63.80376709 251.75522949 -62.86108398 252.33666992 C-36.31212496 268.53173519 -4.44419838 275.53200574 26.2722168 269.18530273 C27.35889648 269.02545898 28.44557617 268.86561523 29.56518555 268.70092773 C59.67250294 263.84173147 88.30144667 245.27691244 106.3840332 220.89404297 C108.42080567 218.03807385 110.36344891 215.12795036 112.2722168 212.18530273 C112.90772461 211.22237305 113.54323242 210.25944336 114.19799805 209.26733398 C122.40215597 196.07883178 127.00607772 181.2692461 130.2722168 166.18530273 C130.53591064 165.06285156 130.53591064 165.06285156 130.80493164 163.91772461 C136.30131818 131.77793457 128.1930285 97.40359014 109.9440918 70.66967773 C107.80638947 67.7546291 105.59621113 64.95352961 103.2722168 62.18530273 C102.55420898 61.32807617 101.83620117 60.47084961 101.09643555 59.58764648 C84.71251754 40.75923628 64.80518919 28.0878064 41.0222168 20.81030273 C40.24338135 20.57150391 39.4645459 20.33270508 38.66210938 20.08666992 C26.82562616 16.67768382 15.10796606 15.84252832 2.8347168 15.87280273 C1.53211914 15.85668945 0.22952148 15.84057617 -1.11254883 15.82397461 C-10.02125769 15.81954021 -18.1039296 17.00532489 -26.7277832 19.18530273 C-27.87174561 19.4544751 -29.01570801 19.72364746 -30.19433594 20.00097656 C-52.5580389 25.39570627 -71.56580901 38.24842567 -87.7277832 54.18530273 C-88.59145508 55.03608398 -89.45512695 55.88686523 -90.3449707 56.76342773 C-115.26342902 82.6910448 -123.56167544 116.20871163 -123.12942505 151.12049866 C-122.89805972 162.7224259 -121.3101278 173.62629129 -117.08325195 184.47436523 C-115.64287642 188.41775646 -115.44092949 190.23282347 -116.7277832 194.18530273 C-117.7902832 196.06030273 -117.7902832 196.06030273 -119.7277832 197.18530273 C-122.47634801 197.65009136 -125.01598672 197.87965385 -127.7277832 197.18530273 C-139.75541928 184.98078966 -138.99897805 158.67393477 -139.0402832 142.93530273 C-139.04395905 142.26628937 -139.04763489 141.597276 -139.05142212 140.9079895 C-139.08885324 127.85533901 -138.06184144 114.94678242 -134.1652832 102.43530273 C-133.9084375 101.60168213 -133.6515918 100.76806152 -133.38696289 99.90917969 C-128.49781125 84.71421102 -121.11134711 71.04618735 -111.7277832 58.18530273 C-111.11805664 57.33194336 -110.50833008 56.47858398 -109.88012695 55.59936523 C-87.67417568 26.21918355 -55.59152025 7.88274761 -19.7277832 1.18530273 C-18.80763428 1.00878174 -17.88748535 0.83226074 -16.93945312 0.65039062 C-11.3233568 -0.16288672 -5.66374442 -0.00062784 0 0 Z " fill="#040301" transform="translate(251.727783203125,44.814697265625)"/>
<path d="M0 0 C4.61929518 3.9271295 7.01919705 8.30251785 9.6875 13.625 C10.55592316 15.31253418 11.42441489 17.00003308 12.29296875 18.6875 C12.73560059 19.55632812 13.17823242 20.42515625 13.63427734 21.3203125 C15.90051435 25.76690124 18.19588522 30.19795013 20.5 34.625 C20.92112061 35.44822754 21.34224121 36.27145508 21.77612305 37.11962891 C22.16968994 37.87679199 22.56325684 38.63395508 22.96875 39.4140625 C23.31357422 40.0838916 23.65839844 40.7537207 24.01367188 41.44384766 C24.92486316 43.17745081 24.92486316 43.17745081 27 44 C28.36759979 44.25186464 29.74307468 44.46181375 31.12109375 44.6484375 C31.96518799 44.76501709 32.80928223 44.88159668 33.67895508 45.00170898 C34.5892749 45.12489502 35.49959473 45.24808105 36.4375 45.375 C38.34645024 45.64385 40.25530247 45.91339663 42.1640625 46.18359375 C45.0158295 46.58443123 47.86780194 46.98214117 50.72167969 47.36767578 C53.25393411 47.71152131 55.78316665 48.07287029 58.3125 48.4375 C59.06909912 48.53530762 59.82569824 48.63311523 60.60522461 48.73388672 C66.86121354 49.65910247 72.5200725 51.50595526 77.05859375 56.0703125 C77.51363281 56.74835938 77.96867188 57.42640625 78.4375 58.125 C78.91058594 58.80820313 79.38367188 59.49140625 79.87109375 60.1953125 C82.12827661 63.80368095 82.22553611 66.35003847 82.3125 70.625 C82.36857422 72.40777344 82.36857422 72.40777344 82.42578125 74.2265625 C81.4108248 83.22149765 76.06222828 88.49727196 69.75 94.5625 C69.02425781 95.27857422 68.29851562 95.99464844 67.55078125 96.73242188 C63.38633374 100.81150192 59.11007631 104.72505005 54.68652344 108.52124023 C52.38750696 110.53703971 50.57923273 112.36794544 49 115 C48.71090885 120.09680273 49.36528861 124.83679639 50.375 129.8125 C50.51075439 130.51826172 50.64650879 131.22402344 50.78637695 131.95117188 C51.35397125 134.88077747 51.95143011 137.79659517 52.64453125 140.69921875 C54.63296564 149.12503068 56.0855781 160.48336647 52.4375 168.625 C48.98514753 174.15855786 44.13749003 177.91381219 38 180 C26.05367196 182.4786599 15.14131904 174.95174422 5.1875 169.27734375 C4.39351807 168.82601074 3.59953613 168.37467773 2.78149414 167.90966797 C1.25883463 167.03454713 -0.25563895 166.14496868 -1.76000977 165.23876953 C-6.337757 162.57092237 -10.58747004 160.44306506 -16 161 C-19.24471771 162.11398928 -22.10340849 163.71615245 -25.0625 165.4375 C-25.88234375 165.89181396 -26.7021875 166.34612793 -27.546875 166.81420898 C-29.22458965 167.74426766 -30.89797654 168.6821769 -32.56689453 169.62792969 C-36.17994706 171.66539258 -39.83846231 173.61402098 -43.5 175.5625 C-44.11625244 175.89628662 -44.73250488 176.23007324 -45.36743164 176.57397461 C-52.09636258 180.19870915 -58.77124102 181.48118428 -66.2890625 179.3515625 C-72.12317748 176.71607427 -76.2992399 172.41899376 -79.140625 166.70703125 C-83.28244653 153.66029343 -79.21164139 134.63492417 -75 122 C-74.48257582 118.70142086 -74.28087958 116.21029324 -76.03515625 113.2578125 C-81.16993952 107.13809638 -87.40366001 101.85919752 -93.28125 96.46484375 C-108.057052 82.80009193 -108.057052 82.80009193 -108.625 71.0625 C-108.40978919 64.36227 -106.94262436 59.638321 -102 55 C-95.70834148 49.84556614 -89.28800035 48.81118388 -81.375 47.8125 C-80.22306152 47.65088379 -79.07112305 47.48926758 -77.88427734 47.32275391 C-74.59165847 46.86352389 -71.2968579 46.42758421 -68 46 C-65.20751624 45.63053459 -62.41611133 45.25480312 -59.625 44.875 C-58.09746094 44.68550781 -58.09746094 44.68550781 -56.5390625 44.4921875 C-53.75850326 43.95318679 -52.33404811 43.62332043 -50 42 C-48.34342668 39.49621101 -47.09555906 36.8152859 -45.8125 34.10546875 C-45.42811768 33.3210994 -45.04373535 32.53673004 -44.64770508 31.72859192 C-43.42027417 29.22031816 -42.20914701 26.7046324 -41 24.1875 C-39.7888715 21.68214051 -38.5742277 19.17865167 -37.35229492 16.67854309 C-36.59308499 15.1236327 -35.84031246 13.56555751 -35.0949707 12.00395203 C-31.28688795 4.17286935 -27.32531655 -0.55149037 -19.0625 -3.75 C-11.76251781 -4.63484633 -6.30802098 -3.95242248 0 0 Z M-19.58813477 14.87792969 C-22.73155317 19.60256963 -25.08862861 24.7792235 -27.5625 29.875 C-28.12646484 31.02097656 -28.69042969 32.16695312 -29.27148438 33.34765625 C-32.25752246 39.41138752 -32.25752246 39.41138752 -35.18920898 45.50146484 C-37.888083 51.1091324 -40.48972997 54.38127444 -46.26171875 57.04296875 C-49.44755114 58.15641944 -52.55631224 58.81656159 -55.875 59.4375 C-56.54829346 59.56455322 -57.22158691 59.69160645 -57.9152832 59.82250977 C-62.25942016 60.60843489 -66.60279434 61.21190217 -70.98828125 61.71875 C-72.0138916 61.83935791 -73.03950195 61.95996582 -74.09619141 62.08422852 C-76.1267159 62.31627471 -78.15901326 62.5333886 -80.19287109 62.73413086 C-85.5070371 63.33911001 -89.26744022 63.7998962 -93 68 C-94.00234186 71.32594755 -94.00234186 71.32594755 -93 75 C-89.67998538 80.08002237 -85.02368654 83.91480128 -80.44921875 87.82421875 C-77.12796452 90.77467904 -73.9283315 93.83426658 -70.75 96.9375 C-69.84592407 97.79722412 -69.84592407 97.79722412 -68.92358398 98.67431641 C-63.65089058 103.87572741 -59.84762813 108.97504368 -59.59375 116.59765625 C-59.93482579 124.56573483 -61.72724159 132.40035945 -63.22265625 140.21289062 C-65.51109829 151.06405233 -65.51109829 151.06405233 -65 162 C-63.25772203 163.8877497 -63.25772203 163.8877497 -61 165 C-55.16971133 164.89501281 -51.0020364 162.72742868 -46.0625 159.9375 C-44.57115709 159.12215118 -43.07894624 158.30838819 -41.5859375 157.49609375 C-40.83022461 157.08214355 -40.07451172 156.66819336 -39.29589844 156.24169922 C-35.62801861 154.25798624 -31.91395199 152.37078867 -28.1875 150.5 C-27.52435791 150.16218506 -26.86121582 149.82437012 -26.17797852 149.47631836 C-19.71804198 146.23756505 -13.16174059 144.51062408 -6.00146484 146.57666016 C-4.00912121 147.40325444 -2.10517403 148.32509888 -0.1875 149.3125 C0.52317627 149.65990234 1.23385254 150.00730469 1.96606445 150.36523438 C6.15916613 152.44842562 10.25615696 154.68421091 14.3359375 156.98046875 C15.22692139 157.4808667 16.11790527 157.98126465 17.03588867 158.49682617 C18.77322002 159.48170317 20.50295262 160.48013511 22.22387695 161.4934082 C28.20725141 164.96946146 28.20725141 164.96946146 35 165 C37.21339718 163.83784154 37.21339718 163.83784154 39 162 C40.7825842 153.85195312 38.03413731 144.45233085 36.5 136.4375 C32.13311896 113.55268289 32.13311896 113.55268289 37.33740234 105.22363281 C40.45203563 101.0579823 44.07265397 97.4758757 47.8125 93.875 C48.58142578 93.11574219 49.35035156 92.35648437 50.14257812 91.57421875 C54.41793946 87.38183911 58.79334564 83.36470081 63.37768555 79.51220703 C66.10065455 76.97404751 66.96666963 75.26188151 67.4375 71.5625 C67.33985068 67.97641026 67.33985068 67.97641026 65.109375 65.875 C60.78588367 63.26786955 56.77481651 62.95737799 51.8125 62.4375 C49.83703289 62.19569311 47.86177429 61.95217715 45.88671875 61.70703125 C44.89978027 61.58924316 43.9128418 61.47145508 42.89599609 61.35009766 C19.76178651 58.55339756 19.76178651 58.55339756 14 53 C9.09732055 46.70036984 5.74772403 39.65766055 2.4375 32.4375 C-2.55833098 20.94069827 -2.55833098 20.94069827 -10 11 C-14.8171148 10.14362404 -16.62068722 11.10574115 -19.58813477 14.87792969 Z " fill="#040301" transform="translate(269,100)"/>
<path d="M0 0 C0 0.66 0 1.32 0 2 C-0.60247559 2.27038086 -1.20495117 2.54076172 -1.82568359 2.81933594 C-21.2895978 11.63332328 -38.00292163 21.85733155 -54 36 C-55.04993595 36.86718982 -56.10202498 37.73177942 -57.15625 38.59375 C-60.88563556 41.74938393 -63.86201898 45.27170572 -67 49 C-67.76441406 49.8765625 -68.52882813 50.753125 -69.31640625 51.65625 C-96.54082568 83.35416557 -112.42507035 123.75341557 -112.31567383 165.59960938 C-112.31253052 168.10071162 -112.33600386 170.60060677 -112.36132812 173.1015625 C-112.42617638 189.66399084 -109.94706366 205.20589103 -105 221 C-104.78859375 221.80824219 -104.5771875 222.61648437 -104.359375 223.44921875 C-98.0688382 247.20002755 -83.86812632 269.59192607 -68 288 C-66.73542969 289.46759766 -66.73542969 289.46759766 -65.4453125 290.96484375 C-47.97407566 310.8294446 -24.74515977 326.67369925 0 336 C0 336.66 0 337.32 0 338 C-5.98127982 337.51934595 -11.44317511 336.55390468 -17.125 334.625 C-17.88143799 334.36879883 -18.63787598 334.11259766 -19.41723633 333.84863281 C-44.51931562 324.97449252 -65.62998963 311.09839137 -85 293 C-85.87527344 292.19046875 -86.75054687 291.3809375 -87.65234375 290.546875 C-117.57852011 261.86583367 -135.93956081 219.13598563 -137.2421875 177.87109375 C-138.13439568 127.48072757 -121.6345196 82.90448562 -86.67138672 46.38769531 C-66.23724979 25.55684431 -30.45742567 0 0 0 Z " fill="#FCCF5A" transform="translate(220,19)"/>
<path d="M0 0 C26.0316922 3.26098952 48.25351116 17.37172277 67 35 C67.59039062 35.5259375 68.18078125 36.051875 68.7890625 36.59375 C84.2563186 50.96143813 95.87473114 72.69355504 101 93 C101.31582031 94.24136719 101.63164062 95.48273438 101.95703125 96.76171875 C104.21420273 106.95987224 104.31259405 117.28970817 104.375 127.6875 C104.38294586 128.38220398 104.39089172 129.07690796 104.39907837 129.79266357 C104.51723392 143.25048104 102.65519939 155.92789552 97.75 168.5625 C97.44626465 169.36059082 97.1425293 170.15868164 96.82958984 170.98095703 C89.92733491 188.74741107 80.14678027 203.35275665 67 217 C66.29488281 217.77988281 65.58976562 218.55976563 64.86328125 219.36328125 C49.92402236 235.38385793 25.61801768 248.56856862 4 252 C1.75390625 251.5390625 1.75390625 251.5390625 0 251 C1.74023438 250.07380859 1.74023438 250.07380859 3.515625 249.12890625 C17.08167896 241.81459067 28.75125189 233.61476069 40 223 C41.21623047 221.89785156 41.21623047 221.89785156 42.45703125 220.7734375 C66.51830126 198.11416275 79.35677812 163.94871287 80.92797852 131.421875 C82.06272975 93.20191484 68.05553712 58.65750504 42 31 C41.40058594 30.33613281 40.80117188 29.67226562 40.18359375 28.98828125 C29.51995873 17.63369796 14.59084767 7.45122747 0 2 C0 1.34 0 0.68 0 0 Z " fill="#FCBF64" transform="translate(280,62)"/>
<path d="M0 0 C5.445 10.89 5.445 10.89 11 22 C-3.19277926 36.19277926 -18.38593005 47.62353589 -36.13720703 57.01367188 C-37.87972028 57.93631323 -39.61028632 58.88141988 -41.33984375 59.828125 C-57.16352413 68.1821251 -74.61985696 73.86457095 -92 78 C-92.71591309 78.17096191 -93.43182617 78.34192383 -94.16943359 78.51806641 C-102.06957519 80.25184148 -110.08534437 80.89747949 -118.125 81.625 C-119.57296159 81.75993549 -121.02087874 81.89534873 -122.46875 82.03125 C-125.97867216 82.35966887 -129.48914912 82.68164372 -133 83 C-135.00645249 79.04490505 -137.00406136 75.08540979 -139 71.125 C-139.57234375 69.99707031 -140.1446875 68.86914062 -140.734375 67.70703125 C-141.27578125 66.63066406 -141.8171875 65.55429687 -142.375 64.4453125 C-142.87773437 63.45031738 -143.38046875 62.45532227 -143.8984375 61.43017578 C-145 59 -145 59 -145 57 C-144.11965088 56.95512451 -143.23930176 56.91024902 -142.33227539 56.86401367 C-118.99968566 55.80000914 -118.99968566 55.80000914 -96 52 C-94.78699219 51.72414063 -93.57398438 51.44828125 -92.32421875 51.1640625 C-59.7094012 43.10506851 -28.28289314 26.46705477 -5.0625 1.9375 C-3 0 -3 0 0 0 Z " fill="#FB4654" transform="translate(393,319)"/>
</svg>
