<svg xmlns="http://www.w3.org/2000/svg" xmlns:xlink="http://www.w3.org/1999/xlink" width="60" zoomAndPan="magnify" viewBox="0 0 45 44.999999" height="60" preserveAspectRatio="xMidYMid meet" version="1.0"><path stroke-linecap="butt" transform="matrix(0.9375, 0, 0, 0.9375, 0.0000005, 0)" fill="none" stroke-linejoin="miter" d="M 17.000001 30.000002 C 13 26.700002 11 22.300001 11 18.000001 L 11 16.000001 " stroke="#3f4a5a" stroke-width="2" stroke-opacity="1" stroke-miterlimit="10"/><path fill="#81cf9b" d="M 15 13.125 C 17.8125 13.125 19.21875 13.875 20.625 15 C 19.6875 11.25 17.15625 9.375 14.0625 9.375 C 14.0625 8.4375 15.9375 7.5 17.8125 7.5 C 16.875 6.5625 15 6.5625 14.0625 6.5625 C 12.1875 6.5625 10.3125 7.5 10.3125 8.4375 C 10.3125 7.5 8.4375 6.5625 6.5625 6.5625 C 5.625 6.5625 3.75 6.5625 2.8125 7.5 C 4.6875 7.5 6.5625 8.4375 6.5625 9.375 C 3.46875 9.375 0.9375 11.25 0 15 C 1.40625 13.875 2.8125 13.125 5.625 13.125 C 2.8125 15 2.8125 17.8125 2.8125 21.5625 C 3.75 19.6875 6.5625 15.75 9.375 15 C 9.84375 15 10.125 15 10.3125 15 C 10.5 15 10.78125 15 11.25 15 C 14.0625 15.75 16.875 19.6875 17.8125 21.5625 C 17.8125 17.8125 17.8125 15 15 13.125 Z M 15 13.125 " fill-opacity="1" fill-rule="nonzero"/><path stroke-linecap="butt" transform="matrix(0.9375, 0, 0, 0.9375, 0.0000005, 0)" fill="none" stroke-linejoin="miter" d="M 27.000001 29.000002 C 32.300002 24.000002 35.000002 17.500001 35.000002 11.000001 L 35.000002 10.000001 " stroke="#3f4a5a" stroke-width="2" stroke-opacity="1" stroke-miterlimit="10"/><path fill="#81cf9b" d="M 37.5 6.5625 C 39.375 6.5625 43.40625 7.125 45 8.4375 C 43.78125 4.78125 41.15625 2.8125 37.5 2.8125 C 37.5 1.875 38.4375 0.9375 41.25 0.9375 C 40.3125 0 38.4375 0 37.5 0 C 35.625 0 33.75 0.9375 32.8125 1.875 C 31.875 0.9375 30 0 28.125 0 C 27.1875 0 25.3125 0 24.375 0.9375 C 27.1875 0.9375 28.125 1.875 28.125 2.8125 C 24.46875 2.8125 21.84375 4.78125 20.625 8.4375 C 22.21875 7.125 26.25 6.5625 28.125 6.5625 C 24.46875 9 24.375 13.125 24.375 16.875 C 25.5 14.625 28.125 10.3125 31.875 9.375 C 32.8125 9.375 32.8125 9.375 33.75 9.375 C 37.5 10.3125 40.125 14.625 41.25 16.875 C 41.25 13.125 41.15625 9 37.5 6.5625 Z M 37.5 6.5625 " fill-opacity="1" fill-rule="nonzero"/><path fill="#fad97f" d="M 40.3125 35.625 C 40.3125 36.242188 40.199219 36.851562 39.96875 37.453125 C 39.742188 38.058594 39.402344 38.644531 38.957031 39.210938 C 38.507812 39.78125 37.960938 40.320312 37.308594 40.832031 C 36.660156 41.34375 35.921875 41.820312 35.09375 42.253906 C 34.269531 42.6875 33.367188 43.078125 32.394531 43.421875 C 31.421875 43.761719 30.398438 44.050781 29.316406 44.285156 C 28.234375 44.523438 27.121094 44.699219 25.976562 44.820312 C 24.828125 44.941406 23.667969 45 22.5 45 C 21.332031 45 20.171875 44.941406 19.023438 44.820312 C 17.878906 44.699219 16.765625 44.523438 15.683594 44.285156 C 14.601562 44.050781 13.578125 43.761719 12.605469 43.421875 C 11.632812 43.078125 10.730469 42.6875 9.90625 42.253906 C 9.078125 41.820312 8.339844 41.34375 7.6875 40.832031 C 7.039062 40.320312 6.492188 39.78125 6.042969 39.210938 C 5.597656 38.644531 5.257812 38.058594 5.03125 37.453125 C 4.800781 36.851562 4.6875 36.242188 4.6875 35.625 C 4.6875 35.007812 4.800781 34.398438 5.03125 33.796875 C 5.257812 33.191406 5.597656 32.605469 6.042969 32.039062 C 6.492188 31.46875 7.039062 30.929688 7.6875 30.417969 C 8.339844 29.90625 9.078125 29.429688 9.90625 28.996094 C 10.730469 28.5625 11.632812 28.171875 12.605469 27.828125 C 13.578125 27.488281 14.601562 27.199219 15.683594 26.964844 C 16.765625 26.726562 17.878906 26.550781 19.023438 26.429688 C 20.171875 26.308594 21.332031 26.25 22.5 26.25 C 23.667969 26.25 24.828125 26.308594 25.976562 26.429688 C 27.121094 26.550781 28.234375 26.726562 29.316406 26.964844 C 30.398438 27.199219 31.421875 27.488281 32.394531 27.828125 C 33.367188 28.171875 34.269531 28.5625 35.09375 28.996094 C 35.921875 29.429688 36.660156 29.90625 37.308594 30.417969 C 37.960938 30.929688 38.507812 31.46875 38.957031 32.039062 C 39.402344 32.605469 39.742188 33.191406 39.96875 33.796875 C 40.199219 34.398438 40.3125 35.007812 40.3125 35.625 Z M 40.3125 35.625 " fill-opacity="1" fill-rule="nonzero"/><path fill="#6bc7d9" d="M 45 33.75 L 45 45 L 0 45 L 0 33.75 C 1.03125 33.75 2.0625 34.03125 2.8125 34.6875 C 3.5625 35.34375 4.59375 35.625 5.625 35.625 C 6.65625 35.625 7.6875 35.34375 8.4375 34.6875 C 9.1875 34.03125 10.21875 33.75 11.25 33.75 C 12.28125 33.75 13.3125 34.03125 14.0625 34.6875 C 14.8125 35.34375 15.84375 35.625 16.875 35.625 C 17.90625 35.625 18.9375 35.34375 19.6875 34.6875 C 20.4375 34.03125 21.46875 33.75 22.5 33.75 C 23.53125 33.75 24.5625 34.03125 25.3125 34.6875 C 26.0625 35.34375 27.09375 35.625 28.125 35.625 C 29.15625 35.625 30.1875 35.34375 30.9375 34.6875 C 31.6875 34.03125 32.71875 33.75 33.75 33.75 C 34.78125 33.75 35.8125 34.03125 36.5625 34.6875 C 37.3125 35.34375 38.34375 35.625 39.375 35.625 C 40.40625 35.625 41.4375 35.34375 42.1875 34.6875 C 42.9375 34.03125 43.96875 33.75 45 33.75 Z M 45 33.75 " fill-opacity="1" fill-rule="nonzero"/><path fill="#9de8f7" d="M 45 38.4375 L 45 45 L 0 45 L 0 38.4375 C 1.03125 38.4375 2.0625 38.71875 2.8125 39.375 C 3.5625 40.03125 4.59375 40.3125 5.625 40.3125 C 6.65625 40.3125 7.6875 40.03125 8.4375 39.375 C 9.1875 38.71875 10.21875 38.4375 11.25 38.4375 C 12.28125 38.4375 13.3125 38.71875 14.0625 39.375 C 14.8125 40.03125 15.84375 40.3125 16.875 40.3125 C 17.90625 40.3125 18.9375 40.03125 19.6875 39.375 C 20.4375 38.71875 21.46875 38.4375 22.5 38.4375 C 23.53125 38.4375 24.5625 38.71875 25.3125 39.375 C 26.0625 40.03125 27.09375 40.3125 28.125 40.3125 C 29.15625 40.3125 30.1875 40.03125 30.9375 39.375 C 31.6875 38.71875 32.71875 38.4375 33.75 38.4375 C 34.78125 38.4375 35.8125 38.71875 36.5625 39.375 C 37.3125 40.03125 38.34375 40.3125 39.375 40.3125 C 40.40625 40.3125 41.4375 40.03125 42.1875 39.375 C 42.9375 38.71875 43.96875 38.4375 45 38.4375 Z M 45 38.4375 " fill-opacity="1" fill-rule="nonzero"/></svg>