<svg xmlns="http://www.w3.org/2000/svg" xmlns:xlink="http://www.w3.org/1999/xlink" width="100" zoomAndPan="magnify" viewBox="0 0 75 74.999997" height="100" preserveAspectRatio="xMidYMid meet" version="1.0"><defs><clipPath id="b6c91d7ac5"><path d="M 15 7.5 L 59 7.5 L 59 34 L 15 34 Z M 15 7.5 " clip-rule="nonzero"/></clipPath></defs><path fill="#ff956b" d="M 24.027344 28.527344 C 19.167969 29.128906 14.335938 29.945312 9.546875 30.96875 C 11.597656 42.21875 14.363281 54.78125 18.046875 65.453125 C 12 65.453125 8.601562 65.328125 3.984375 65.453125 C 2.71875 49.90625 1.632812 34.371094 0.550781 18.835938 C 7.007812 15.863281 13.683594 13.804688 20.933594 12.21875 C 22.167969 17.5 23.292969 22.804688 24.027344 28.527344 Z M 24.027344 28.527344 " fill-opacity="1" fill-rule="nonzero"/><path fill="#67c9c1" d="M 14.699219 61.671875 C 13.945312 52.316406 13.40625 42.941406 13.078125 33.558594 C 9.925781 33.699219 7.203125 34.070312 4.519531 34.640625 C 4.867188 44.007812 5.496094 53.347656 6.488281 62.59375 C 9.238281 62.515625 11.980469 62.261719 14.699219 61.671875 Z M 14.699219 61.671875 " fill-opacity="1" fill-rule="nonzero"/><path fill="#ff956b" d="M 50.863281 28.527344 C 55.722656 29.128906 60.558594 29.945312 65.34375 30.96875 C 63.292969 42.21875 61.496094 54.78125 57.8125 65.453125 C 63.328125 65.605469 66.292969 65.328125 70.910156 65.453125 C 72.175781 49.910156 73.257812 34.375 74.34375 18.835938 C 67.886719 15.863281 61.207031 13.804688 53.957031 12.21875 C 52.726562 17.5 51.601562 22.804688 50.863281 28.527344 Z M 50.863281 28.527344 " fill-opacity="1" fill-rule="nonzero"/><path fill="#67c9c1" d="M 60.191406 61.671875 C 60.945312 52.316406 61.484375 42.941406 61.8125 33.558594 C 64.96875 33.699219 67.691406 34.070312 70.371094 34.640625 C 70.023438 44.007812 69.398438 53.347656 68.402344 62.59375 C 65.65625 62.515625 62.914062 62.261719 60.191406 61.671875 Z M 60.191406 61.671875 " fill-opacity="1" fill-rule="nonzero"/><path fill="#67c9c1" d="M 57.78125 31.082031 C 57.808594 23.460938 57.839844 15.839844 57.867188 8.222656 C 44.050781 7.664062 29.953125 8.378906 15.949219 9.925781 C 16.609375 17.402344 17.21875 25.242188 17.914062 32.707031 C 26.773438 32.707031 50.601562 31.714844 57.78125 31.082031 Z M 57.78125 31.082031 " fill-opacity="1" fill-rule="nonzero"/><path fill="#dcfcfb" d="M 56.722656 9.515625 C 56.703125 14.511719 56.683594 19.503906 56.664062 24.496094 C 56.660156 26.3125 56.652344 28.128906 56.644531 29.945312 C 49.929688 30.511719 27.640625 31.402344 19.355469 31.402344 C 19.175781 29.554688 19.003906 27.6875 18.832031 25.804688 C 18.386719 20.878906 17.964844 15.871094 17.515625 11.035156 C 30.617188 9.652344 43.804688 9.015625 56.722656 9.515625 Z M 56.722656 9.515625 " fill-opacity="1" fill-rule="nonzero"/><path fill="#3db3a9" d="M 56.664062 24.496094 C 56.660156 26.3125 56.652344 28.128906 56.644531 29.945312 C 49.929688 30.511719 27.640625 31.402344 19.355469 31.402344 C 19.175781 29.554688 19.003906 27.6875 18.832031 25.804688 C 31.445312 25.367188 44.050781 24.933594 56.664062 24.496094 Z M 56.664062 24.496094 " fill-opacity="1" fill-rule="nonzero"/><path fill="#dcfcfb" d="M 11.789062 59.609375 C 10.589844 59.789062 9.375 59.773438 8.167969 59.839844 C 7.714844 59.890625 7.777344 60.570312 8.234375 60.535156 C 9.492188 60.449219 10.859375 60.515625 12.078125 60.253906 C 12.460938 60.042969 12.199219 59.492188 11.789062 59.609375 Z M 11.789062 59.609375 " fill-opacity="1" fill-rule="nonzero"/><path fill="#dcfcfb" d="M 11.871094 57.519531 C 11.796875 57.363281 11.597656 57.300781 11.441406 57.359375 C 11.269531 57.441406 11.15625 57.621094 11.027344 57.753906 C 10.695312 58.164062 10.410156 58.605469 10.101562 59.03125 C 9.910156 58.648438 9.585938 58.101562 9.164062 57.980469 C 8.660156 57.761719 8.097656 58.078125 7.871094 58.542969 C 7.628906 59.039062 7.660156 59.636719 7.804688 60.15625 C 7.898438 60.675781 8.640625 60.503906 8.488281 60.003906 C 8.191406 58.96875 8.621094 58.480469 8.960938 58.644531 C 9.269531 58.867188 9.347656 59.097656 9.535156 59.460938 C 9.625 59.632812 9.683594 59.84375 9.867188 59.933594 C 10.144531 60.074219 10.394531 59.839844 10.535156 59.621094 C 10.738281 59.34375 10.933594 59.0625 11.132812 58.78125 C 11.292969 58.554688 11.453125 58.324219 11.636719 58.117188 C 11.789062 57.957031 12.015625 57.761719 11.871094 57.519531 Z M 11.871094 57.519531 " fill-opacity="1" fill-rule="nonzero"/><path fill="#dcfcfb" d="M 11.863281 54.875 C 11.316406 53.824219 9.898438 53.859375 8.878906 53.992188 C 8.621094 54.023438 8.359375 54.035156 8.097656 54.054688 C 8.003906 54.0625 7.917969 54.105469 7.859375 54.175781 C 7.714844 54.347656 7.777344 54.625 7.980469 54.71875 C 8.113281 54.78125 8.261719 54.730469 8.398438 54.734375 C 8.761719 54.71875 9.117188 54.652344 9.480469 54.625 C 10.28125 54.5625 11.121094 54.78125 11.242188 55.203125 C 11.414062 55.5625 11.0625 56.078125 10.695312 56.257812 C 10.324219 56.4375 10.351562 56.40625 10.035156 56.46875 C 9.703125 56.527344 9.371094 56.574219 9.035156 56.574219 C 8.804688 56.578125 8.765625 56.558594 8.382812 56.554688 C 8.277344 56.558594 8.15625 56.542969 8.0625 56.601562 C 7.726562 56.761719 7.886719 57.300781 8.257812 57.257812 C 8.8125 57.234375 9.160156 57.324219 9.851562 57.207031 C 10.347656 57.132812 10.855469 57.03125 11.265625 56.722656 C 11.828125 56.316406 12.179688 55.539062 11.863281 54.875 Z M 11.863281 54.875 " fill-opacity="1" fill-rule="nonzero"/><path fill="#dcfcfb" d="M 11.617188 52.511719 C 11.175781 52.492188 10.734375 52.433594 10.292969 52.449219 C 9.925781 52.464844 9.472656 52.511719 9.117188 52.53125 C 9.152344 52.496094 9.191406 52.457031 9.226562 52.421875 C 9.605469 52.066406 10.609375 51.324219 11.199219 50.742188 C 11.34375 50.582031 11.527344 50.453125 11.636719 50.265625 C 11.714844 50.09375 11.65625 49.878906 11.492188 49.78125 C 11.324219 49.671875 11.117188 49.699219 10.929688 49.691406 C 10.59375 49.695312 10.257812 49.699219 9.925781 49.714844 C 9.433594 49.753906 8.941406 49.789062 8.449219 49.804688 C 8.246094 49.828125 7.988281 49.789062 7.839844 49.960938 C 7.695312 50.132812 7.757812 50.410156 7.960938 50.503906 C 8.074219 50.558594 8.199219 50.523438 8.316406 50.511719 C 8.738281 50.484375 9.164062 50.472656 9.585938 50.441406 C 9.835938 50.414062 10.222656 50.398438 10.554688 50.390625 C 10.082031 50.820312 9.535156 51.257812 8.945312 51.730469 C 8.734375 51.917969 8.542969 52.125 8.34375 52.324219 C 8.21875 52.453125 8.066406 52.578125 8.027344 52.757812 C 7.984375 53.105469 8.28125 53.21875 8.574219 53.222656 C 9.128906 53.273438 9.675781 53.171875 10.230469 53.152344 C 10.675781 53.105469 11.019531 53.203125 11.632812 53.191406 C 12 53.125 11.980469 52.570312 11.617188 52.511719 Z M 11.617188 52.511719 " fill-opacity="1" fill-rule="nonzero"/><path fill="#dcfcfb" d="M 11.023438 45.4375 C 10.539062 45.320312 10.039062 45.292969 9.542969 45.292969 C 9.035156 45.300781 8.523438 45.289062 8.015625 45.308594 C 7.839844 45.328125 7.625 45.292969 7.5 45.449219 C 7.355469 45.621094 7.421875 45.898438 7.621094 45.988281 C 7.777344 46.058594 7.953125 46 8.117188 46 C 8.59375 45.988281 9.070312 45.996094 9.542969 45.988281 C 9.910156 45.988281 10.1875 45.992188 10.539062 46.054688 C 10.378906 46.210938 10.222656 46.371094 10.058594 46.523438 C 9.574219 46.957031 9.070312 47.363281 8.597656 47.804688 C 8.394531 47.992188 8.1875 48.175781 7.988281 48.375 C 7.882812 48.488281 7.769531 48.609375 7.738281 48.765625 C 7.683594 49.113281 8.015625 49.253906 8.308594 49.261719 C 8.777344 49.320312 9.25 49.261719 9.71875 49.234375 C 10.1875 49.214844 10.65625 49.199219 11.121094 49.152344 C 11.277344 49.140625 11.457031 49.148438 11.566406 49.011719 C 11.765625 48.785156 11.5625 48.402344 11.265625 48.441406 C 10.621094 48.503906 9.976562 48.523438 9.332031 48.5625 C 9.058594 48.578125 8.90625 48.59375 8.761719 48.59375 C 9.398438 47.984375 10.25 47.339844 10.964844 46.609375 C 11.136719 46.441406 11.125 46.464844 11.386719 46.214844 C 11.449219 46.160156 11.507812 46.09375 11.527344 46.011719 C 11.636719 45.671875 11.3125 45.484375 11.023438 45.4375 Z M 11.023438 45.4375 " fill-opacity="1" fill-rule="nonzero"/><path fill="#dcfcfb" d="M 11.09375 43.871094 C 10.257812 43.875 9.421875 43.902344 8.585938 43.957031 C 8.335938 43.972656 8.085938 43.984375 7.832031 43.988281 C 7.722656 43.992188 7.605469 43.96875 7.511719 44.03125 C 7.175781 44.191406 7.339844 44.726562 7.707031 44.683594 C 8.5 44.683594 9.292969 44.609375 10.082031 44.582031 C 10.363281 44.570312 10.636719 44.578125 10.917969 44.574219 C 11.039062 44.566406 11.179688 44.59375 11.289062 44.523438 C 11.625 44.363281 11.460938 43.832031 11.09375 43.871094 Z M 11.09375 43.871094 " fill-opacity="1" fill-rule="nonzero"/><path fill="#dcfcfb" d="M 11.253906 42.621094 C 10.167969 42.703125 9.199219 42.796875 8.300781 42.714844 C 8.902344 42.171875 9.550781 41.617188 10.210938 40.910156 C 10.421875 40.679688 10.625 40.441406 10.820312 40.199219 C 10.9375 40.054688 11.109375 39.910156 11.085938 39.707031 C 11.042969 39.308594 10.5625 39.304688 10.25 39.304688 C 9.996094 39.304688 9.746094 39.292969 9.496094 39.289062 C 8.785156 39.304688 8.519531 39.269531 7.898438 39.261719 C 7.890625 39.261719 7.878906 39.261719 7.875 39.261719 C 7.835938 39.257812 7.792969 39.257812 7.765625 39.257812 C 7.578125 39.238281 7.339844 39.207031 7.238281 39.40625 C 7.136719 39.546875 7.179688 39.75 7.308594 39.859375 C 7.398438 39.941406 7.519531 39.941406 7.632812 39.945312 C 7.832031 39.953125 8.035156 39.960938 8.238281 39.964844 C 8.597656 39.984375 9.410156 39.984375 10.078125 39.996094 C 9.269531 40.941406 8.6875 41.4375 7.847656 42.179688 C 7.664062 42.359375 7.433594 42.511719 7.3125 42.746094 C 7.226562 42.9375 7.308594 43.183594 7.5 43.269531 C 8.222656 43.488281 9.007812 43.441406 9.757812 43.425781 C 10.199219 43.398438 10.640625 43.371094 11.082031 43.332031 C 11.246094 43.316406 11.441406 43.335938 11.550781 43.1875 C 11.753906 42.964844 11.550781 42.582031 11.253906 42.621094 Z M 11.253906 42.621094 " fill-opacity="1" fill-rule="nonzero"/><path fill="#dcfcfb" d="M 10.761719 35.832031 C 10.574219 35.664062 10.308594 35.613281 10.0625 35.609375 C 9.542969 35.609375 9.410156 35.617188 9.023438 35.609375 C 8.683594 35.640625 8.625 35.972656 8.667969 36.253906 C 8.699219 36.457031 8.703125 36.671875 8.78125 36.859375 C 8.878906 37.082031 9.210938 37.105469 9.355469 36.921875 C 9.5 36.753906 9.402344 36.539062 9.382812 36.347656 C 9.382812 36.335938 9.378906 36.324219 9.378906 36.3125 C 9.507812 36.3125 9.949219 36.308594 10.015625 36.304688 C 10.097656 36.304688 10.179688 36.316406 10.257812 36.335938 C 10.269531 36.339844 10.28125 36.34375 10.292969 36.347656 C 10.292969 36.351562 10.292969 36.351562 10.296875 36.351562 C 10.304688 36.375 10.316406 36.394531 10.324219 36.414062 C 10.359375 36.644531 10.425781 36.835938 10.1875 37.253906 C 9.910156 37.621094 9.234375 37.859375 8.40625 37.449219 C 7.984375 37.265625 7.691406 36.878906 7.679688 36.730469 C 7.613281 36.324219 7.695312 36.429688 7.765625 36.050781 C 7.796875 35.679688 7.25 35.550781 7.101562 35.890625 C 6.542969 37.136719 7.691406 38.105469 8.832031 38.324219 C 9.503906 38.460938 10.273438 38.257812 10.707031 37.710938 C 11.09375 37.21875 11.222656 36.316406 10.761719 35.832031 Z M 10.761719 35.832031 " fill-opacity="1" fill-rule="nonzero"/><path fill="#3db3a9" d="M 26.519531 18.101562 C 26.070312 17.667969 25.492188 17.421875 24.972656 17.082031 C 24.640625 16.847656 24.300781 16.542969 24.046875 16.125 C 24.011719 16.074219 23.976562 16.003906 23.949219 15.949219 C 23.917969 15.867188 23.894531 15.785156 23.875 15.699219 C 23.875 15.667969 23.875 15.640625 23.875 15.613281 C 23.890625 15.539062 23.910156 15.46875 23.933594 15.398438 C 23.933594 15.394531 23.9375 15.390625 23.9375 15.390625 C 23.957031 15.371094 23.980469 15.34375 24.007812 15.316406 C 24.054688 15.285156 24.101562 15.257812 24.148438 15.234375 C 24.734375 15.046875 24.605469 15.09375 25.007812 15.09375 C 25.066406 15.101562 25.121094 15.113281 25.175781 15.132812 C 25.207031 15.148438 25.25 15.175781 25.292969 15.203125 C 25.425781 15.320312 25.542969 15.464844 25.714844 15.515625 C 26.523438 15.878906 27.230469 14.808594 26.605469 14.191406 C 25.914062 13.449219 24.925781 13.324219 23.980469 13.570312 C 22.796875 13.828125 22.027344 14.90625 22.292969 16.105469 C 22.546875 17.179688 23.402344 18.011719 24.300781 18.589844 C 25.210938 19.105469 25.402344 19.207031 25.644531 19.582031 C 25.679688 19.640625 25.714844 19.699219 25.742188 19.761719 C 25.75 19.78125 25.757812 19.804688 25.769531 19.84375 C 25.792969 19.910156 25.804688 19.980469 25.816406 20.050781 C 25.824219 20.105469 25.828125 20.175781 25.832031 20.242188 C 25.835938 20.339844 25.828125 20.4375 25.820312 20.535156 C 25.808594 20.59375 25.785156 20.691406 25.757812 20.769531 C 25.753906 20.773438 25.753906 20.78125 25.75 20.789062 C 25.707031 20.878906 25.65625 20.960938 25.601562 21.042969 C 25.597656 21.042969 25.597656 21.046875 25.59375 21.050781 C 25.5625 21.082031 25.53125 21.117188 25.496094 21.148438 C 25.480469 21.164062 25.460938 21.175781 25.445312 21.1875 C 25.359375 21.253906 25.261719 21.308594 25.164062 21.355469 C 25.164062 21.355469 25.164062 21.355469 25.160156 21.355469 C 25.089844 21.386719 24.976562 21.410156 24.894531 21.425781 C 24.839844 21.429688 24.785156 21.4375 24.730469 21.4375 C 24.308594 21.40625 24.53125 21.476562 23.96875 21.289062 C 23.957031 21.285156 23.945312 21.277344 23.933594 21.273438 C 23.746094 21.164062 23.511719 21.132812 23.300781 21.191406 C 22.796875 21.316406 22.546875 21.945312 22.8125 22.390625 C 22.957031 22.660156 23.253906 22.753906 23.515625 22.863281 C 23.8125 22.984375 24.128906 23.027344 24.441406 23.058594 C 25.800781 23.210938 27.171875 22.261719 27.410156 20.894531 C 27.605469 19.886719 27.289062 18.796875 26.519531 18.101562 Z M 26.519531 18.101562 " fill-opacity="1" fill-rule="nonzero"/><path fill="#3db3a9" d="M 32.902344 13.28125 C 32.519531 12.914062 31.953125 13.066406 31.472656 13.039062 C 30.375 13.074219 29.28125 13.191406 28.203125 13.414062 C 27.847656 13.488281 27.429688 13.542969 27.242188 13.898438 C 26.867188 14.507812 27.476562 15.300781 28.164062 15.097656 C 29.617188 14.757812 30.53125 14.660156 32.324219 14.675781 C 33.035156 14.691406 33.414062 13.773438 32.902344 13.28125 Z M 32.902344 13.28125 " fill-opacity="1" fill-rule="nonzero"/><path fill="#3db3a9" d="M 31.417969 20.675781 C 31.429688 20.746094 31.4375 20.820312 31.449219 20.890625 C 31.394531 20.476562 31.339844 20.054688 31.292969 19.640625 C 31.132812 18.195312 31.183594 16.738281 31.132812 15.292969 C 31.140625 14.976562 31.164062 14.664062 31.1875 14.351562 C 31.210938 14.183594 31.21875 14.007812 31.132812 13.859375 C 30.816406 13.042969 29.566406 13.300781 29.570312 14.175781 C 29.433594 15.390625 29.554688 16.613281 29.554688 17.832031 C 29.539062 18.792969 29.664062 19.742188 29.789062 20.691406 C 29.878906 21.113281 29.820312 21.648438 30.085938 21.996094 C 30.398438 22.464844 31.171875 22.398438 31.433594 21.914062 C 31.660156 21.523438 31.449219 21.089844 31.417969 20.675781 Z M 31.417969 20.675781 " fill-opacity="1" fill-rule="nonzero"/><path fill="#3db3a9" d="M 39.546875 20.378906 C 39.347656 19.742188 39.148438 19.109375 38.984375 18.460938 C 38.675781 17.265625 38.355469 16.066406 37.910156 14.910156 C 37.65625 14.304688 37.457031 13.652344 37.039062 13.136719 C 36.710938 12.769531 36.097656 12.722656 35.753906 13.082031 C 35.359375 13.582031 35.273438 14.324219 35.054688 14.917969 C 34.746094 15.976562 34.417969 17.03125 34.152344 18.105469 C 33.921875 19.042969 33.730469 19.992188 33.503906 20.933594 C 33.453125 21.304688 33.242188 21.671875 33.292969 22.046875 C 33.386719 22.917969 34.652344 23 34.882812 22.15625 C 35.210938 20.929688 35.441406 19.683594 35.75 18.453125 C 35.976562 17.558594 36.238281 16.675781 36.5 15.789062 C 36.726562 16.4375 36.941406 17.160156 37.164062 17.960938 C 37.460938 19.171875 37.816406 20.367188 38.199219 21.554688 C 38.371094 22.238281 39.351562 22.367188 39.695312 21.75 C 39.960938 21.300781 39.65625 20.828125 39.546875 20.378906 Z M 39.546875 20.378906 " fill-opacity="1" fill-rule="nonzero"/><path fill="#3db3a9" d="M 38.503906 18.304688 C 38.285156 18.167969 38.03125 18.191406 37.785156 18.203125 C 37.347656 18.21875 36.910156 18.230469 36.46875 18.222656 C 36.011719 18.214844 35.554688 18.179688 35.097656 18.144531 C 34.863281 18.136719 34.605469 18.0625 34.386719 18.183594 C 33.570312 18.503906 33.828125 19.75 34.703125 19.75 C 35.59375 19.820312 36.488281 19.882812 37.382812 19.851562 C 37.71875 19.8125 38.089844 19.890625 38.40625 19.757812 C 39.023438 19.542969 39.066406 18.613281 38.503906 18.304688 Z M 38.503906 18.304688 " fill-opacity="1" fill-rule="nonzero"/><path fill="#3db3a9" d="M 42.261719 20.957031 C 42.144531 19.953125 42.019531 18.949219 41.925781 17.941406 C 41.804688 16.777344 41.636719 15.617188 41.558594 14.449219 C 41.53125 14.070312 41.503906 13.691406 41.496094 13.308594 C 41.492188 13.128906 41.519531 12.933594 41.425781 12.769531 C 41.105469 11.949219 39.859375 12.207031 39.863281 13.085938 C 39.886719 15.050781 40.21875 16.996094 40.394531 18.949219 C 40.464844 19.539062 40.535156 20.132812 40.601562 20.722656 C 40.675781 21.171875 40.617188 21.742188 41.078125 21.992188 C 41.523438 22.265625 42.144531 22.007812 42.277344 21.503906 C 42.335938 21.320312 42.292969 21.140625 42.261719 20.957031 Z M 42.261719 20.957031 " fill-opacity="1" fill-rule="nonzero"/><path fill="#3db3a9" d="M 43.722656 18.292969 C 43.714844 18.285156 43.675781 18.253906 43.628906 18.21875 C 43.648438 18.234375 43.660156 18.242188 43.671875 18.253906 C 43.691406 18.265625 43.707031 18.277344 43.722656 18.292969 Z M 43.722656 18.292969 " fill-opacity="1" fill-rule="nonzero"/><path fill="#3db3a9" d="M 46.132812 20.113281 C 45.757812 19.84375 45.378906 19.578125 45.011719 19.296875 C 44.585938 18.960938 44.160156 18.621094 43.722656 18.289062 C 43.730469 18.296875 43.71875 18.285156 43.675781 18.253906 C 43.644531 18.230469 43.617188 18.207031 43.585938 18.183594 C 43.601562 18.195312 43.617188 18.207031 43.628906 18.214844 C 43.519531 18.128906 43.414062 18.039062 43.3125 17.949219 C 43.378906 17.914062 43.441406 17.878906 43.507812 17.839844 C 44.769531 17.164062 45.84375 15.785156 45.519531 14.289062 C 45.179688 12.382812 42.871094 11.449219 41.132812 11.945312 C 40.800781 12.0625 40.402344 12.144531 40.21875 12.476562 C 39.84375 13.085938 40.457031 13.878906 41.140625 13.675781 C 42.058594 13.285156 42.726562 13.386719 43.511719 13.921875 C 43.597656 13.992188 43.675781 14.074219 43.746094 14.160156 C 43.761719 14.183594 43.785156 14.222656 43.808594 14.265625 C 43.820312 14.285156 43.828125 14.300781 43.835938 14.316406 C 43.867188 14.40625 43.898438 14.503906 43.921875 14.597656 C 43.929688 14.632812 43.929688 14.664062 43.9375 14.695312 C 43.941406 14.757812 43.945312 14.867188 43.941406 14.964844 C 43.929688 15.027344 43.898438 15.171875 43.859375 15.261719 C 43.789062 15.40625 43.710938 15.542969 43.617188 15.675781 C 43.507812 15.804688 43.390625 15.933594 43.257812 16.046875 C 43.230469 16.074219 43.203125 16.09375 43.171875 16.117188 C 43.171875 16.121094 43.171875 16.121094 43.167969 16.121094 C 42.886719 16.316406 42.589844 16.488281 42.28125 16.640625 C 42.042969 16.753906 41.785156 16.84375 41.59375 17.039062 C 40.46875 18.382812 43.214844 19.820312 43.53125 20.195312 C 44.113281 20.667969 44.71875 21.105469 45.332031 21.539062 C 45.824219 21.996094 46.570312 21.914062 46.789062 21.230469 C 46.9375 20.691406 46.546875 20.363281 46.132812 20.113281 Z M 46.132812 20.113281 " fill-opacity="1" fill-rule="nonzero"/><path fill="#3db3a9" d="M 51.914062 11.710938 C 51.511719 11.496094 51.027344 11.648438 50.589844 11.636719 C 49.890625 11.675781 49.195312 11.722656 48.496094 11.753906 C 48.003906 11.777344 47.515625 11.824219 47.023438 11.878906 C 46.730469 11.914062 46.402344 11.914062 46.183594 12.148438 C 45.671875 12.636719 46.054688 13.558594 46.761719 13.542969 C 47.832031 13.398438 48.914062 13.371094 49.992188 13.304688 C 50.496094 13.273438 50.996094 13.246094 51.5 13.230469 C 51.816406 13.234375 52.144531 13.035156 52.246094 12.730469 C 52.429688 12.371094 52.253906 11.910156 51.914062 11.710938 Z M 51.914062 11.710938 " fill-opacity="1" fill-rule="nonzero"/><path fill="#3db3a9" d="M 50.679688 20.738281 C 50.667969 20.660156 50.660156 20.578125 50.652344 20.5 C 50.585938 19.726562 50.574219 18.945312 50.535156 18.167969 C 50.476562 16.90625 50.335938 15.652344 50.289062 14.390625 C 50.277344 13.984375 50.265625 13.574219 50.269531 13.167969 C 50.265625 12.949219 50.332031 12.710938 50.214844 12.511719 C 49.898438 11.691406 48.648438 11.949219 48.652344 12.828125 C 48.566406 15.003906 48.910156 17.167969 48.949219 19.34375 C 48.972656 19.824219 48.988281 20.304688 49.046875 20.78125 C 49.089844 21.03125 49.074219 21.328125 49.261719 21.523438 C 49.625 22.066406 50.535156 21.871094 50.6875 21.246094 C 50.742188 21.074219 50.710938 20.910156 50.679688 20.738281 Z M 50.679688 20.738281 " fill-opacity="1" fill-rule="nonzero"/><path fill="#dcfcfb" d="M 29.152344 26.367188 C 28.917969 26.175781 28.515625 25.996094 28.25 26.210938 C 28.160156 26.238281 28.074219 26.277344 27.988281 26.320312 C 27.628906 26.476562 27.382812 26.796875 27.265625 27.164062 C 27.078125 27.785156 27.054688 28.480469 27.230469 29.105469 C 27.40625 29.574219 27.828125 29.984375 28.351562 29.988281 C 29.097656 30.015625 29.679688 29.394531 29.75 28.675781 C 29.859375 27.886719 29.765625 26.933594 29.152344 26.367188 Z M 28.574219 29.136719 C 28.285156 29.210938 28.210938 29.191406 28.011719 28.863281 C 27.859375 28.554688 27.9375 27.390625 28.152344 27.1875 C 28.308594 27.050781 28.285156 27.070312 28.550781 26.96875 C 28.554688 26.96875 28.554688 26.96875 28.558594 26.96875 C 28.578125 26.972656 28.59375 26.976562 28.613281 26.976562 C 28.664062 27.015625 28.695312 27.019531 28.824219 27.289062 C 28.851562 27.378906 28.9375 27.636719 28.941406 27.710938 C 28.949219 27.761719 28.957031 27.808594 28.964844 27.859375 C 28.96875 27.878906 28.96875 27.902344 28.972656 27.925781 C 29.019531 28.773438 28.792969 29.0625 28.574219 29.136719 Z M 28.574219 29.136719 " fill-opacity="1" fill-rule="nonzero"/><path fill="#dcfcfb" d="M 32.15625 26.367188 C 31.921875 26.175781 31.519531 25.996094 31.253906 26.210938 C 31.164062 26.238281 31.078125 26.277344 30.992188 26.320312 C 30.632812 26.476562 30.386719 26.796875 30.269531 27.164062 C 30.082031 27.785156 30.058594 28.480469 30.234375 29.105469 C 30.410156 29.574219 30.832031 29.984375 31.355469 29.988281 C 32.101562 30.015625 32.6875 29.394531 32.753906 28.675781 C 32.863281 27.886719 32.769531 26.933594 32.15625 26.367188 Z M 31.578125 29.136719 C 31.292969 29.210938 31.214844 29.191406 31.019531 28.863281 C 30.863281 28.554688 30.941406 27.390625 31.15625 27.1875 C 31.3125 27.050781 31.289062 27.070312 31.554688 26.96875 C 31.558594 26.96875 31.558594 26.96875 31.5625 26.96875 C 31.582031 26.972656 31.597656 26.976562 31.617188 26.976562 C 31.667969 27.015625 31.699219 27.019531 31.828125 27.289062 C 31.855469 27.378906 31.941406 27.636719 31.945312 27.710938 C 31.953125 27.761719 31.960938 27.808594 31.96875 27.859375 C 31.972656 27.878906 31.972656 27.902344 31.976562 27.925781 C 32.023438 28.773438 31.800781 29.0625 31.578125 29.136719 Z M 31.578125 29.136719 " fill-opacity="1" fill-rule="nonzero"/><path fill="#dcfcfb" d="M 34.335938 26.886719 C 34.328125 26.875 34.316406 26.863281 34.304688 26.847656 C 34.171875 26.601562 33.757812 26.539062 33.589844 26.835938 C 33.476562 27.015625 33.492188 27.261719 33.644531 27.421875 C 34.007812 27.785156 34.582031 27.332031 34.335938 26.886719 Z M 34.335938 26.886719 " fill-opacity="1" fill-rule="nonzero"/><path fill="#dcfcfb" d="M 34.335938 28.808594 C 34.328125 28.792969 34.316406 28.78125 34.304688 28.769531 C 34.171875 28.523438 33.757812 28.460938 33.589844 28.757812 C 33.476562 28.9375 33.492188 29.183594 33.644531 29.34375 C 34.007812 29.703125 34.582031 29.25 34.335938 28.808594 Z M 34.335938 28.808594 " fill-opacity="1" fill-rule="nonzero"/><path fill="#dcfcfb" d="M 36.9375 26.367188 C 36.703125 26.175781 36.296875 25.996094 36.035156 26.210938 C 35.945312 26.238281 35.859375 26.277344 35.769531 26.320312 C 35.410156 26.476562 35.164062 26.796875 35.050781 27.164062 C 34.863281 27.785156 34.839844 28.480469 35.015625 29.105469 C 35.191406 29.574219 35.613281 29.984375 36.132812 29.988281 C 36.882812 30.015625 37.464844 29.394531 37.53125 28.675781 C 37.644531 27.886719 37.550781 26.933594 36.9375 26.367188 Z M 36.355469 29.136719 C 36.070312 29.210938 35.992188 29.191406 35.796875 28.863281 C 35.640625 28.554688 35.722656 27.390625 35.9375 27.1875 C 36.09375 27.050781 36.066406 27.070312 36.335938 26.96875 C 36.335938 26.96875 36.339844 26.96875 36.34375 26.96875 C 36.359375 26.972656 36.378906 26.976562 36.398438 26.976562 C 36.449219 27.015625 36.476562 27.019531 36.609375 27.289062 C 36.636719 27.378906 36.722656 27.636719 36.722656 27.710938 C 36.734375 27.761719 36.742188 27.808594 36.75 27.859375 C 36.75 27.878906 36.753906 27.902344 36.753906 27.925781 C 36.804688 28.773438 36.578125 29.0625 36.355469 29.136719 Z M 36.355469 29.136719 " fill-opacity="1" fill-rule="nonzero"/><path fill="#dcfcfb" d="M 39.945312 26.367188 C 39.710938 26.175781 39.304688 25.996094 39.039062 26.210938 C 38.953125 26.238281 38.863281 26.277344 38.777344 26.320312 C 38.417969 26.476562 38.171875 26.796875 38.054688 27.164062 C 37.867188 27.785156 37.84375 28.480469 38.023438 29.105469 C 38.195312 29.574219 38.621094 29.984375 39.140625 29.988281 C 39.886719 30.015625 40.472656 29.394531 40.539062 28.675781 C 40.648438 27.886719 40.554688 26.933594 39.945312 26.367188 Z M 39.363281 29.136719 C 39.078125 29.210938 39 29.191406 38.804688 28.863281 C 38.648438 28.554688 38.726562 27.390625 38.941406 27.1875 C 39.097656 27.050781 39.074219 27.070312 39.339844 26.96875 C 39.34375 26.96875 39.347656 26.96875 39.347656 26.96875 C 39.367188 26.972656 39.382812 26.976562 39.402344 26.976562 C 39.453125 27.015625 39.484375 27.019531 39.613281 27.289062 C 39.640625 27.378906 39.726562 27.636719 39.730469 27.710938 C 39.742188 27.761719 39.746094 27.808594 39.753906 27.859375 C 39.757812 27.878906 39.761719 27.902344 39.761719 27.925781 C 39.808594 28.773438 39.585938 29.0625 39.363281 29.136719 Z M 39.363281 29.136719 " fill-opacity="1" fill-rule="nonzero"/><path fill="#dcfcfb" d="M 44.746094 26.160156 C 44.511719 25.96875 44.105469 25.789062 43.839844 26.007812 C 43.753906 26.035156 43.664062 26.074219 43.578125 26.117188 C 43.21875 26.269531 42.972656 26.59375 42.855469 26.960938 C 42.667969 27.578125 42.644531 28.277344 42.824219 28.902344 C 42.996094 29.367188 43.421875 29.78125 43.941406 29.785156 C 44.6875 29.808594 45.273438 29.191406 45.339844 28.46875 C 45.449219 27.679688 45.355469 26.730469 44.746094 26.160156 Z M 44.164062 28.933594 C 43.878906 29.003906 43.800781 28.988281 43.605469 28.660156 C 43.449219 28.347656 43.527344 27.183594 43.742188 26.984375 C 43.898438 26.847656 43.875 26.867188 44.140625 26.765625 C 44.144531 26.765625 44.148438 26.765625 44.148438 26.765625 C 44.167969 26.769531 44.183594 26.773438 44.203125 26.773438 C 44.253906 26.8125 44.285156 26.8125 44.414062 27.085938 C 44.441406 27.175781 44.527344 27.433594 44.53125 27.503906 C 44.542969 27.554688 44.546875 27.605469 44.554688 27.65625 C 44.558594 27.675781 44.5625 27.695312 44.5625 27.722656 C 44.609375 28.570312 44.386719 28.855469 44.164062 28.933594 Z M 44.164062 28.933594 " fill-opacity="1" fill-rule="nonzero"/><path fill="#dcfcfb" d="M 47.75 26.160156 C 47.515625 25.96875 47.109375 25.789062 46.84375 26.007812 C 46.757812 26.035156 46.667969 26.074219 46.582031 26.117188 C 46.222656 26.269531 45.976562 26.59375 45.859375 26.960938 C 45.671875 27.578125 45.648438 28.277344 45.828125 28.902344 C 46 29.367188 46.425781 29.78125 46.945312 29.785156 C 47.695312 29.808594 48.277344 29.191406 48.34375 28.46875 C 48.457031 27.679688 48.359375 26.730469 47.75 26.160156 Z M 47.167969 28.933594 C 46.882812 29.003906 46.804688 28.988281 46.609375 28.660156 C 46.453125 28.347656 46.53125 27.183594 46.746094 26.984375 C 46.902344 26.847656 46.878906 26.867188 47.144531 26.765625 C 47.148438 26.765625 47.152344 26.765625 47.152344 26.765625 C 47.171875 26.769531 47.191406 26.773438 47.207031 26.773438 C 47.261719 26.8125 47.289062 26.8125 47.417969 27.085938 C 47.445312 27.175781 47.53125 27.433594 47.535156 27.503906 C 47.546875 27.554688 47.554688 27.605469 47.558594 27.65625 C 47.5625 27.675781 47.566406 27.695312 47.566406 27.722656 C 47.613281 28.570312 47.390625 28.855469 47.167969 28.933594 Z M 47.167969 28.933594 " fill-opacity="1" fill-rule="nonzero"/><path fill="#dcfcfb" d="M 42.121094 26.886719 C 42.109375 26.875 42.101562 26.863281 42.089844 26.847656 C 41.953125 26.601562 41.539062 26.539062 41.375 26.835938 C 41.257812 27.015625 41.277344 27.261719 41.429688 27.421875 C 41.792969 27.785156 42.371094 27.332031 42.121094 26.886719 Z M 42.121094 26.886719 " fill-opacity="1" fill-rule="nonzero"/><path fill="#dcfcfb" d="M 42.121094 28.808594 C 42.109375 28.792969 42.101562 28.78125 42.089844 28.769531 C 41.953125 28.523438 41.539062 28.460938 41.375 28.757812 C 41.257812 28.9375 41.277344 29.183594 41.429688 29.34375 C 41.792969 29.703125 42.371094 29.25 42.121094 28.808594 Z M 42.121094 28.808594 " fill-opacity="1" fill-rule="nonzero"/><path fill="#08665e" d="M 6.664062 62.941406 C 9.085938 62.851562 11.523438 62.679688 13.917969 62.324219 C 14.484375 62.242188 14.921875 61.9375 14.988281 61.335938 C 15.015625 61.089844 14.976562 60.839844 14.953125 60.59375 C 14.925781 60.269531 14.898438 59.945312 14.867188 59.621094 C 14.757812 58.40625 14.65625 57.191406 14.554688 55.976562 C 14.160156 51.136719 13.832031 46.292969 13.578125 41.445312 C 13.453125 39.007812 13.367188 36.570312 13.253906 34.132812 C 13.242188 33.902344 13.214844 33.675781 13.089844 33.480469 C 12.929688 33.230469 12.652344 33.125 12.363281 33.117188 C 12.09375 33.109375 11.8125 33.152344 11.542969 33.175781 C 11.234375 33.203125 10.929688 33.230469 10.621094 33.257812 C 9.429688 33.367188 8.242188 33.492188 7.054688 33.636719 C 6.433594 33.710938 5.8125 33.789062 5.191406 33.875 C 4.679688 33.949219 4.238281 34.195312 4.132812 34.738281 C 4.085938 34.988281 4.101562 35.242188 4.113281 35.496094 C 4.125 35.816406 4.132812 36.140625 4.144531 36.460938 C 4.167969 37.050781 4.1875 37.640625 4.210938 38.234375 C 4.300781 40.648438 4.394531 43.0625 4.519531 45.476562 C 4.769531 50.285156 5.128906 55.085938 5.746094 59.859375 C 5.824219 60.445312 5.902344 61.03125 5.984375 61.613281 C 6.015625 61.832031 6.289062 61.957031 6.484375 61.90625 C 6.714844 61.847656 6.808594 61.628906 6.777344 61.410156 C 6.125 56.847656 5.730469 52.253906 5.457031 47.65625 C 5.320312 45.347656 5.214844 43.042969 5.125 40.734375 C 5.078125 39.582031 5.035156 38.425781 4.992188 37.273438 C 4.972656 36.683594 4.949219 36.09375 4.929688 35.503906 C 4.921875 35.308594 4.886719 35.085938 4.933594 34.898438 C 4.976562 34.726562 5.121094 34.710938 5.277344 34.6875 C 6.390625 34.496094 7.53125 34.394531 8.652344 34.273438 C 9.800781 34.148438 10.949219 34.039062 12.101562 33.949219 C 12.207031 33.941406 12.3125 33.933594 12.417969 33.941406 C 12.445312 33.941406 12.449219 34.003906 12.398438 33.914062 C 12.394531 33.902344 12.421875 33.972656 12.425781 33.988281 C 12.472656 34.238281 12.453125 34.523438 12.460938 34.78125 C 12.484375 35.351562 12.507812 35.917969 12.53125 36.488281 C 12.578125 37.652344 12.632812 38.820312 12.691406 39.984375 C 12.917969 44.640625 13.214844 49.296875 13.578125 53.949219 C 13.757812 56.273438 13.972656 58.59375 14.167969 60.917969 C 14.179688 61.0625 14.230469 61.292969 14.128906 61.410156 C 14.023438 61.539062 13.726562 61.539062 13.574219 61.558594 C 12.992188 61.632812 12.414062 61.703125 11.832031 61.761719 C 10.679688 61.882812 9.523438 61.980469 8.363281 62.046875 C 7.800781 62.082031 7.234375 62.109375 6.667969 62.128906 C 6.144531 62.144531 6.136719 62.960938 6.664062 62.941406 Z M 6.664062 62.941406 " fill-opacity="1" fill-rule="nonzero"/><path fill="#08665e" d="M 13.59375 51.703125 C 14.40625 55.363281 15.375 58.988281 16.511719 62.5625 C 16.835938 63.578125 17.171875 64.589844 17.519531 65.597656 C 17.652344 65.425781 17.78125 65.253906 17.914062 65.085938 C 14.296875 65.027344 10.675781 64.96875 7.058594 64.910156 C 6.023438 64.890625 4.988281 64.875 3.957031 64.859375 C 4.09375 64.996094 4.226562 65.132812 4.363281 65.269531 C 4 60.492188 3.636719 55.714844 3.273438 50.9375 C 2.910156 46.160156 2.550781 41.382812 2.1875 36.605469 C 1.984375 33.917969 1.777344 31.230469 1.574219 28.542969 C 1.558594 28.324219 1.402344 28.132812 1.167969 28.132812 C 0.960938 28.128906 0.742188 28.316406 0.757812 28.539062 C 1.121094 33.316406 1.480469 38.09375 1.84375 42.871094 C 2.207031 47.648438 2.570312 52.425781 2.933594 57.203125 C 3.136719 59.890625 3.339844 62.578125 3.542969 65.265625 C 3.5625 65.484375 3.714844 65.671875 3.953125 65.675781 C 7.570312 65.734375 11.191406 65.792969 14.808594 65.851562 C 15.84375 65.867188 16.878906 65.886719 17.910156 65.902344 C 18.160156 65.90625 18.394531 65.644531 18.308594 65.390625 C 17.085938 61.847656 16.019531 58.25 15.113281 54.609375 C 14.859375 53.578125 14.617188 52.539062 14.386719 51.5 C 14.273438 50.980469 13.480469 51.191406 13.59375 51.703125 Z M 13.59375 51.703125 " fill-opacity="1" fill-rule="nonzero"/><path fill="#08665e" d="M 1.507812 26.449219 C 1.304688 24.839844 1.160156 23.226562 1.074219 21.609375 C 1.027344 20.792969 0.992188 19.972656 0.984375 19.152344 C 0.980469 19.023438 0.964844 18.941406 1.042969 18.886719 C 1.195312 18.78125 1.386719 18.714844 1.554688 18.636719 C 1.902344 18.476562 2.25 18.316406 2.601562 18.160156 C 5.414062 16.902344 8.300781 15.8125 11.238281 14.890625 C 12.898438 14.371094 14.574219 13.90625 16.257812 13.492188 C 16.769531 13.367188 16.566406 12.578125 16.054688 12.703125 C 12.9375 13.464844 9.867188 14.40625 6.867188 15.535156 C 5.347656 16.105469 3.847656 16.71875 2.367188 17.375 C 2.003906 17.539062 1.644531 17.699219 1.285156 17.867188 C 0.941406 18.023438 0.515625 18.160156 0.300781 18.496094 C 0.0898438 18.828125 0.167969 19.296875 0.175781 19.671875 C 0.1875 20.085938 0.203125 20.503906 0.222656 20.921875 C 0.308594 22.839844 0.476562 24.75 0.71875 26.652344 C 0.742188 26.871094 1.023438 26.996094 1.214844 26.945312 C 1.453125 26.882812 1.535156 26.667969 1.507812 26.449219 Z M 1.507812 26.449219 " fill-opacity="1" fill-rule="nonzero"/><path fill="#08665e" d="M 10.371094 33.28125 C 10.324219 32.859375 10.28125 32.441406 10.234375 32.015625 C 10.210938 31.804688 10.1875 31.59375 10.167969 31.382812 C 10.160156 31.335938 10.15625 31.285156 10.152344 31.234375 C 10.132812 31.28125 10.109375 31.324219 10.074219 31.355469 C 10.089844 31.371094 10.328125 31.289062 10.359375 31.28125 C 11.148438 31.082031 11.945312 30.898438 12.746094 30.726562 C 14.363281 30.375 15.992188 30.078125 17.621094 29.78125 C 17.835938 29.738281 17.964844 29.484375 17.914062 29.28125 C 17.851562 29.054688 17.632812 28.949219 17.414062 28.988281 C 16.042969 29.242188 14.671875 29.492188 13.304688 29.773438 C 12.625 29.914062 11.949219 30.0625 11.269531 30.21875 C 10.9375 30.300781 10.601562 30.378906 10.269531 30.464844 C 9.960938 30.542969 9.582031 30.589844 9.414062 30.894531 C 9.308594 31.082031 9.339844 31.292969 9.363281 31.5 C 9.382812 31.683594 9.402344 31.867188 9.421875 32.050781 C 9.464844 32.460938 9.511719 32.871094 9.554688 33.277344 C 9.578125 33.496094 9.722656 33.6875 9.960938 33.6875 C 10.160156 33.691406 10.394531 33.503906 10.371094 33.28125 Z M 10.371094 33.28125 " fill-opacity="1" fill-rule="nonzero"/><path fill="#08665e" d="M 61.164062 42.433594 C 60.875 46.140625 60.585938 49.847656 60.296875 53.558594 C 60.152344 55.414062 60.007812 57.265625 59.863281 59.121094 C 59.828125 59.582031 59.789062 60.042969 59.753906 60.503906 C 59.722656 60.898438 59.609375 61.375 59.820312 61.738281 C 60.042969 62.121094 60.539062 62.152344 60.929688 62.21875 C 61.386719 62.300781 61.847656 62.371094 62.304688 62.433594 C 64.101562 62.675781 65.914062 62.796875 67.730469 62.78125 C 68.167969 62.777344 68.695312 62.800781 68.808594 62.257812 C 68.902344 61.816406 68.914062 61.339844 68.960938 60.886719 C 69.054688 59.960938 69.144531 59.035156 69.230469 58.105469 C 69.5625 54.4375 69.808594 50.757812 70.007812 47.078125 C 70.207031 43.382812 70.359375 39.6875 70.507812 35.992188 C 70.523438 35.53125 70.542969 35.074219 70.5625 34.613281 C 70.570312 34.425781 70.425781 34.273438 70.257812 34.21875 C 68.164062 33.523438 65.976562 33.109375 63.773438 32.988281 C 63.25 32.957031 62.699219 32.90625 62.179688 32.960938 C 61.574219 33.023438 61.382812 33.511719 61.386719 34.050781 C 61.394531 35.121094 61.382812 36.1875 61.359375 37.253906 C 61.335938 38.375 61.296875 39.492188 61.226562 40.609375 C 61.191406 41.136719 62.011719 41.136719 62.042969 40.613281 C 62.164062 38.679688 62.199219 36.742188 62.203125 34.804688 C 62.207031 34.574219 62.207031 34.34375 62.203125 34.113281 C 62.203125 34.023438 62.195312 33.921875 62.210938 33.835938 C 62.210938 33.824219 62.222656 33.792969 62.21875 33.78125 C 62.214844 33.699219 62.25 33.777344 62.203125 33.78125 C 62.65625 33.714844 63.160156 33.773438 63.617188 33.796875 C 64.640625 33.847656 65.660156 33.960938 66.667969 34.144531 C 67.8125 34.351562 68.941406 34.640625 70.046875 35.007812 C 69.945312 34.875 69.84375 34.742188 69.742188 34.609375 C 69.601562 38.171875 69.460938 41.734375 69.28125 45.292969 C 69.101562 48.867188 68.886719 52.4375 68.59375 56.003906 C 68.445312 57.78125 68.28125 59.554688 68.09375 61.324219 C 68.074219 61.539062 68.050781 61.753906 68.027344 61.96875 C 68.023438 61.984375 68.003906 62.078125 68.011719 62.089844 C 67.515625 61.511719 68.207031 62.015625 68.132812 61.957031 C 68.117188 61.945312 68 61.960938 67.972656 61.960938 C 67.890625 61.960938 67.8125 61.960938 67.730469 61.964844 C 67.292969 61.96875 66.855469 61.964844 66.417969 61.949219 C 65.542969 61.925781 64.667969 61.875 63.796875 61.789062 C 62.933594 61.707031 62.074219 61.589844 61.21875 61.445312 C 61.019531 61.410156 60.816406 61.382812 60.621094 61.339844 C 60.488281 61.308594 60.511719 61.316406 60.519531 61.175781 C 60.542969 60.734375 60.589844 60.296875 60.621094 59.859375 C 60.761719 58.074219 60.898438 56.285156 61.039062 54.5 C 61.320312 50.925781 61.597656 47.351562 61.875 43.777344 C 61.910156 43.332031 61.945312 42.886719 61.980469 42.441406 C 61.996094 42.21875 61.785156 42.03125 61.574219 42.027344 C 61.339844 42.023438 61.179688 42.210938 61.164062 42.433594 Z M 61.164062 42.433594 " fill-opacity="1" fill-rule="nonzero"/><path fill="#08665e" d="M 58.109375 29.996094 C 60.507812 30.496094 62.910156 30.957031 65.308594 31.457031 C 65.214844 31.289062 65.117188 31.125 65.019531 30.957031 C 64.890625 31.632812 64.761719 32.308594 64.628906 32.980469 C 64.589844 33.199219 64.695312 33.421875 64.917969 33.484375 C 65.121094 33.535156 65.378906 33.410156 65.417969 33.195312 C 65.550781 32.519531 65.679688 31.84375 65.808594 31.167969 C 65.851562 30.960938 65.75 30.714844 65.519531 30.667969 C 63.125 30.167969 60.71875 29.707031 58.320312 29.207031 C 57.808594 29.101562 57.59375 29.886719 58.109375 29.996094 Z M 58.109375 29.996094 " fill-opacity="1" fill-rule="nonzero"/><path fill="#08665e" d="M 59.59375 57.949219 C 58.984375 60.453125 58.21875 62.914062 57.300781 65.320312 C 57.214844 65.546875 57.445312 65.863281 57.691406 65.832031 C 61.140625 65.414062 64.597656 65.902344 68.050781 65.980469 C 69.046875 66.003906 70.042969 65.992188 71.035156 65.914062 C 71.261719 65.898438 71.433594 65.746094 71.445312 65.507812 C 71.523438 63.632812 71.644531 61.761719 71.769531 59.890625 C 71.945312 57.253906 72.140625 54.617188 72.335938 51.980469 C 72.574219 48.769531 72.824219 45.554688 73.074219 42.34375 C 73.351562 38.765625 73.628906 35.1875 73.90625 31.605469 C 74.199219 27.816406 74.492188 24.027344 74.777344 20.242188 C 74.8125 19.761719 74.847656 19.28125 74.886719 18.800781 C 74.898438 18.667969 74.804688 18.496094 74.679688 18.445312 C 73.496094 17.921875 72.296875 17.4375 71.09375 16.960938 C 68.488281 15.929688 65.851562 14.96875 63.179688 14.136719 C 61.546875 13.632812 59.902344 13.171875 58.230469 12.804688 C 57.71875 12.695312 57.503906 13.484375 58.019531 13.59375 C 60.953125 14.234375 63.820312 15.152344 66.648438 16.15625 C 68.808594 16.925781 70.972656 17.761719 73.070312 18.640625 C 73.472656 18.808594 73.875 18.976562 74.277344 19.152344 C 74.207031 19.035156 74.136719 18.914062 74.070312 18.796875 C 73.785156 22.597656 73.492188 26.398438 73.199219 30.195312 C 72.917969 33.824219 72.632812 37.457031 72.351562 41.085938 C 72.097656 44.351562 71.84375 47.621094 71.601562 50.890625 C 71.398438 53.59375 71.195312 56.300781 71.011719 59.007812 C 70.878906 60.984375 70.75 62.964844 70.652344 64.945312 C 70.644531 65.132812 70.632812 65.320312 70.628906 65.503906 C 70.765625 65.367188 70.902344 65.234375 71.039062 65.097656 C 67.578125 65.363281 64.125 64.839844 60.667969 64.84375 C 59.675781 64.847656 58.683594 64.894531 57.695312 65.015625 C 57.828125 65.1875 57.957031 65.355469 58.089844 65.527344 C 59.007812 63.125 59.773438 60.664062 60.382812 58.160156 C 60.507812 57.652344 59.71875 57.4375 59.59375 57.949219 Z M 59.59375 57.949219 " fill-opacity="1" fill-rule="nonzero"/><g clip-path="url(#b6c91d7ac5)"><path fill="#08665e" d="M 36.546875 7.894531 C 33.660156 8.023438 30.777344 8.136719 27.890625 8.300781 C 25.128906 8.453125 22.371094 8.652344 19.621094 8.953125 C 18.917969 9.027344 18.214844 9.109375 17.515625 9.199219 C 16.90625 9.277344 16.003906 9.234375 15.722656 9.90625 C 15.59375 10.21875 15.628906 10.5625 15.636719 10.890625 C 15.644531 11.25 15.65625 11.609375 15.667969 11.96875 C 15.6875 12.710938 15.71875 13.457031 15.75 14.199219 C 15.882812 17.179688 16.09375 20.152344 16.378906 23.117188 C 16.667969 26.074219 17.035156 29.027344 17.476562 31.96875 C 17.53125 32.335938 17.585938 32.707031 17.644531 33.074219 C 17.671875 33.242188 17.871094 33.386719 18.035156 33.378906 C 23.230469 33.160156 28.425781 32.945312 33.625 32.726562 C 38.820312 32.511719 44.015625 32.292969 49.210938 32.078125 C 52.144531 31.957031 55.078125 31.832031 58.011719 31.710938 C 58.246094 31.699219 58.402344 31.53125 58.421875 31.304688 C 58.667969 28.421875 58.652344 25.523438 58.570312 22.632812 C 58.484375 19.695312 58.332031 16.757812 58.296875 13.824219 C 58.28125 12.34375 58.292969 10.867188 58.363281 9.390625 C 58.390625 8.835938 58.46875 8.164062 58 7.761719 C 57.734375 7.535156 57.402344 7.511719 57.070312 7.511719 C 56.722656 7.507812 56.378906 7.507812 56.027344 7.507812 C 53.296875 7.5 50.5625 7.519531 47.828125 7.5625 C 44.996094 7.609375 42.164062 7.683594 39.335938 7.785156 C 38.960938 7.796875 38.589844 7.8125 38.214844 7.824219 C 37.691406 7.84375 37.683594 8.660156 38.210938 8.640625 C 41.019531 8.539062 43.828125 8.457031 46.640625 8.402344 C 49.308594 8.351562 51.976562 8.328125 54.644531 8.324219 C 55.324219 8.324219 56.003906 8.324219 56.679688 8.328125 C 56.847656 8.328125 57.011719 8.328125 57.179688 8.328125 C 57.257812 8.328125 57.378906 8.320312 57.445312 8.355469 C 57.578125 8.429688 57.574219 8.722656 57.570312 8.882812 C 57.5625 9.578125 57.507812 10.269531 57.492188 10.964844 C 57.476562 11.683594 57.472656 12.402344 57.476562 13.121094 C 57.488281 15.992188 57.628906 18.863281 57.722656 21.730469 C 57.816406 24.578125 57.867188 27.425781 57.683594 30.269531 C 57.660156 30.613281 57.632812 30.953125 57.605469 31.296875 C 57.742188 31.160156 57.878906 31.027344 58.015625 30.890625 C 52.820312 31.109375 47.625 31.324219 42.429688 31.542969 C 37.230469 31.757812 32.035156 31.976562 26.839844 32.191406 C 23.90625 32.3125 20.972656 32.4375 18.042969 32.558594 C 18.171875 32.660156 18.304688 32.761719 18.433594 32.863281 C 17.988281 30.007812 17.613281 27.144531 17.3125 24.269531 C 17.011719 21.386719 16.789062 18.5 16.636719 15.605469 C 16.558594 14.160156 16.5 12.710938 16.464844 11.261719 C 16.453125 10.953125 16.394531 10.597656 16.453125 10.292969 C 16.496094 10.070312 16.847656 10.097656 17.027344 10.074219 C 17.699219 9.984375 18.367188 9.902344 19.039062 9.828125 C 21.722656 9.523438 24.414062 9.316406 27.109375 9.15625 C 29.894531 8.992188 32.679688 8.878906 35.464844 8.757812 C 35.824219 8.742188 36.183594 8.726562 36.539062 8.710938 C 37.066406 8.691406 37.074219 7.871094 36.546875 7.894531 Z M 36.546875 7.894531 " fill-opacity="1" fill-rule="nonzero"/></g><path fill="#08665e" d="M 17.722656 11.460938 C 21.542969 11.097656 25.371094 10.796875 29.207031 10.5625 C 33.039062 10.324219 36.875 10.152344 40.714844 10.039062 C 44.554688 9.929688 48.394531 9.882812 52.234375 9.898438 C 53.179688 9.902344 54.128906 9.910156 55.074219 9.921875 C 55.316406 9.925781 55.5625 9.925781 55.804688 9.933594 C 55.859375 9.933594 55.914062 9.933594 55.96875 9.945312 C 56.109375 9.96875 56.03125 10 56.035156 9.929688 C 56.023438 10.394531 56.054688 10.867188 56.058594 11.332031 C 56.082031 13.246094 56.09375 15.15625 56.089844 17.066406 C 56.085938 20.914062 56.03125 24.765625 55.925781 28.613281 C 55.914062 29.085938 55.898438 29.5625 55.886719 30.035156 C 56.023438 29.898438 56.160156 29.765625 56.296875 29.628906 C 51.488281 29.824219 46.679688 30.015625 41.871094 30.210938 C 37.0625 30.40625 32.253906 30.597656 27.445312 30.792969 C 24.753906 30.898438 22.066406 31.007812 19.375 31.117188 C 19.511719 31.253906 19.644531 31.390625 19.78125 31.527344 C 19.316406 26.519531 18.855469 21.511719 18.390625 16.5 C 18.261719 15.09375 18.132812 13.683594 18 12.277344 C 17.980469 12.058594 17.828125 11.867188 17.59375 11.867188 C 17.390625 11.863281 17.164062 12.050781 17.183594 12.273438 C 17.644531 17.28125 18.109375 22.289062 18.570312 27.300781 C 18.703125 28.707031 18.832031 30.117188 18.964844 31.523438 C 18.984375 31.734375 19.132812 31.941406 19.371094 31.933594 C 24.179688 31.738281 28.988281 31.546875 33.796875 31.351562 C 38.605469 31.160156 43.414062 30.964844 48.222656 30.769531 C 50.914062 30.664062 53.601562 30.554688 56.292969 30.445312 C 56.515625 30.4375 56.695312 30.269531 56.703125 30.039062 C 56.824219 26.125 56.890625 22.207031 56.90625 18.292969 C 56.914062 16.339844 56.90625 14.386719 56.890625 12.433594 C 56.886719 11.949219 56.878906 11.460938 56.875 10.972656 C 56.871094 10.742188 56.867188 10.511719 56.863281 10.28125 C 56.863281 10.03125 56.878906 9.761719 56.746094 9.535156 C 56.527344 9.160156 56.078125 9.121094 55.6875 9.117188 C 55.199219 9.109375 54.714844 9.105469 54.226562 9.097656 C 50.320312 9.058594 46.414062 9.085938 42.503906 9.179688 C 38.613281 9.269531 34.722656 9.429688 30.832031 9.652344 C 26.945312 9.875 23.058594 10.160156 19.183594 10.511719 C 18.699219 10.554688 18.210938 10.601562 17.726562 10.648438 C 17.507812 10.667969 17.316406 10.816406 17.316406 11.054688 C 17.316406 11.257812 17.5 11.484375 17.722656 11.460938 Z M 17.722656 11.460938 " fill-opacity="1" fill-rule="nonzero"/><path fill="#08665e" d="M 19.105469 26.082031 C 23.929688 25.789062 28.757812 25.582031 33.589844 25.433594 C 38.390625 25.28125 43.199219 25.1875 48 25.109375 C 50.714844 25.066406 53.429688 25.027344 56.144531 24.988281 C 56.671875 24.984375 56.675781 24.167969 56.148438 24.171875 C 51.316406 24.238281 46.484375 24.304688 41.652344 24.40625 C 36.851562 24.507812 32.046875 24.644531 27.246094 24.847656 C 24.53125 24.964844 21.820312 25.101562 19.113281 25.265625 C 18.589844 25.296875 18.582031 26.113281 19.105469 26.082031 Z M 19.105469 26.082031 " fill-opacity="1" fill-rule="nonzero"/></svg>