<svg xmlns="http://www.w3.org/2000/svg" xmlns:xlink="http://www.w3.org/1999/xlink" width="1920" zoomAndPan="magnify" viewBox="0 0 1440 809.999993" height="1080" preserveAspectRatio="xMidYMid meet" version="1.0"><defs><clipPath id="e602a44e8b"><path d="M 432 320.398438 L 1008 320.398438 L 1008 489.898438 L 432 489.898438 Z M 432 320.398438 " clip-rule="nonzero"/></clipPath></defs><path fill="#ffffff" d="M 433.148438 321.613281 L 1006.851562 321.613281 L 1006.851562 488.6875 L 433.148438 488.6875 Z M 433.148438 321.613281 " fill-opacity="1" fill-rule="nonzero"/><g clip-path="url(#e602a44e8b)"><path fill="#161616" d="M 432 320.460938 L 432 489.636719 L 1008 489.839844 L 1008 320.664062 Z M 1005.699219 393.429688 L 988.691406 393.429688 L 988.691406 411.992188 L 1005.699219 411.992188 L 1005.699219 430.558594 L 988.691406 430.558594 L 988.691406 449.121094 L 1005.699219 449.121094 L 1005.699219 470.125 L 988.386719 470.125 L 988.386719 487.535156 L 969.925781 487.535156 L 969.925781 470.125 L 951.394531 470.125 L 951.394531 487.535156 L 932.863281 487.535156 L 932.863281 470.125 L 914.332031 470.125 L 914.332031 451.628906 L 895.800781 451.628906 L 895.800781 470.125 L 914.332031 470.125 L 914.332031 487.5 L 895.800781 487.5 L 895.800781 470.125 L 877.273438 470.125 L 877.273438 451.628906 L 858.742188 451.628906 L 858.742188 470.125 L 877.273438 470.125 L 877.273438 487.5 L 858.742188 487.5 L 858.742188 470.125 L 840.210938 470.125 L 840.210938 487.5 L 821.679688 487.5 L 821.679688 470.125 L 803.148438 470.125 L 803.148438 451.628906 L 784.621094 451.628906 L 784.621094 470.125 L 803.148438 470.125 L 803.148438 487.46875 L 784.621094 487.46875 L 784.621094 470.125 L 766.089844 470.125 L 766.089844 487.46875 L 747.558594 487.46875 L 747.558594 470.125 L 729.027344 470.125 L 729.027344 487.46875 L 710.496094 487.46875 L 710.496094 470.15625 L 691.96875 470.15625 L 691.96875 451.660156 L 673.4375 451.660156 L 673.4375 470.15625 L 691.96875 470.15625 L 691.96875 487.46875 L 673.4375 487.46875 L 673.4375 470.15625 L 654.90625 470.15625 L 654.90625 487.46875 L 636.375 487.46875 L 636.375 470.15625 L 617.847656 470.15625 L 617.847656 451.660156 L 599.316406 451.660156 L 599.316406 470.15625 L 617.847656 470.15625 L 617.847656 487.433594 L 599.316406 487.433594 L 599.316406 470.15625 L 580.785156 470.15625 L 580.785156 451.660156 L 562.253906 451.660156 L 562.253906 470.15625 L 580.785156 470.15625 L 580.785156 487.433594 L 562.253906 487.433594 L 562.253906 470.15625 L 543.722656 470.15625 L 543.722656 487.433594 L 525.195312 487.433594 L 525.195312 470.15625 L 506.730469 470.15625 L 506.730469 487.398438 L 488.269531 487.398438 L 488.269531 470.15625 L 506.59375 470.15625 L 506.59375 451.660156 L 488.132812 451.660156 L 488.132812 470.15625 L 469.804688 470.15625 L 469.804688 487.398438 L 451.34375 487.398438 L 451.34375 470.15625 L 469.667969 470.15625 L 469.667969 451.660156 L 451.207031 451.660156 L 451.207031 470.15625 L 434.300781 470.15625 L 434.300781 451.558594 L 451.613281 451.558594 L 451.613281 432.996094 L 434.265625 432.996094 L 434.265625 414.433594 L 451.613281 414.433594 L 451.613281 395.867188 L 434.265625 395.867188 L 434.265625 377.304688 L 451.613281 377.304688 L 451.613281 358.742188 L 470.074219 358.742188 L 470.074219 340.175781 L 451.613281 340.175781 L 451.613281 358.742188 L 434.265625 358.742188 L 434.265625 340.175781 L 451.613281 340.175781 L 451.613281 322.765625 L 470.074219 322.765625 L 470.074219 340.175781 L 488.605469 340.175781 L 488.605469 322.765625 L 507.136719 322.765625 L 507.136719 340.175781 L 525.667969 340.175781 L 525.667969 358.671875 L 544.195312 358.671875 L 544.195312 340.175781 L 525.667969 340.175781 L 525.667969 322.765625 L 544.195312 322.765625 L 544.195312 340.144531 L 562.726562 340.144531 L 562.726562 358.640625 L 581.257812 358.640625 L 581.257812 340.175781 L 562.726562 340.175781 L 562.726562 322.796875 L 581.257812 322.796875 L 581.257812 340.175781 L 599.789062 340.175781 L 599.789062 322.796875 L 618.320312 322.796875 L 618.320312 340.175781 L 636.847656 340.175781 L 636.847656 358.671875 L 655.378906 358.671875 L 655.378906 340.175781 L 636.847656 340.175781 L 636.847656 322.796875 L 655.378906 322.796875 L 655.378906 340.144531 L 673.910156 340.144531 L 673.910156 358.640625 L 692.441406 358.640625 L 692.441406 340.175781 L 673.910156 340.175781 L 673.910156 322.832031 L 692.441406 322.832031 L 692.441406 340.175781 L 710.972656 340.175781 L 710.972656 322.832031 L 729.5 322.832031 L 729.5 340.144531 L 748.03125 340.144531 L 748.03125 358.640625 L 766.5625 358.640625 L 766.5625 340.175781 L 748.03125 340.175781 L 748.03125 322.867188 L 766.5625 322.867188 L 766.5625 340.175781 L 785.09375 340.175781 L 785.09375 322.867188 L 803.625 322.867188 L 803.625 340.175781 L 822.152344 340.175781 L 822.152344 322.898438 L 840.683594 322.898438 L 840.683594 340.175781 L 859.214844 340.175781 L 859.214844 358.671875 L 877.746094 358.671875 L 877.746094 340.175781 L 859.214844 340.175781 L 859.214844 322.898438 L 877.746094 322.898438 L 877.746094 340.175781 L 896.277344 340.175781 L 896.277344 322.898438 L 914.808594 322.898438 L 914.808594 340.175781 L 896.277344 340.175781 L 896.277344 358.671875 L 914.808594 358.671875 L 914.808594 340.175781 L 933.269531 340.175781 L 933.269531 322.898438 L 951.730469 322.898438 L 951.730469 340.144531 L 933.40625 340.144531 L 933.40625 358.640625 L 951.730469 358.640625 L 951.730469 374.832031 L 970.195312 374.832031 L 970.195312 356.265625 L 951.867188 356.265625 L 951.867188 340.175781 L 970.195312 340.175781 L 970.195312 322.933594 L 988.65625 322.933594 L 988.65625 340.175781 L 970.332031 340.175781 L 970.332031 358.671875 L 988.691406 358.671875 L 988.691406 374.863281 L 1005.699219 374.863281 Z M 1005.699219 356.300781 L 988.792969 356.300781 L 988.792969 340.175781 L 1005.699219 340.175781 Z M 470.074219 432.996094 L 451.613281 432.996094 L 451.613281 414.433594 L 470.074219 414.433594 Z M 470.074219 395.867188 L 451.613281 395.867188 L 451.613281 377.304688 L 470.074219 377.304688 Z M 488.605469 358.671875 L 488.605469 340.175781 L 507.136719 340.175781 L 507.136719 358.671875 Z M 599.789062 358.671875 L 599.789062 340.175781 L 618.320312 340.175781 L 618.320312 358.671875 Z M 710.972656 358.671875 L 710.972656 340.175781 L 729.5 340.175781 L 729.5 358.671875 Z M 785.128906 358.671875 L 785.128906 340.175781 L 803.65625 340.175781 L 803.65625 358.671875 Z M 822.1875 358.671875 L 822.1875 340.175781 L 840.71875 340.175781 L 840.71875 358.671875 Z M 470.109375 358.742188 L 488.570312 358.742188 L 488.570312 377.304688 L 470.109375 377.304688 Z M 470.109375 395.867188 L 488.570312 395.867188 L 488.570312 414.433594 L 470.109375 414.433594 Z M 470.109375 432.996094 L 488.570312 432.996094 L 488.570312 451.558594 L 470.109375 451.558594 Z M 970.195312 430.558594 L 970.195312 411.992188 L 988.65625 411.992188 L 988.65625 430.558594 Z M 970.195312 393.429688 L 970.195312 374.863281 L 988.65625 374.863281 L 988.65625 393.429688 L 970.195312 393.429688 L 970.195312 411.992188 L 951.730469 411.992188 L 951.730469 393.429688 Z M 951.730469 430.558594 L 970.195312 430.558594 L 970.195312 449.121094 L 951.730469 449.121094 Z M 988.386719 451.558594 L 988.386719 470.125 L 969.925781 470.125 L 969.925781 451.558594 Z M 951.394531 451.628906 L 951.394531 470.125 L 932.863281 470.125 L 932.863281 451.628906 Z M 840.210938 451.628906 L 840.210938 470.125 L 821.679688 470.125 L 821.679688 451.628906 Z M 766.089844 451.628906 L 766.089844 470.125 L 747.558594 470.125 L 747.558594 451.628906 Z M 729.027344 451.628906 L 729.027344 470.125 L 710.496094 470.125 L 710.496094 451.628906 Z M 654.871094 451.628906 L 654.871094 470.125 L 636.34375 470.125 L 636.34375 451.628906 Z M 543.691406 451.628906 L 543.691406 470.125 L 525.160156 470.125 L 525.160156 451.628906 Z M 634.582031 418.734375 C 634.582031 427.339844 627.886719 437.398438 609.085938 437.398438 C 602.425781 437.398438 594.917969 435.738281 590.863281 433.402344 C 590.21875 433.03125 589.949219 432.285156 590.183594 431.574219 L 592.417969 425.136719 C 592.722656 424.257812 593.734375 423.847656 594.582031 424.289062 C 598.910156 426.628906 604.589844 427.980469 609.730469 427.980469 C 617.644531 427.980469 622.546875 424.664062 622.546875 419.34375 C 622.546875 415.277344 620.617188 412.265625 610.675781 408.945312 C 602.492188 406.402344 591.539062 401.761719 591.539062 390.617188 C 591.539062 380.183594 601.277344 372.933594 615.207031 372.933594 C 623.527344 372.933594 628.699219 374.863281 631.035156 376.015625 C 631.742188 376.355469 632.082031 377.203125 631.777344 377.949219 L 629.34375 384.214844 C 629.039062 385.027344 628.058594 385.402344 627.28125 385.027344 C 624.710938 383.808594 620.449219 382.351562 614.9375 382.351562 C 607.058594 382.351562 603.542969 386.078125 603.542969 389.769531 C 603.542969 394.175781 606.585938 396.613281 616.121094 399.832031 C 625.21875 402.847656 634.582031 407.488281 634.582031 418.734375 Z M 688.28125 383.46875 L 668.601562 383.46875 L 668.601562 435.230469 C 668.601562 435.941406 668.027344 436.519531 667.316406 436.519531 L 657.882812 436.519531 C 657.171875 436.519531 656.597656 435.941406 656.597656 435.230469 L 656.597656 383.46875 L 637.019531 383.46875 C 636.308594 383.46875 635.734375 382.894531 635.734375 382.183594 L 635.734375 375.136719 C 635.734375 374.425781 636.308594 373.847656 637.019531 373.847656 L 688.214844 373.847656 C 688.925781 373.847656 689.5 374.425781 689.5 375.136719 L 689.5 382.183594 C 689.566406 382.894531 688.992188 383.46875 688.28125 383.46875 Z M 718.410156 375.339844 C 718.074219 374.457031 717.191406 373.882812 716.246094 373.882812 L 706.675781 373.882812 C 705.730469 373.882812 704.851562 374.457031 704.511719 375.375 L 681.855469 433.367188 C 681.25 434.894531 682.398438 436.519531 684.019531 436.519531 L 691.460938 436.519531 C 692.40625 436.519531 693.285156 435.910156 693.625 435.027344 L 700.183594 417.785156 L 722.402344 417.785156 L 729.128906 435.0625 C 729.46875 435.941406 730.347656 436.550781 731.292969 436.550781 L 739.039062 436.550781 C 740.660156 436.550781 741.777344 434.894531 741.203125 433.367188 Z M 703.160156 408.707031 L 709.078125 393.53125 C 709.789062 391.566406 710.496094 389.5 711.207031 387.195312 C 711.851562 389.261719 712.5625 391.398438 713.441406 393.667969 L 719.324219 408.742188 L 703.160156 408.742188 Z M 796.152344 434.179688 C 794.796875 432.011719 793.105469 425.949219 791.042969 418.261719 C 789.792969 413.550781 787.730469 410.027344 784.824219 407.722656 C 784.148438 407.183594 784.246094 406.167969 785.027344 405.726562 C 790.707031 402.542969 793.953125 397.359375 793.953125 391.160156 C 793.953125 386.113281 791.789062 381.539062 788 378.660156 C 783.4375 375.070312 777.046875 373.476562 767.238281 373.476562 C 760.882812 373.476562 754.421875 373.949219 749.992188 374.730469 L 749.722656 374.761719 C 749.148438 374.863281 748.742188 375.375 748.742188 375.949219 L 748.742188 435.300781 C 748.742188 435.976562 749.285156 436.519531 749.960938 436.519531 L 759.429688 436.519531 C 760.105469 436.519531 760.644531 435.976562 760.644531 435.300781 L 760.644531 411.890625 C 760.644531 411.214844 761.1875 410.671875 761.863281 410.671875 L 767.40625 410.671875 C 774.746094 410.910156 777.824219 413.550781 779.714844 421.105469 C 781.980469 429.84375 783.367188 434.113281 784.484375 435.808594 L 784.925781 436.484375 L 795.441406 436.484375 C 796.386719 436.484375 796.960938 435.433594 796.453125 434.65625 Z M 768.117188 401.832031 L 761.796875 401.832031 C 761.117188 401.832031 760.578125 401.289062 760.578125 400.609375 L 760.578125 383.910156 C 760.578125 383.300781 761.050781 382.792969 761.660156 382.722656 C 763.179688 382.554688 765.242188 382.417969 767.78125 382.417969 C 774.273438 382.488281 782.015625 384.214844 782.015625 392.039062 C 782.050781 397.96875 776.570312 401.832031 768.117188 401.832031 Z M 850.21875 377.203125 L 850.21875 380.148438 C 850.21875 381.980469 848.734375 383.46875 846.90625 383.46875 L 829.289062 383.46875 L 829.289062 433.164062 C 829.289062 434.996094 827.800781 436.484375 825.976562 436.484375 L 820.632812 436.484375 C 818.804688 436.484375 817.320312 434.996094 817.320312 433.164062 L 817.320312 383.46875 L 799.800781 383.46875 C 797.976562 383.46875 796.488281 381.980469 796.488281 380.148438 L 796.488281 377.203125 C 796.488281 375.375 797.976562 373.882812 799.800781 373.882812 L 846.90625 373.882812 C 848.734375 373.882812 850.21875 375.375 850.21875 377.203125 Z M 850.21875 377.203125 " fill-opacity="1" fill-rule="nonzero"/></g></svg>