<svg version="1.1" id="Layer_1" xmlns="http://www.w3.org/2000/svg" xmlns:xlink="http://www.w3.org/1999/xlink" x="0px" y="0px"
	 width="100%" viewBox="0 0 512 512" enable-background="new 0 0 512 512" xml:space="preserve">
<path fill="none" opacity="1.000000" stroke="none" 
	d="
M286.000000,513.000000 
	C190.689804,513.000000 95.879608,513.000000 1.034703,513.000000 
	C1.034703,342.398102 1.034703,171.796219 1.034703,1.097158 
	C171.560211,1.097158 342.120514,1.097158 512.840393,1.097158 
	C512.840393,171.666550 512.840393,342.333252 512.840393,513.000000 
	C437.462860,513.000000 361.981415,513.000000 286.000000,513.000000 
M249.923553,37.042347 
	C241.552078,40.143196 236.567841,46.097534 233.673111,54.559296 
	C228.444550,69.843216 222.665009,84.940636 216.933365,100.046806 
	C216.458130,101.299324 214.645782,102.799576 213.376587,102.875282 
	C203.966034,103.436615 194.535278,103.654648 185.111710,104.003571 
	C176.519928,104.321693 167.922302,104.554932 159.342575,105.077530 
	C156.993988,105.220581 154.536942,105.930511 152.408005,106.957359 
	C136.829712,114.471169 134.246216,135.295441 146.156967,145.418472 
	C160.658371,157.743317 175.954773,169.132751 190.912567,180.914703 
	C185.945267,197.810974 180.786209,214.653992 176.072708,231.620773 
	C172.447449,244.670303 177.241974,253.513474 184.551041,258.722412 
	C192.336792,264.271088 203.759949,265.377502 214.161972,258.028198 
	C227.026093,248.939377 240.222549,240.321228 253.099777,231.250366 
	C255.953720,229.240005 257.786743,229.030106 260.739960,231.099899 
	C274.166626,240.509995 287.897736,249.485886 301.317566,258.905426 
	C309.516541,264.660370 321.202942,264.316284 329.315552,258.898956 
	C337.253479,253.598251 340.813995,243.465027 338.036133,233.322037 
	C333.217651,215.728119 328.165100,198.198303 323.220154,180.675003 
	C329.474335,175.795517 335.782928,170.916382 342.044678,165.977844 
	C350.891663,159.000397 360.064117,152.381531 368.446808,144.882126 
	C381.030975,133.623978 375.303162,109.172050 357.563965,105.965012 
	C351.961639,104.952179 346.247314,104.303741 340.560181,104.066978 
	C327.479797,103.522430 314.385834,103.248039 301.294556,103.066971 
	C298.454529,103.027687 297.514191,102.022850 296.597076,99.362755 
	C291.225922,83.783882 285.575500,68.300507 279.938538,52.814312 
	C275.368011,40.257809 263.399261,33.822701 249.923553,37.042347 
M508.999817,342.535339 
	C508.757690,340.274109 508.851166,337.913818 508.217712,335.768127 
	C504.741852,323.993958 495.509827,319.512970 484.036743,319.073395 
	C467.791107,318.450928 451.523804,318.405243 435.273499,317.875427 
	C433.834961,317.828552 431.657501,316.326294 431.167938,315.002686 
	C425.955139,300.908417 421.155304,286.661072 415.920624,272.575317 
	C414.133606,267.766815 412.196930,262.680298 409.025146,258.781128 
	C398.491821,245.832352 374.642090,248.006699 367.926056,268.597321 
	C362.916229,283.956848 357.367126,299.144806 351.759796,314.298767 
	C351.162842,315.912048 348.603058,317.774017 346.885162,317.844421 
	C332.139099,318.448608 317.375854,318.620392 302.620972,319.034607 
	C299.199829,319.130676 295.768616,319.511627 292.380707,320.019470 
	C283.484283,321.353119 277.735657,326.681549 274.646362,334.875793 
	C271.231537,343.933533 272.400696,352.732330 279.768280,359.017761 
	C293.175323,370.455627 307.317108,381.030273 321.079651,392.055817 
	C322.915192,393.526306 325.726868,394.311981 324.499115,398.141266 
	C320.897217,409.375793 317.692627,420.740051 314.463531,432.090851 
	C312.516571,438.934601 309.979553,445.756073 309.210510,452.752747 
	C308.229645,461.677032 312.480286,469.035126 319.974884,473.918579 
	C329.111938,479.872375 338.396179,479.138794 347.346466,473.135284 
	C361.368774,463.729736 375.418396,454.363373 389.335754,444.804688 
	C391.134094,443.569519 391.879730,443.571472 393.663483,444.818146 
	C405.898224,453.368958 418.324951,461.644440 430.598206,470.141022 
	C436.258179,474.059387 442.031403,477.956238 449.116150,477.914154 
	C465.578003,477.816376 476.935883,464.375580 472.161865,446.678589 
	C467.502594,429.407013 462.317474,412.277313 457.329773,394.969330 
	C458.311371,394.425049 459.233429,394.055786 459.990784,393.472595 
	C471.751129,384.416656 483.553284,375.413147 495.211090,366.226532 
	C502.602112,360.402222 510.048157,354.463257 508.999817,342.535339 
M52.999302,407.536377 
	C50.347488,416.361481 47.450241,425.122498 45.124161,434.032654 
	C43.370468,440.750153 41.884922,447.606873 41.115971,454.494965 
	C40.124012,463.380676 44.591366,469.935120 51.964500,474.417023 
	C60.577732,479.652710 69.410706,479.194672 77.664085,473.739502 
	C91.485023,464.604370 105.135612,455.205109 118.690819,445.679291 
	C121.641876,443.605469 123.541992,443.788940 126.410561,445.779785 
	C139.610840,454.941040 153.005493,463.821960 166.317337,472.822815 
	C172.798126,477.204773 179.649796,479.372986 187.502289,477.006378 
	C198.289490,473.755280 207.646255,461.857574 204.104446,449.415527 
	C199.323334,432.620056 194.823105,415.742310 189.810028,399.017456 
	C188.962036,396.188354 189.349838,394.694672 191.357803,393.149231 
	C204.018265,383.405182 216.566986,373.509918 229.398148,363.995697 
	C238.850861,356.986572 243.500778,345.953064 239.749832,335.684021 
	C235.964340,325.320374 228.329468,319.324524 215.205032,319.011169 
	C199.282852,318.630951 183.359512,318.207947 167.434738,318.105530 
	C164.241440,318.084961 162.940018,316.652466 162.067688,314.181519 
	C156.687286,298.941376 151.401718,283.667572 145.977417,268.443146 
	C140.453979,252.940399 127.936111,248.033279 114.259666,252.147369 
	C105.950607,254.646851 101.767586,261.655060 99.010506,269.473969 
	C93.636208,284.715179 88.354019,299.989563 82.828018,315.175385 
	C82.378708,316.410126 80.383331,317.831940 79.057411,317.882477 
	C65.307419,318.406494 51.545708,318.611847 37.791035,319.030273 
	C33.036030,319.174896 28.248798,319.374939 23.551601,320.063477 
	C14.918358,321.329010 8.651423,326.317017 6.172172,334.526520 
	C3.598471,343.048767 3.090938,352.440704 10.545790,358.774933 
	C25.447569,371.436615 41.088421,383.228485 56.669159,395.573669 
	C55.524494,399.108948 54.293545,402.910675 52.999302,407.536377 
z"/>
<path fill="#57A4FF" opacity="1.000000" stroke="none" 
	d="
M250.342224,37.023109 
	C263.399261,33.822701 275.368011,40.257809 279.938538,52.814312 
	C285.575500,68.300507 291.225922,83.783882 296.597076,99.362755 
	C297.514191,102.022850 298.454529,103.027687 301.294556,103.066971 
	C314.385834,103.248039 327.479797,103.522430 340.560181,104.066978 
	C346.247314,104.303741 351.961639,104.952179 357.563965,105.965012 
	C375.303162,109.172050 381.030975,133.623978 368.446808,144.882126 
	C360.064117,152.381531 350.891663,159.000397 342.044678,165.977844 
	C335.782928,170.916382 329.474335,175.795517 323.220154,180.675003 
	C328.165100,198.198303 333.217651,215.728119 338.036133,233.322037 
	C340.813995,243.465027 337.253479,253.598251 329.315552,258.898956 
	C321.202942,264.316284 309.516541,264.660370 301.317566,258.905426 
	C287.897736,249.485886 274.166626,240.509995 260.739960,231.099899 
	C257.786743,229.030106 255.953720,229.240005 253.099777,231.250366 
	C240.222549,240.321228 227.026093,248.939377 214.161972,258.028198 
	C203.759949,265.377502 192.336792,264.271088 184.551041,258.722412 
	C177.241974,253.513474 172.447449,244.670303 176.072708,231.620773 
	C180.786209,214.653992 185.945267,197.810974 190.909943,180.920761 
	C175.954773,169.132751 160.658371,157.743317 146.156967,145.418472 
	C134.246216,135.295441 136.829712,114.471169 152.408005,106.957359 
	C154.536942,105.930511 156.993988,105.220581 159.342575,105.077530 
	C167.922302,104.554932 176.519928,104.321693 185.111710,104.003571 
	C194.535278,103.654648 203.966034,103.436615 213.376587,102.875282 
	C214.645782,102.799576 216.458130,101.299324 216.933365,100.046806 
	C222.665009,84.940636 228.444550,69.843216 233.673111,54.559296 
	C236.567841,46.097534 241.552078,40.143196 250.342224,37.023109 
M313.050201,236.189774 
	C313.050201,236.189774 313.288971,236.192490 313.288971,236.192490 
	C313.288971,236.192490 313.016449,235.987610 313.019836,235.186249 
	C312.611908,233.407669 312.287628,231.604980 311.782898,229.854294 
	C307.449188,214.822647 303.382416,199.704590 298.618805,184.809708 
	C295.549805,175.213501 298.500244,168.350815 306.095642,162.624680 
	C313.934662,156.714920 321.682190,150.683228 329.440857,144.667648 
	C335.676575,139.832886 341.869171,134.942490 348.966187,129.383347 
	C346.473053,129.193375 345.212036,129.054657 343.947571,129.007355 
	C326.831543,128.367264 309.718689,127.591248 292.597107,127.172699 
	C284.155792,126.966339 278.874115,123.067131 276.108612,115.257462 
	C271.885406,103.331421 267.598297,91.427872 263.302338,79.527779 
	C261.384491,74.215210 259.379150,68.934219 256.977478,62.464275 
	C255.943878,65.118820 255.439362,66.335754 254.992645,67.573547 
	C249.172226,83.701294 243.330566,99.821487 237.560638,115.967308 
	C235.343170,122.172409 231.192734,126.137024 224.604904,126.918343 
	C219.331329,127.543800 213.997467,127.755325 208.683167,127.924706 
	C195.047684,128.359253 181.408051,128.662491 167.770874,129.047119 
	C167.208115,129.063019 166.653625,129.371109 165.527512,129.717941 
	C169.394653,132.762375 172.763153,135.431747 176.150146,138.077499 
	C187.557526,146.988419 199.040054,155.804977 210.354309,164.832489 
	C216.111954,169.426468 218.036530,175.452438 215.895950,182.669525 
	C213.529755,190.647369 211.207001,198.639145 208.971954,206.654587 
	C206.250214,216.415497 203.639664,226.207428 200.817780,236.066330 
	C200.817780,236.066330 200.831329,236.308655 200.831329,236.308655 
	C200.831329,236.308655 201.017471,236.022629 201.726990,235.959122 
	C203.314987,235.074966 204.980377,234.304916 206.478836,233.288742 
	C219.547134,224.426620 232.559875,215.482437 245.641937,206.640762 
	C254.250015,200.822845 259.642792,200.783066 268.129883,206.469437 
	C279.867584,214.333725 291.515961,222.331421 303.258301,230.188660 
	C306.396149,232.288269 309.737030,234.084396 313.050201,236.189774 
z"/>
<path fill="#57A4FF" opacity="1.000000" stroke="none" 
	d="
M508.999817,342.998077 
	C510.048157,354.463257 502.602112,360.402222 495.211090,366.226532 
	C483.553284,375.413147 471.751129,384.416656 459.990784,393.472595 
	C459.233429,394.055786 458.311371,394.425049 457.329773,394.969330 
	C462.317474,412.277313 467.502594,429.407013 472.161865,446.678589 
	C476.935883,464.375580 465.578003,477.816376 449.116150,477.914154 
	C442.031403,477.956238 436.258179,474.059387 430.598206,470.141022 
	C418.324951,461.644440 405.898224,453.368958 393.663483,444.818146 
	C391.879730,443.571472 391.134094,443.569519 389.335754,444.804688 
	C375.418396,454.363373 361.368774,463.729736 347.346466,473.135284 
	C338.396179,479.138794 329.111938,479.872375 319.974884,473.918579 
	C312.480286,469.035126 308.229645,461.677032 309.210510,452.752747 
	C309.979553,445.756073 312.516571,438.934601 314.463531,432.090851 
	C317.692627,420.740051 320.897217,409.375793 324.499115,398.141266 
	C325.726868,394.311981 322.915192,393.526306 321.079651,392.055817 
	C307.317108,381.030273 293.175323,370.455627 279.768280,359.017761 
	C272.400696,352.732330 271.231537,343.933533 274.646362,334.875793 
	C277.735657,326.681549 283.484283,321.353119 292.380707,320.019470 
	C295.768616,319.511627 299.199829,319.130676 302.620972,319.034607 
	C317.375854,318.620392 332.139099,318.448608 346.885162,317.844421 
	C348.603058,317.774017 351.162842,315.912048 351.759796,314.298767 
	C357.367126,299.144806 362.916229,283.956848 367.926056,268.597321 
	C374.642090,248.006699 398.491821,245.832352 409.025146,258.781128 
	C412.196930,262.680298 414.133606,267.766815 415.920624,272.575317 
	C421.155304,286.661072 425.955139,300.908417 431.167938,315.002686 
	C431.657501,316.326294 433.834961,317.828552 435.273499,317.875427 
	C451.523804,318.405243 467.791107,318.450928 484.036743,319.073395 
	C495.509827,319.512970 504.741852,323.993958 508.217712,335.768127 
	C508.851166,337.913818 508.757690,340.274109 508.999817,342.998077 
M306.309692,343.443665 
	C304.575043,343.727661 302.840393,344.011658 300.437653,344.405060 
	C301.497070,345.396667 302.020386,345.970001 302.624390,346.439575 
	C315.760529,356.652649 328.869141,366.901642 342.061981,377.041077 
	C350.704620,383.683380 352.613342,389.104126 349.567169,399.641876 
	C346.285767,410.993561 342.932678,422.324554 339.646271,433.674805 
	C338.060059,439.153137 336.555084,444.655029 335.013306,450.146240 
	C337.553406,449.844666 339.091064,448.944000 340.565216,447.949219 
	C353.676697,439.101166 366.763947,430.217163 379.885040,421.383423 
	C388.950592,415.280151 393.784424,415.192078 402.779846,421.248840 
	C416.175201,430.268066 429.477051,439.426270 442.827362,448.512573 
	C444.246277,449.478271 445.723297,450.358490 448.049713,451.834320 
	C447.601288,449.890503 447.460785,449.110626 447.240997,448.353760 
	C442.646698,432.530975 438.057373,416.706726 433.437347,400.891510 
	C430.020233,389.194153 431.655334,383.959229 441.226074,376.565216 
	C450.312103,369.545654 459.454742,362.599396 468.533203,355.570129 
	C473.070160,352.057312 477.519379,348.431183 482.008301,344.856323 
	C464.055542,343.121216 446.482666,342.470032 428.904510,342.033295 
	C418.606537,341.777466 413.606506,338.459991 410.114227,328.831055 
	C406.765625,319.598328 403.504944,310.333710 400.157349,301.100647 
	C397.380646,293.442139 394.533691,285.809113 391.563904,277.746735 
	C390.863190,278.677063 390.588593,278.908661 390.482635,279.201385 
	C384.532135,295.634735 378.554535,312.058472 372.673767,328.516846 
	C369.289337,337.988861 363.986237,341.807556 354.057404,342.023346 
	C338.422302,342.363129 322.790497,342.856934 306.309692,343.443665 
z"/>
<path fill="#57A4FF" opacity="1.000000" stroke="none" 
	d="
M53.030949,407.124390 
	C54.293545,402.910675 55.524494,399.108948 56.669159,395.573669 
	C41.088421,383.228485 25.447569,371.436615 10.545790,358.774933 
	C3.090938,352.440704 3.598471,343.048767 6.172172,334.526520 
	C8.651423,326.317017 14.918358,321.329010 23.551601,320.063477 
	C28.248798,319.374939 33.036030,319.174896 37.791035,319.030273 
	C51.545708,318.611847 65.307419,318.406494 79.057411,317.882477 
	C80.383331,317.831940 82.378708,316.410126 82.828018,315.175385 
	C88.354019,299.989563 93.636208,284.715179 99.010506,269.473969 
	C101.767586,261.655060 105.950607,254.646851 114.259666,252.147369 
	C127.936111,248.033279 140.453979,252.940399 145.977417,268.443146 
	C151.401718,283.667572 156.687286,298.941376 162.067688,314.181519 
	C162.940018,316.652466 164.241440,318.084961 167.434738,318.105530 
	C183.359512,318.207947 199.282852,318.630951 215.205032,319.011169 
	C228.329468,319.324524 235.964340,325.320374 239.749832,335.684021 
	C243.500778,345.953064 238.850861,356.986572 229.398148,363.995697 
	C216.566986,373.509918 204.018265,383.405182 191.357803,393.149231 
	C189.349838,394.694672 188.962036,396.188354 189.810028,399.017456 
	C194.823105,415.742310 199.323334,432.620056 204.104446,449.415527 
	C207.646255,461.857574 198.289490,473.755280 187.502289,477.006378 
	C179.649796,479.372986 172.798126,477.204773 166.317337,472.822815 
	C153.005493,463.821960 139.610840,454.941040 126.410561,445.779785 
	C123.541992,443.788940 121.641876,443.605469 118.690819,445.679291 
	C105.135612,455.205109 91.485023,464.604370 77.664085,473.739502 
	C69.410706,479.194672 60.577732,479.652710 51.964500,474.417023 
	C44.591366,469.935120 40.124012,463.380676 41.115971,454.494965 
	C41.884922,447.606873 43.370468,440.750153 45.124161,434.032654 
	C47.450241,425.122498 50.347488,416.361481 53.030949,407.124390 
M105.265282,324.789368 
	C100.270218,339.534241 96.995010,341.804535 81.369690,342.063782 
	C68.062515,342.284485 54.757679,342.699097 41.455883,343.148499 
	C38.581631,343.245636 35.724812,343.858551 31.790926,344.373901 
	C33.802692,346.118927 34.850819,347.117218 35.988064,348.000824 
	C48.338993,357.597443 60.725639,367.148224 73.057861,376.768829 
	C82.325394,383.998596 83.961082,389.363495 80.607521,400.750427 
	C77.222023,412.245819 73.839790,423.742218 70.498932,435.250610 
	C69.050041,440.241669 67.708405,445.263824 65.922112,451.698059 
	C68.815659,449.930634 70.376419,449.065277 71.846001,448.065887 
	C84.924950,439.171295 98.085266,430.391602 111.018921,421.289978 
	C118.829453,415.793640 126.275078,415.615295 134.080566,421.088470 
	C143.213058,427.492096 152.457428,433.736694 161.676590,440.016022 
	C167.070816,443.690094 172.510513,447.297394 177.929733,450.934784 
	C178.271820,450.626770 178.613907,450.318756 178.955994,450.010712 
	C178.194382,447.174896 177.477737,444.326111 176.663635,441.505432 
	C172.371490,426.634460 168.023788,411.779480 163.759674,396.900513 
	C161.634506,389.485046 163.920624,383.441254 169.901581,378.769043 
	C179.342499,371.393890 188.853912,364.109039 198.310699,356.754089 
	C203.323761,352.855255 208.284531,348.889191 213.268906,344.953461 
	C213.108017,344.513794 212.947128,344.074127 212.786240,343.634460 
	C195.189758,343.088989 177.595276,342.462494 159.996017,342.029602 
	C150.064529,341.785309 144.678024,338.013855 141.350372,328.566071 
	C137.866257,318.674042 134.338272,308.797272 130.778748,298.932098 
	C128.259460,291.949890 125.655800,284.998077 122.650391,276.839935 
	C116.643333,293.441406 111.101646,308.756714 105.265282,324.789368 
z"/>
<path fill="#9BC9FF" opacity="1.000000" stroke="none" 
	d="
M200.981018,235.985931 
	C203.639664,226.207428 206.250214,216.415497 208.971954,206.654587 
	C211.207001,198.639145 213.529755,190.647369 215.895950,182.669525 
	C218.036530,175.452438 216.111954,169.426468 210.354309,164.832489 
	C199.040054,155.804977 187.557526,146.988419 176.150146,138.077499 
	C172.763153,135.431747 169.394653,132.762375 165.527512,129.717941 
	C166.653625,129.371109 167.208115,129.063019 167.770874,129.047119 
	C181.408051,128.662491 195.047684,128.359253 208.683167,127.924706 
	C213.997467,127.755325 219.331329,127.543800 224.604904,126.918343 
	C231.192734,126.137024 235.343170,122.172409 237.560638,115.967308 
	C243.330566,99.821487 249.172226,83.701294 254.992645,67.573547 
	C255.439362,66.335754 255.943878,65.118820 256.977478,62.464275 
	C259.379150,68.934219 261.384491,74.215210 263.302338,79.527779 
	C267.598297,91.427872 271.885406,103.331421 276.108612,115.257462 
	C278.874115,123.067131 284.155792,126.966339 292.597107,127.172699 
	C309.718689,127.591248 326.831543,128.367264 343.947571,129.007355 
	C345.212036,129.054657 346.473053,129.193375 348.966187,129.383347 
	C341.869171,134.942490 335.676575,139.832886 329.440857,144.667648 
	C321.682190,150.683228 313.934662,156.714920 306.095642,162.624680 
	C298.500244,168.350815 295.549805,175.213501 298.618805,184.809708 
	C303.382416,199.704590 307.449188,214.822647 311.782898,229.854294 
	C312.287628,231.604980 312.611908,233.407669 313.009460,235.593887 
	C312.999115,236.001526 312.984711,236.019852 312.984711,236.019852 
	C309.737030,234.084396 306.396149,232.288269 303.258301,230.188660 
	C291.515961,222.331421 279.867584,214.333725 268.129883,206.469437 
	C259.642792,200.783066 254.250015,200.822845 245.641937,206.640762 
	C232.559875,215.482437 219.547134,224.426620 206.478836,233.288742 
	C204.980377,234.304916 203.314987,235.074966 201.364014,235.980530 
	C201.001022,236.001953 200.981003,235.985931 200.981018,235.985931 
z"/>
<path fill="#9BC9FF" opacity="1.000000" stroke="none" 
	d="
M201.009247,236.012299 
	C201.017471,236.022629 200.831329,236.308655 200.831329,236.308655 
	C200.831329,236.308655 200.817780,236.066330 200.899384,236.026123 
	C200.981003,235.985931 201.001022,236.001953 201.009247,236.012299 
z"/>
<path fill="#9BC9FF" opacity="1.000000" stroke="none" 
	d="
M313.007782,235.994568 
	C313.016449,235.987610 313.288971,236.192490 313.288971,236.192490 
	C313.288971,236.192490 313.050201,236.189774 313.017456,236.104813 
	C312.984711,236.019852 312.999115,236.001526 313.007782,235.994568 
z"/>
<path fill="#9BC9FF" opacity="1.000000" stroke="none" 
	d="
M306.733521,343.364594 
	C322.790497,342.856934 338.422302,342.363129 354.057404,342.023346 
	C363.986237,341.807556 369.289337,337.988861 372.673767,328.516846 
	C378.554535,312.058472 384.532135,295.634735 390.482635,279.201385 
	C390.588593,278.908661 390.863190,278.677063 391.563904,277.746735 
	C394.533691,285.809113 397.380646,293.442139 400.157349,301.100647 
	C403.504944,310.333710 406.765625,319.598328 410.114227,328.831055 
	C413.606506,338.459991 418.606537,341.777466 428.904510,342.033295 
	C446.482666,342.470032 464.055542,343.121216 482.008301,344.856323 
	C477.519379,348.431183 473.070160,352.057312 468.533203,355.570129 
	C459.454742,362.599396 450.312103,369.545654 441.226074,376.565216 
	C431.655334,383.959229 430.020233,389.194153 433.437347,400.891510 
	C438.057373,416.706726 442.646698,432.530975 447.240997,448.353760 
	C447.460785,449.110626 447.601288,449.890503 448.049713,451.834320 
	C445.723297,450.358490 444.246277,449.478271 442.827362,448.512573 
	C429.477051,439.426270 416.175201,430.268066 402.779846,421.248840 
	C393.784424,415.192078 388.950592,415.280151 379.885040,421.383423 
	C366.763947,430.217163 353.676697,439.101166 340.565216,447.949219 
	C339.091064,448.944000 337.553406,449.844666 335.013306,450.146240 
	C336.555084,444.655029 338.060059,439.153137 339.646271,433.674805 
	C342.932678,422.324554 346.285767,410.993561 349.567169,399.641876 
	C352.613342,389.104126 350.704620,383.683380 342.061981,377.041077 
	C328.869141,366.901642 315.760529,356.652649 302.624390,346.439575 
	C302.020386,345.970001 301.497070,345.396667 300.437653,344.405060 
	C302.840393,344.011658 304.575043,343.727661 306.733521,343.364594 
z"/>
<path fill="#9BC9FF" opacity="1.000000" stroke="none" 
	d="
M105.412621,324.430695 
	C111.101646,308.756714 116.643333,293.441406 122.650391,276.839935 
	C125.655800,284.998077 128.259460,291.949890 130.778748,298.932098 
	C134.338272,308.797272 137.866257,318.674042 141.350372,328.566071 
	C144.678024,338.013855 150.064529,341.785309 159.996017,342.029602 
	C177.595276,342.462494 195.189758,343.088989 212.786240,343.634460 
	C212.947128,344.074127 213.108017,344.513794 213.268906,344.953461 
	C208.284531,348.889191 203.323761,352.855255 198.310699,356.754089 
	C188.853912,364.109039 179.342499,371.393890 169.901581,378.769043 
	C163.920624,383.441254 161.634506,389.485046 163.759674,396.900513 
	C168.023788,411.779480 172.371490,426.634460 176.663635,441.505432 
	C177.477737,444.326111 178.194382,447.174896 178.955994,450.010712 
	C178.613907,450.318756 178.271820,450.626770 177.929733,450.934784 
	C172.510513,447.297394 167.070816,443.690094 161.676590,440.016022 
	C152.457428,433.736694 143.213058,427.492096 134.080566,421.088470 
	C126.275078,415.615295 118.829453,415.793640 111.018921,421.289978 
	C98.085266,430.391602 84.924950,439.171295 71.846001,448.065887 
	C70.376419,449.065277 68.815659,449.930634 65.922112,451.698059 
	C67.708405,445.263824 69.050041,440.241669 70.498932,435.250610 
	C73.839790,423.742218 77.222023,412.245819 80.607521,400.750427 
	C83.961082,389.363495 82.325394,383.998596 73.057861,376.768829 
	C60.725639,367.148224 48.338993,357.597443 35.988064,348.000824 
	C34.850819,347.117218 33.802692,346.118927 31.790926,344.373901 
	C35.724812,343.858551 38.581631,343.245636 41.455883,343.148499 
	C54.757679,342.699097 68.062515,342.284485 81.369690,342.063782 
	C96.995010,341.804535 100.270218,339.534241 105.412621,324.430695 
z"/>
</svg>