<svg xmlns="http://www.w3.org/2000/svg" xmlns:xlink="http://www.w3.org/1999/xlink" width="60" zoomAndPan="magnify" viewBox="0 0 45 44.999999" height="60" preserveAspectRatio="xMidYMid meet" version="1.0"><defs><clipPath id="a0ef6d759e"><path d="M 4.964844 30.28125 L 44.980469 30.28125 L 44.980469 41.113281 L 4.964844 41.113281 Z M 4.964844 30.28125 " clip-rule="nonzero"/></clipPath><clipPath id="0333392e26"><path d="M 8 2.113281 L 45 2.113281 L 45 11 L 8 11 Z M 8 2.113281 " clip-rule="nonzero"/></clipPath><clipPath id="a83071a11f"><path d="M 8 2.113281 L 45 2.113281 L 45 12 L 8 12 Z M 8 2.113281 " clip-rule="nonzero"/></clipPath><clipPath id="641c221f81"><path d="M 12 2.113281 L 41 2.113281 L 41 11 L 12 11 Z M 12 2.113281 " clip-rule="nonzero"/></clipPath><clipPath id="516409baf8"><path d="M 12 2.113281 L 42 2.113281 L 42 12 L 12 12 Z M 12 2.113281 " clip-rule="nonzero"/></clipPath></defs><path fill="#ffffff" d="M 41.929688 29.132812 L 6.847656 29.132812 L 6.847656 22.367188 L 41.929688 22.367188 L 41.929688 29.132812 " fill-opacity="1" fill-rule="nonzero"/><path fill="#4a1856" d="M 7.265625 28.714844 L 41.511719 28.714844 L 41.511719 22.785156 L 7.265625 22.785156 Z M 41.929688 29.550781 L 6.847656 29.550781 C 6.621094 29.550781 6.433594 29.363281 6.433594 29.132812 L 6.433594 22.367188 C 6.433594 22.136719 6.621094 21.949219 6.847656 21.949219 L 41.929688 21.949219 C 42.160156 21.949219 42.347656 22.136719 42.347656 22.367188 L 42.347656 29.132812 C 42.347656 29.363281 42.160156 29.550781 41.929688 29.550781 " fill-opacity="1" fill-rule="nonzero"/><path fill="#ffffff" d="M 39.429688 27.972656 L 6.78125 27.972656 C 6.011719 27.972656 5.390625 28.597656 5.390625 29.371094 C 5.390625 30.140625 6.011719 30.765625 6.78125 30.765625 L 40.285156 30.765625 C 43.050781 30.765625 44.566406 28.566406 44.566406 25.855469 L 44.566406 25.6875 C 44.566406 22.976562 43.050781 20.78125 40.285156 20.78125 L 6.832031 20.78125 C 6.039062 20.78125 5.394531 21.425781 5.394531 22.222656 C 5.394531 23.015625 6.039062 23.660156 6.832031 23.660156 L 39.429688 23.660156 C 40.40625 23.660156 41.199219 24.457031 41.199219 25.4375 L 41.199219 26.199219 C 41.199219 27.179688 40.40625 27.972656 39.429688 27.972656 " fill-opacity="1" fill-rule="nonzero"/><path fill="#4a1856" d="M 6.78125 28.390625 C 6.242188 28.390625 5.804688 28.828125 5.804688 29.371094 C 5.804688 29.910156 6.242188 30.347656 6.78125 30.347656 L 40.285156 30.347656 C 43.136719 30.347656 44.148438 27.929688 44.148438 25.855469 L 44.148438 25.6875 C 44.148438 23.617188 43.136719 21.199219 40.285156 21.199219 L 6.832031 21.199219 C 6.269531 21.199219 5.8125 21.65625 5.8125 22.222656 C 5.8125 22.785156 6.269531 23.242188 6.832031 23.242188 L 39.429688 23.242188 C 40.636719 23.242188 41.617188 24.226562 41.617188 25.4375 L 41.617188 26.199219 C 41.617188 27.40625 40.636719 28.390625 39.429688 28.390625 Z M 40.285156 31.183594 L 6.78125 31.183594 C 5.785156 31.183594 4.972656 30.371094 4.972656 29.371094 C 4.972656 28.371094 5.785156 27.554688 6.78125 27.554688 L 39.429688 27.554688 C 40.175781 27.554688 40.78125 26.945312 40.78125 26.199219 L 40.78125 25.4375 C 40.78125 24.6875 40.175781 24.078125 39.429688 24.078125 L 6.832031 24.078125 C 5.808594 24.078125 4.976562 23.246094 4.976562 22.222656 C 4.976562 21.195312 5.808594 20.363281 6.832031 20.363281 L 40.285156 20.363281 C 43.09375 20.363281 44.980469 22.503906 44.980469 25.6875 L 44.980469 25.855469 C 44.980469 29.042969 43.09375 31.183594 40.285156 31.183594 " fill-opacity="1" fill-rule="nonzero"/><path fill="#ffffff" d="M 41.929688 39.0625 L 6.847656 39.0625 L 6.847656 32.296875 L 41.929688 32.296875 L 41.929688 39.0625 " fill-opacity="1" fill-rule="nonzero"/><path fill="#4a1856" d="M 7.265625 38.644531 L 41.511719 38.644531 L 41.511719 32.714844 L 7.265625 32.714844 Z M 41.929688 39.480469 L 6.847656 39.480469 C 6.621094 39.480469 6.433594 39.292969 6.433594 39.0625 L 6.433594 32.296875 C 6.433594 32.066406 6.621094 31.878906 6.847656 31.878906 L 41.929688 31.878906 C 42.160156 31.878906 42.347656 32.066406 42.347656 32.296875 L 42.347656 39.0625 C 42.347656 39.292969 42.160156 39.480469 41.929688 39.480469 " fill-opacity="1" fill-rule="nonzero"/><path fill="#8b9dd7" d="M 39.429688 37.902344 L 6.78125 37.902344 C 6.011719 37.902344 5.390625 38.527344 5.390625 39.296875 C 5.390625 40.070312 6.011719 40.695312 6.78125 40.695312 L 40.285156 40.695312 C 43.050781 40.695312 44.566406 38.496094 44.566406 35.785156 L 44.566406 35.617188 C 44.566406 32.90625 43.050781 30.710938 40.285156 30.710938 L 6.832031 30.710938 C 6.039062 30.710938 5.394531 31.355469 5.394531 32.148438 C 5.394531 32.945312 6.039062 33.589844 6.832031 33.589844 L 39.429688 33.589844 C 40.40625 33.589844 41.199219 34.386719 41.199219 35.363281 L 41.199219 36.128906 C 41.199219 37.109375 40.40625 37.902344 39.429688 37.902344 " fill-opacity="1" fill-rule="nonzero"/><g clip-path="url(#a0ef6d759e)"><path fill="#4a1856" d="M 6.78125 38.320312 C 6.242188 38.320312 5.804688 38.757812 5.804688 39.296875 C 5.804688 39.835938 6.242188 40.277344 6.78125 40.277344 L 40.285156 40.277344 C 43.136719 40.277344 44.148438 37.855469 44.148438 35.785156 L 44.148438 35.617188 C 44.148438 33.546875 43.136719 31.128906 40.285156 31.128906 L 6.832031 31.128906 C 6.269531 31.128906 5.8125 31.585938 5.8125 32.148438 C 5.8125 32.714844 6.269531 33.171875 6.832031 33.171875 L 39.429688 33.171875 C 40.636719 33.171875 41.617188 34.15625 41.617188 35.363281 L 41.617188 36.128906 C 41.617188 37.335938 40.636719 38.320312 39.429688 38.320312 Z M 40.285156 41.113281 L 6.78125 41.113281 C 5.785156 41.113281 4.972656 40.296875 4.972656 39.296875 C 4.972656 38.296875 5.785156 37.484375 6.78125 37.484375 L 39.429688 37.484375 C 40.175781 37.484375 40.78125 36.875 40.78125 36.128906 L 40.78125 35.363281 C 40.78125 34.617188 40.175781 34.007812 39.429688 34.007812 L 6.832031 34.007812 C 5.808594 34.007812 4.976562 33.175781 4.976562 32.148438 C 4.976562 31.125 5.808594 30.292969 6.832031 30.292969 L 40.285156 30.292969 C 43.09375 30.292969 44.980469 32.433594 44.980469 35.617188 L 44.980469 35.785156 C 44.980469 38.972656 43.09375 41.113281 40.285156 41.113281 " fill-opacity="1" fill-rule="nonzero"/></g><path fill="#ffffff" d="M 3.070312 19.117188 L 38.152344 19.117188 L 38.152344 12.351562 L 3.070312 12.351562 L 3.070312 19.117188 " fill-opacity="1" fill-rule="nonzero"/><path fill="#4a1856" d="M 3.488281 18.699219 L 37.734375 18.699219 L 37.734375 12.769531 L 3.488281 12.769531 Z M 38.152344 19.535156 L 3.070312 19.535156 C 2.839844 19.535156 2.652344 19.347656 2.652344 19.117188 L 2.652344 12.351562 C 2.652344 12.121094 2.839844 11.933594 3.070312 11.933594 L 38.152344 11.933594 C 38.378906 11.933594 38.566406 12.121094 38.566406 12.351562 L 38.566406 19.117188 C 38.566406 19.347656 38.378906 19.535156 38.152344 19.535156 " fill-opacity="1" fill-rule="nonzero"/><path fill="#f6d970" d="M 5.570312 17.957031 L 38.21875 17.957031 C 38.988281 17.957031 39.609375 18.582031 39.609375 19.351562 C 39.609375 20.125 38.988281 20.75 38.21875 20.75 L 4.714844 20.75 C 1.949219 20.75 0.433594 18.550781 0.433594 15.839844 L 0.433594 15.671875 C 0.433594 12.960938 1.949219 10.765625 4.714844 10.765625 L 38.167969 10.765625 C 38.960938 10.765625 39.605469 11.410156 39.605469 12.203125 C 39.605469 13 38.960938 13.644531 38.167969 13.644531 L 5.570312 13.644531 C 4.59375 13.644531 3.800781 14.441406 3.800781 15.417969 L 3.800781 16.183594 C 3.800781 17.164062 4.59375 17.957031 5.570312 17.957031 " fill-opacity="1" fill-rule="nonzero"/><path fill="#4a1856" d="M 4.714844 11.183594 C 1.863281 11.183594 0.851562 13.601562 0.851562 15.671875 L 0.851562 15.839844 C 0.851562 17.910156 1.863281 20.332031 4.714844 20.332031 L 38.21875 20.332031 C 38.757812 20.332031 39.195312 19.890625 39.195312 19.351562 C 39.195312 18.8125 38.757812 18.375 38.21875 18.375 L 5.570312 18.375 C 4.363281 18.375 3.382812 17.390625 3.382812 16.183594 L 3.382812 15.417969 C 3.382812 14.210938 4.363281 13.226562 5.570312 13.226562 L 38.167969 13.226562 C 38.730469 13.226562 39.1875 12.769531 39.1875 12.203125 C 39.1875 11.640625 38.730469 11.183594 38.167969 11.183594 Z M 38.21875 21.167969 L 4.714844 21.167969 C 1.90625 21.167969 0.0195312 19.027344 0.0195312 15.839844 L 0.0195312 15.671875 C 0.0195312 12.488281 1.90625 10.347656 4.714844 10.347656 L 38.167969 10.347656 C 39.191406 10.347656 40.023438 11.179688 40.023438 12.203125 C 40.023438 13.230469 39.191406 14.0625 38.167969 14.0625 L 5.570312 14.0625 C 4.824219 14.0625 4.21875 14.671875 4.21875 15.417969 L 4.21875 16.183594 C 4.21875 16.929688 4.824219 17.539062 5.570312 17.539062 L 38.21875 17.539062 C 39.214844 17.539062 40.027344 18.351562 40.027344 19.351562 C 40.027344 20.351562 39.214844 21.167969 38.21875 21.167969 " fill-opacity="1" fill-rule="nonzero"/><g clip-path="url(#0333392e26)"><path fill="#df2f89" d="M 9.832031 10.761719 C 9.179688 10.761719 8.652344 8.882812 8.652344 6.621094 C 8.652344 4.363281 9.179688 2.53125 9.832031 2.53125 L 43.273438 2.53125 C 43.925781 2.53125 44.457031 4.375 44.457031 6.648438 C 44.457031 8.917969 43.925781 10.761719 43.273438 10.761719 L 9.894531 10.765625 L 9.832031 10.761719 " fill-opacity="1" fill-rule="nonzero"/></g><g clip-path="url(#a83071a11f)"><path fill="#4a1856" d="M 9.847656 10.34375 L 9.90625 10.347656 L 43.273438 10.34375 C 43.480469 10.257812 44.039062 9.027344 44.039062 6.648438 C 44.039062 4.265625 43.480469 3.035156 43.257812 2.945312 L 9.832031 2.949219 C 9.628906 3.03125 9.066406 4.253906 9.066406 6.621094 C 9.066406 8.835938 9.570312 10.210938 9.847656 10.34375 Z M 9.851562 10.347656 C 9.851562 10.347656 9.851562 10.347656 9.855469 10.347656 C 9.855469 10.347656 9.855469 10.347656 9.851562 10.347656 Z M 9.894531 11.179688 L 9.828125 11.179688 C 8.570312 11.167969 8.234375 8.3125 8.234375 6.621094 C 8.234375 4.945312 8.570312 2.113281 9.832031 2.113281 L 43.273438 2.113281 C 44.535156 2.113281 44.871094 4.960938 44.871094 6.648438 C 44.871094 8.332031 44.535156 11.179688 43.273438 11.179688 L 9.894531 11.179688 " fill-opacity="1" fill-rule="nonzero"/></g><g clip-path="url(#641c221f81)"><path fill="#ffffff" d="M 13.699219 10.714844 C 13.046875 10.714844 12.519531 8.882812 12.519531 6.621094 C 12.519531 4.363281 13.046875 2.53125 13.699219 2.53125 L 39.421875 2.53125 C 40.074219 2.53125 40.605469 4.363281 40.605469 6.621094 C 40.605469 8.882812 40.074219 10.714844 39.421875 10.714844 L 13.699219 10.714844 " fill-opacity="1" fill-rule="nonzero"/></g><g clip-path="url(#516409baf8)"><path fill="#4a1856" d="M 13.710938 10.296875 L 39.421875 10.296875 C 39.628906 10.210938 40.1875 8.988281 40.1875 6.621094 C 40.1875 4.253906 39.628906 3.03125 39.40625 2.945312 L 13.699219 2.949219 C 13.496094 3.03125 12.9375 4.253906 12.9375 6.621094 C 12.9375 8.96875 13.484375 10.191406 13.710938 10.296875 Z M 13.71875 10.296875 L 13.722656 10.296875 Z M 39.421875 11.132812 L 13.699219 11.132812 C 12.4375 11.132812 12.101562 8.296875 12.101562 6.621094 C 12.101562 4.945312 12.4375 2.113281 13.699219 2.113281 L 39.421875 2.113281 C 40.683594 2.113281 41.019531 4.945312 41.019531 6.621094 C 41.019531 8.296875 40.683594 11.132812 39.421875 11.132812 " fill-opacity="1" fill-rule="nonzero"/></g><path fill="#4a1856" d="M 21.808594 8.972656 C 21.578125 8.972656 21.390625 8.785156 21.390625 8.554688 L 21.390625 4.582031 C 21.390625 4.351562 21.578125 4.164062 21.808594 4.164062 C 22.035156 4.164062 22.222656 4.351562 22.222656 4.582031 L 22.222656 8.554688 C 22.222656 8.785156 22.035156 8.972656 21.808594 8.972656 " fill-opacity="1" fill-rule="nonzero"/><path fill="#4a1856" d="M 31.375 8.972656 L 28.789062 8.972656 C 28.558594 8.972656 28.371094 8.785156 28.371094 8.554688 L 28.371094 4.582031 C 28.371094 4.351562 28.558594 4.164062 28.789062 4.164062 C 29.015625 4.164062 29.203125 4.351562 29.203125 4.582031 L 29.203125 8.136719 L 31.375 8.136719 C 31.605469 8.136719 31.792969 8.324219 31.792969 8.554688 C 31.792969 8.785156 31.605469 8.972656 31.375 8.972656 " fill-opacity="1" fill-rule="nonzero"/><path fill="#4a1856" d="M 18.445312 8.972656 C 18.214844 8.972656 18.03125 8.785156 18.03125 8.554688 L 18.03125 4.582031 C 18.03125 4.351562 18.214844 4.164062 18.445312 4.164062 C 18.675781 4.164062 18.863281 4.351562 18.863281 4.582031 L 18.863281 8.554688 C 18.863281 8.785156 18.675781 8.972656 18.445312 8.972656 " fill-opacity="1" fill-rule="nonzero"/><path fill="#4a1856" d="M 19.949219 5 L 16.941406 5 C 16.710938 5 16.523438 4.8125 16.523438 4.582031 C 16.523438 4.351562 16.710938 4.164062 16.941406 4.164062 L 19.949219 4.164062 C 20.179688 4.164062 20.367188 4.351562 20.367188 4.582031 C 20.367188 4.8125 20.179688 5 19.949219 5 " fill-opacity="1" fill-rule="nonzero"/><path fill="#4a1856" d="M 25.1875 8.972656 C 24.957031 8.972656 24.769531 8.785156 24.769531 8.554688 L 24.769531 4.582031 C 24.769531 4.351562 24.957031 4.164062 25.1875 4.164062 C 25.417969 4.164062 25.605469 4.351562 25.605469 4.582031 L 25.605469 8.554688 C 25.605469 8.785156 25.417969 8.972656 25.1875 8.972656 " fill-opacity="1" fill-rule="nonzero"/><path fill="#4a1856" d="M 26.691406 5 L 23.683594 5 C 23.453125 5 23.265625 4.8125 23.265625 4.582031 C 23.265625 4.351562 23.453125 4.164062 23.683594 4.164062 L 26.691406 4.164062 C 26.921875 4.164062 27.109375 4.351562 27.109375 4.582031 C 27.109375 4.8125 26.921875 5 26.691406 5 " fill-opacity="1" fill-rule="nonzero"/><path fill="#4a1856" d="M 35.867188 8.972656 L 33.160156 8.972656 C 32.929688 8.972656 32.742188 8.785156 32.742188 8.554688 L 32.742188 4.550781 C 32.742188 4.320312 32.929688 4.132812 33.160156 4.132812 L 35.882812 4.132812 C 36.113281 4.132812 36.300781 4.320312 36.300781 4.550781 C 36.300781 4.78125 36.113281 4.96875 35.882812 4.96875 L 33.578125 4.96875 L 33.578125 8.136719 L 35.867188 8.136719 C 36.097656 8.136719 36.285156 8.324219 36.285156 8.554688 C 36.285156 8.785156 36.097656 8.972656 35.867188 8.972656 " fill-opacity="1" fill-rule="nonzero"/><path fill="#4a1856" d="M 35.871094 6.96875 L 33.160156 6.96875 C 32.929688 6.96875 32.742188 6.78125 32.742188 6.550781 C 32.742188 6.320312 32.929688 6.132812 33.160156 6.132812 L 35.871094 6.132812 C 36.101562 6.132812 36.289062 6.320312 36.289062 6.550781 C 36.289062 6.78125 36.101562 6.96875 35.871094 6.96875 " fill-opacity="1" fill-rule="nonzero"/></svg>