<svg xmlns="http://www.w3.org/2000/svg" xmlns:xlink="http://www.w3.org/1999/xlink" width="60" zoomAndPan="magnify" viewBox="0 0 45 119.999999" height="160" preserveAspectRatio="xMidYMid meet" version="1.0"><defs><clipPath id="9c3e5f02a9"><path d="M 0 0 L 44.25 0 L 44.25 120 L 0 120 Z M 0 0 " clip-rule="nonzero"/></clipPath></defs><g clip-path="url(#9c3e5f02a9)"><path fill="#1a1a1a" d="M 0 -13.261719 L 44.25 -13.261719 L 44.25 121.613281 L 0 121.613281 Z M 0 -13.261719 " fill-opacity="1" fill-rule="nonzero"/></g><path fill="#f2f2f2" d="M 1.875 -13.261719 L 42.375 -13.261719 L 42.375 121.613281 L 1.875 121.613281 Z M 1.875 -13.261719 " fill-opacity="1" fill-rule="nonzero"/><path fill="#1a1a1a" d="M 3.375 -13.261719 L 40.875 -13.261719 L 40.875 121.613281 L 3.375 121.613281 Z M 3.375 -13.261719 " fill-opacity="1" fill-rule="nonzero"/><path fill="#f2f2f2" d="M 20.8125 101.570312 L 23.4375 101.570312 L 23.4375 111.6875 L 20.8125 111.6875 Z M 20.8125 101.570312 " fill-opacity="1" fill-rule="nonzero"/><path fill="#f2f2f2" d="M 20.8125 86.582031 L 23.4375 86.582031 L 23.4375 96.699219 L 20.8125 96.699219 Z M 20.8125 86.582031 " fill-opacity="1" fill-rule="nonzero"/><path fill="#f2f2f2" d="M 20.8125 71.597656 L 23.4375 71.597656 L 23.4375 81.714844 L 20.8125 81.714844 Z M 20.8125 71.597656 " fill-opacity="1" fill-rule="nonzero"/><path fill="#f2f2f2" d="M 20.8125 56.609375 L 23.4375 56.609375 L 23.4375 66.726562 L 20.8125 66.726562 Z M 20.8125 56.609375 " fill-opacity="1" fill-rule="nonzero"/><path fill="#f2f2f2" d="M 20.8125 41.625 L 23.4375 41.625 L 23.4375 51.738281 L 20.8125 51.738281 Z M 20.8125 41.625 " fill-opacity="1" fill-rule="nonzero"/><path fill="#f2f2f2" d="M 20.8125 26.636719 L 23.4375 26.636719 L 23.4375 36.753906 L 20.8125 36.753906 Z M 20.8125 26.636719 " fill-opacity="1" fill-rule="nonzero"/><path fill="#f2f2f2" d="M 20.8125 11.652344 L 23.4375 11.652344 L 23.4375 21.765625 L 20.8125 21.765625 Z M 20.8125 11.652344 " fill-opacity="1" fill-rule="nonzero"/><path fill="#f2f2f2" d="M 20.8125 -3.335938 L 23.4375 -3.335938 L 23.4375 6.78125 L 20.8125 6.78125 Z M 20.8125 -3.335938 " fill-opacity="1" fill-rule="nonzero"/><path fill="#f2f2f2" d="M 20.8125 116.554688 L 23.4375 116.554688 L 23.4375 121.613281 L 20.8125 121.613281 Z M 20.8125 116.554688 " fill-opacity="1" fill-rule="nonzero"/></svg>